<?xml version="1.0" encoding="utf-8"?>
<!-- Generator: Adobe Illustrator 26.5.0, SVG Export Plug-In . SVG Version: 6.00 Build 0)  -->
<svg version="1.1" id="Layer_1" xmlns="http://www.w3.org/2000/svg" xmlns:xlink="http://www.w3.org/1999/xlink" x="0px" y="0px"
	 viewBox="0 0 443.09 443.09" style="enable-background:new 0 0 443.09 443.09;" xml:space="preserve">
<style type="text/css">
	.st0{fill:#3C445B;}
</style>
<g>
	<g>
		<g>
			<path class="st0" d="M328.82,352.09c-2.32,0-4.63,0-6.95,0c-6.23,0-12.46,0-18.69,0c-9.07,0-18.14,0-27.2,0
				c-10.83,0-21.66,0-32.49,0c-11.51,0-23.03,0-34.54,0c-11.12,0-22.25,0-33.37,0c-9.62,0-19.24,0-28.86,0c-7.14,0-14.29,0-21.43,0
				c-3.48,0-6.97,0-10.45,0c-0.19,0-0.37,0-0.56,0c-0.58,0-1.16-0.02-1.74-0.05c-0.44-0.03-0.89-0.06-1.33-0.1
				c-0.22-0.02-0.52-0.1-0.75-0.09c1.42-0.07,0.82,0.11,0.29,0.02c-1.95-0.34-3.83-0.89-5.69-1.57c-1.26-0.47,0.87,0.43-0.08-0.03
				c-0.44-0.21-0.88-0.41-1.31-0.63c-0.86-0.44-1.69-0.92-2.51-1.44c-0.4-0.26-0.8-0.53-1.19-0.81c-0.14-0.1-0.44-0.39-0.58-0.42
				c0.09,0.02,1.14,0.92,0.36,0.28c-0.74-0.62-1.46-1.24-2.15-1.91c-0.64-0.63-1.26-1.28-1.84-1.97c-0.13-0.15-1.19-1.47-0.55-0.65
				c0.55,0.69,0.14,0.18,0.04,0.03c-0.2-0.3-0.42-0.59-0.62-0.88c-0.51-0.75-0.98-1.52-1.41-2.31c-0.2-0.37-0.4-0.74-0.59-1.12
				c-0.11-0.22-0.21-0.43-0.32-0.65c-0.06-0.12-0.54-1.24-0.14-0.28c0.41,0.97-0.23-0.62-0.3-0.81c-0.14-0.4-0.28-0.81-0.41-1.22
				c-0.31-1-0.57-2.02-0.77-3.05c-0.08-0.42-0.12-0.87-0.23-1.29c0.43,1.7,0.04,0.27-0.01-0.28c-0.08-0.89-0.11-1.79-0.12-2.68
				c0-0.17,0-0.33,0-0.5c0-1.19,0-2.38,0-3.58c0-5.38,0-10.77,0-16.15c0-8.48,0-16.96,0-25.45c0-10.5,0-21.01,0-31.51
				c0-11.45,0-22.9,0-34.34c0-11.32,0-22.63,0-33.95c0-10.11,0-20.21,0-30.32c0-7.8,0-15.6,0-23.39c0-4.48,0-8.95,0-13.43
				c0-0.64,0-1.29,0-1.93c0-0.71,0.02-1.41,0.07-2.11c0.03-0.44,0.08-0.88,0.12-1.32c0.11-1.04-0.03,0.37-0.06,0.47
				c0.1-0.34,0.12-0.76,0.19-1.11c0.36-1.89,0.97-3.67,1.61-5.48c0.26-0.73-0.54,1.11-0.18,0.43c0.08-0.16,0.15-0.33,0.23-0.5
				c0.2-0.44,0.42-0.87,0.65-1.3c0.45-0.85,0.94-1.68,1.47-2.49c0.26-0.4,0.55-0.79,0.82-1.18c0.56-0.82-0.2,0.28-0.29,0.35
				c0.16-0.13,0.33-0.41,0.45-0.56c0.61-0.74,1.25-1.45,1.93-2.13c0.68-0.68,1.39-1.32,2.13-1.93c0.14-0.11,0.29-0.22,0.42-0.34
				c0.57-0.51-1,0.71-0.36,0.28c0.45-0.3,0.88-0.63,1.33-0.93c0.75-0.5,1.53-0.96,2.33-1.38c0.37-0.2,0.75-0.39,1.13-0.58
				c0.22-0.11,0.44-0.2,0.66-0.31c1.18-0.57-1.32,0.49-0.09,0.04c1.8-0.66,3.61-1.23,5.49-1.57c0.25-0.05,0.49-0.08,0.74-0.13
				c0.79-0.15-1.28,0.14-0.48,0.06c0.44-0.05,0.88-0.1,1.32-0.13c0.77-0.06,1.54-0.08,2.31-0.09c0.64,0,1.29,0,1.93,0
				c4.48,0,8.95,0,13.43,0c7.83,0,15.67,0,23.5,0c10.11,0,20.23,0,30.34,0c11.32,0,22.64,0,33.95,0c11.45,0,22.89,0,34.34,0
				c10.46,0,20.92,0,31.38,0c8.51,0,17.02,0,25.53,0c5.36,0,10.71,0,16.07,0c1.2,0,2.39,0,3.59,0c0.16,0,0.32,0,0.48,0
				c0.83,0,1.66,0.03,2.49,0.1c0.21,0.02,1.98,0.21,0.89,0.08c-0.91-0.11-0.25-0.03-0.05,0c0.37,0.07,0.74,0.13,1.1,0.2
				c0.91,0.19,1.81,0.41,2.69,0.68c0.41,0.12,0.82,0.26,1.22,0.4c0.23,0.08,0.46,0.17,0.69,0.25c0.12,0.05,1.26,0.51,0.3,0.11
				c-0.97-0.41,0.59,0.28,0.77,0.37c0.38,0.19,0.76,0.38,1.13,0.58c0.9,0.49,1.77,1.02,2.62,1.6c0.28,0.19,0.7,0.63,1.02,0.73
				c-0.75-0.23-0.86-0.69-0.36-0.28c0.18,0.15,0.37,0.3,0.55,0.46c0.73,0.62,1.43,1.27,2.1,1.96c0.67,0.69,1.29,1.41,1.91,2.15
				c0.67,0.8-0.71-1.02,0.04,0.07c0.31,0.44,0.62,0.88,0.91,1.34c0.49,0.76,0.94,1.54,1.36,2.35c0.22,0.43,0.43,0.87,0.64,1.3
				c0.07,0.14,0.12,0.38,0.22,0.5c-0.34-0.82-0.42-1.02-0.25-0.59c0.07,0.17,0.14,0.34,0.2,0.51c0.68,1.79,1.18,3.64,1.51,5.52
				c0.26,1.5-0.12-1.25,0.05,0.27c0.05,0.44,0.09,0.88,0.11,1.33c0.04,0.64,0.06,1.28,0.06,1.93c0,0.19,0,0.37,0,0.56
				c0,3.51,0,7.01,0,10.52c0,7.12,0,14.25,0,21.37c0,9.66,0,19.33,0,28.99c0,11.13,0,22.25,0,33.38c0,11.47,0,22.94,0,34.41
				c0,10.87,0,21.74,0,32.61c0,9.03,0,18.06,0,27.08c0,6.23,0,12.46,0,18.69c0,2.32,0.01,4.63,0,6.95
				c-0.01,1.02-0.05,2.04-0.15,3.06c-0.02,0.19-0.04,0.38-0.06,0.56c-0.08,0.81,0.21-1.27,0.06-0.48c-0.08,0.43-0.15,0.86-0.23,1.29
				c-0.2,0.97-0.44,1.93-0.74,2.87c-0.13,0.41-0.26,0.82-0.41,1.22c-0.07,0.19-0.7,1.79-0.3,0.81c0.39-0.95-0.19,0.39-0.29,0.61
				c-0.21,0.44-0.43,0.87-0.66,1.29c-0.43,0.79-0.9,1.57-1.4,2.32c-0.27,0.4-0.56,0.78-0.83,1.18c-0.43,0.64,0.79-0.93,0.28-0.36
				c-0.12,0.13-0.23,0.28-0.34,0.42c-0.61,0.74-1.25,1.45-1.93,2.13c-0.63,0.63-1.3,1.24-1.99,1.82c-0.14,0.12-0.28,0.23-0.42,0.34
				c-0.77,0.65,0.27-0.25,0.36-0.28c-0.37,0.1-0.86,0.62-1.17,0.83c-0.75,0.51-1.52,0.98-2.31,1.41c-0.72,0.4-1.81,0.69-2.44,1.2
				c0.75-0.61,0.98-0.39,0.42-0.18c-0.23,0.08-0.45,0.18-0.68,0.26c-0.46,0.17-0.92,0.33-1.39,0.47c-0.88,0.27-1.78,0.51-2.69,0.7
				c-0.43,0.09-0.86,0.16-1.29,0.24c-1.02,0.2,0.36-0.06,0.48-0.05c-0.22-0.02-0.54,0.06-0.75,0.09
				C330.86,352.04,329.84,352.08,328.82,352.09c-3.14,0.02-6.15,2.75-6,6c0.14,3.23,2.64,6.02,6,6c9.15-0.06,17.94-3.54,24.63-9.78
				c6.66-6.2,10.53-14.83,11.21-23.85c0.22-2.89,0.09-5.84,0.09-8.73c0-6.16,0-12.31,0-18.47c0-9.07,0-18.15,0-27.22
				c0-10.89,0-21.78,0-32.67c0-11.65,0-23.3,0-34.94c0-11.21,0-22.42,0-33.63c0-9.71,0-19.43,0-29.14c0-7.14,0-14.28,0-21.41
				c0-3.4,0-6.8,0-10.2c-0.01-13.66-7.71-26.89-20.25-32.74c-5.06-2.36-10.41-3.61-16.01-3.61c-1.1,0-2.2,0-3.3,0
				c-5.28,0-10.56,0-15.84,0c-8.5,0-17.01,0-25.51,0c-10.56,0-21.11,0-31.67,0c-11.53,0-23.06,0-34.6,0c-11.45,0-22.9,0-34.35,0
				c-10.14,0-20.27,0-30.41,0c-7.87,0-15.75,0-23.62,0c-4.4,0-8.81,0-13.21,0c-0.89,0-1.78-0.01-2.67,0.02
				c-9.03,0.29-17.72,3.94-24.19,10.26c-6.51,6.35-10.28,15.06-10.74,24.12c-0.05,1.05-0.04,2.11-0.04,3.17c0,4.36,0,8.71,0,13.07
				c0,7.8,0,15.61,0,23.41c0,10.15,0,20.3,0,30.45c0,11.4,0,22.79,0,34.19c0,11.58,0,23.17,0,34.75c0,10.57,0,21.15,0,31.72
				c0,8.51,0,17.02,0,25.52c0,5.35,0,10.71,0,16.06c0,1.13,0,2.25,0,3.38c0.01,5.44,1.17,10.61,3.39,15.55
				c5.73,12.79,19.09,20.74,32.93,20.75c3.35,0,6.7,0,10.05,0c7.07,0,14.13,0,21.2,0c9.72,0,19.45,0,29.17,0c11.2,0,22.4,0,33.6,0
				c11.61,0,23.21,0,34.82,0c10.95,0,21.9,0,32.85,0c9.1,0,18.2,0,27.31,0c6.2,0,12.4,0,18.59,0c2.19,0,4.39,0,6.58,0
				c3.14,0,6.15-2.76,6-6C334.68,354.84,332.18,352.09,328.82,352.09z"/>
		</g>
	</g>
	<g>
		<g>
			<path class="st0" d="M358.75,167.83c-2.46,0-4.92,0-7.38,0c-6.64,0-13.27,0-19.91,0c-9.88,0-19.75,0-29.63,0
				c-11.97,0-23.93,0-35.9,0c-13.2,0-26.39,0-39.59,0c-13.23,0-26.46,0-39.69,0c-12.42,0-24.84,0-37.26,0c-10.43,0-20.85,0-31.28,0
				c-7.55,0-15.1,0-22.65,0c-3.55,0-7.11-0.04-10.66,0c-0.16,0-0.31,0-0.47,0c-3.14,0-6.15,2.76-6,6c0.15,3.25,2.64,6,6,6
				c2.46,0,4.92,0,7.38,0c6.64,0,13.27,0,19.91,0c9.88,0,19.75,0,29.63,0c11.97,0,23.93,0,35.9,0c13.2,0,26.39,0,39.59,0
				c13.23,0,26.46,0,39.69,0c12.42,0,24.84,0,37.26,0c10.43,0,20.85,0,31.28,0c7.55,0,15.1,0,22.65,0c3.55,0,7.11,0.04,10.66,0
				c0.16,0,0.31,0,0.47,0c3.14,0,6.15-2.76,6-6C364.6,170.58,362.11,167.83,358.75,167.83L358.75,167.83z"/>
		</g>
	</g>
	<g>
		<g>
			<g>
				<path class="st0" d="M154.71,257.62c-2.26,0-4.56,0.1-6.81-0.12c-0.22-0.02-0.46-0.07-0.68-0.08c1.58,0.06,1.01,0.15,0.58,0.06
					c-0.45-0.08-0.89-0.16-1.33-0.26c-0.98-0.22-1.95-0.51-2.9-0.85c-0.56-0.2-1.57-0.89-0.11-0.01c-0.37-0.22-0.81-0.37-1.2-0.56
					c-0.88-0.44-1.73-0.94-2.56-1.49c-0.35-0.23-0.7-0.57-1.07-0.76c0.07,0.03,1.17,0.95,0.44,0.34c-0.17-0.14-0.34-0.28-0.5-0.42
					c-0.75-0.64-1.45-1.32-2.12-2.04c-0.3-0.32-0.58-0.65-0.86-0.98c-0.14-0.16-0.26-0.36-0.41-0.51c0.06,0.06,0.88,1.22,0.35,0.43
					c-0.52-0.77-1.05-1.53-1.51-2.35c-0.24-0.43-0.47-0.87-0.69-1.31c-0.26-0.52-0.53-1.74-0.07-0.08
					c-0.25-0.91-0.66-1.77-0.92-2.69c-0.25-0.9-0.29-1.95-0.61-2.81c0.03,0.07,0.17,1.58,0.08,0.57c-0.02-0.23-0.05-0.46-0.07-0.69
					c-0.04-0.52-0.07-1.04-0.08-1.57c-0.18-8.35-0.01-16.71-0.01-25.06c0-3.47,0-6.95,0-10.42c-2,2-4,4-6,6c6.05,0,12.1,0,18.15,0
					c9.65,0,19.29,0,28.94,0c2.22,0,4.43,0,6.65,0c-2-2-4-4-6-6c0,7.47,0,14.94,0,22.41c0,3.79,0,7.59,0,11.38
					c0,1.38-0.04,2.74-0.18,4.12c-0.08,0.78,0.22-1.34,0.07-0.58c-0.03,0.17-0.06,0.34-0.09,0.5c-0.08,0.44-0.18,0.89-0.28,1.33
					c-0.21,0.87-0.47,1.73-0.77,2.57c-0.21,0.57-0.89,1.56-0.01,0.11c-0.19,0.32-0.32,0.71-0.49,1.05
					c-0.39,0.79-0.82,1.55-1.29,2.29c-0.27,0.42-0.55,0.81-0.83,1.22c-0.24,0.35-0.69,0.66,0.35-0.43c-0.19,0.2-0.34,0.43-0.52,0.63
					c-0.6,0.71-1.23,1.38-1.9,2.02c-0.36,0.34-0.72,0.66-1.1,0.98c-0.17,0.14-0.34,0.27-0.51,0.41c-0.52,0.45,1.27-0.9,0.3-0.24
					c-0.77,0.52-1.53,1.05-2.35,1.51c-0.43,0.24-0.87,0.47-1.31,0.69c-0.2,0.1-0.4,0.19-0.6,0.28c-0.73,0.36,0.34-0.17,0.52-0.21
					c-0.96,0.23-1.89,0.7-2.85,0.96c-0.49,0.13-0.98,0.25-1.48,0.35c-0.52,0.11-2.2,0.26-0.26,0.09
					C156.79,257.52,155.76,257.61,154.71,257.62c-3.14,0.02-6.15,2.74-6,6c0.14,3.23,2.64,6.02,6,6c8.48-0.06,16.89-3.6,22.6-9.94
					c5.18-5.76,8.06-13.12,8.09-20.88c0.03-8.36,0-16.73,0-25.09c0-3.25,0-6.49,0-9.74c0-3.24-2.75-6-6-6c-6.05,0-12.1,0-18.15,0
					c-9.65,0-19.29,0-28.94,0c-2.22,0-4.43,0-6.65,0c-3.24,0-6,2.75-6,6c0,8.63,0,17.26,0,25.89c0,3.02-0.02,6.04,0,9.06
					c0.05,9,4.09,18.01,11.19,23.65c4.02,3.19,8.66,5.61,13.76,6.47c3.38,0.57,6.7,0.56,10.11,0.56c3.14,0,6.15-2.76,6-6
					C160.56,260.37,158.07,257.62,154.71,257.62z"/>
			</g>
		</g>
		<g>
			<g>
				<path class="st0" d="M158.52,310.75c0-5.31,0-10.63,0-15.94c0-8.43,0-16.87,0-25.3c0-1.96,0-3.92,0-5.88c0-3.14-2.76-6.15-6-6
					c-3.25,0.15-6,2.64-6,6c0,5.31,0,10.63,0,15.94c0,8.43,0,16.87,0,25.3c0,1.96,0,3.92,0,5.88c0,3.14,2.76,6.15,6,6
					C155.77,316.6,158.52,314.11,158.52,310.75L158.52,310.75z"/>
			</g>
		</g>
		<g>
			<g>
				<path class="st0" d="M125.65,314.8c6.05,0,12.1,0,18.15,0c9.65,0,19.29,0,28.94,0c2.22,0,4.43,0,6.65,0c3.14,0,6.15-2.76,6-6
					c-0.15-3.25-2.64-6-6-6c-6.05,0-12.1,0-18.15,0c-9.65,0-19.29,0-28.94,0c-2.22,0-4.43,0-6.65,0c-3.14,0-6.15,2.76-6,6
					C119.8,312.05,122.29,314.8,125.65,314.8L125.65,314.8z"/>
			</g>
		</g>
	</g>
	<g>
		<g>
			<path class="st0" d="M311.49,256.39c0,1.4-0.05,2.8-0.17,4.19c-0.05,0.57-0.1,1.15-0.16,1.72c-0.05,0.43-0.3,1.64,0.04-0.23
				c-0.08,0.45-0.13,0.9-0.21,1.35c-0.42,2.56-1.04,5.08-1.84,7.55c-0.4,1.22-0.88,2.4-1.32,3.6c-0.28,0.76,0.64-1.45,0.15-0.36
				c-0.14,0.3-0.27,0.61-0.4,0.91c-0.32,0.7-0.66,1.4-1.01,2.08c-1.15,2.25-2.46,4.41-3.92,6.46c-0.28,0.4-1.73,2.18-0.43,0.63
				c-0.35,0.42-0.68,0.86-1.03,1.28c-0.87,1.05-1.78,2.07-2.73,3.04c-0.87,0.9-1.78,1.77-2.71,2.61c-0.41,0.36-0.82,0.72-1.24,1.07
				c-0.25,0.21-0.5,0.42-0.76,0.62c-0.36,0.29-1.66,1.1-0.08,0.07c-2.12,1.38-4.1,2.89-6.33,4.12c-1.16,0.64-2.34,1.23-3.54,1.78
				c-0.47,0.22-2.25,0.8-0.39,0.19c-0.73,0.24-1.45,0.58-2.17,0.84c-2.43,0.87-4.92,1.57-7.45,2.07c-0.67,0.13-1.34,0.25-2.01,0.36
				c-0.34,0.05-0.68,0.09-1.02,0.15c1.67-0.31,0.97-0.12,0.57-0.08c-1.5,0.16-2.99,0.29-4.5,0.34c-2.68,0.09-5.35-0.06-8.02-0.34
				c-1.28-0.13,1.5,0.23,0.23,0.03c-0.34-0.05-0.68-0.1-1.01-0.16c-0.56-0.09-1.12-0.19-1.68-0.31c-1.33-0.26-2.64-0.58-3.94-0.95
				c-1.29-0.36-2.56-0.78-3.82-1.24c-0.52-0.19-1.04-0.4-1.55-0.6c-1.16-0.45,1.34,0.6,0.21,0.09c-0.4-0.18-0.81-0.36-1.21-0.54
				c-2.29-1.07-4.51-2.3-6.62-3.68c-0.55-0.36-1.09-0.73-1.63-1.11c-0.27-0.19-0.53-0.38-0.8-0.58c-0.15-0.11-1.02-0.79-0.18-0.12
				c0.84,0.67-0.03-0.02-0.17-0.14c-0.26-0.2-0.51-0.41-0.76-0.62c-0.59-0.49-1.17-0.99-1.73-1.5c-1.86-1.68-3.6-3.5-5.2-5.43
				c-0.33-0.4-1.58-2.25-0.49-0.58c-0.3-0.45-0.66-0.88-0.97-1.32c-0.79-1.12-1.54-2.26-2.24-3.44c-0.65-1.08-1.26-2.19-1.83-3.32
				c-0.25-0.49-0.49-0.99-0.72-1.49c-0.14-0.3-0.28-0.6-0.41-0.91c-0.66-1.5,0.34,0.89-0.04-0.1c-0.93-2.4-1.75-4.83-2.35-7.33
				c-0.32-1.32-0.58-2.66-0.8-4c-0.04-0.23-0.07-0.45-0.1-0.68c-0.19-1.27,0.17,1.51,0.03,0.23c-0.08-0.8-0.17-1.6-0.23-2.41
				c-0.19-2.68-0.19-5.37,0.03-8.04c0.05-0.69,0.13-1.38,0.2-2.06c0.13-1.28-0.23,1.5-0.03,0.23c0.04-0.23,0.07-0.45,0.1-0.68
				c0.23-1.45,0.52-2.9,0.88-4.33c0.62-2.52,1.58-4.87,2.4-7.31c-0.64,1.92,0.11-0.22,0.33-0.69c0.23-0.5,0.47-1,0.72-1.49
				c0.59-1.18,1.23-2.33,1.91-3.46c0.68-1.13,1.4-2.22,2.16-3.3c0.32-0.44,0.67-0.87,0.97-1.32c-0.96,1.48-0.41,0.52-0.13,0.18
				c0.27-0.34,0.55-0.68,0.83-1.01c1.61-1.92,3.36-3.73,5.23-5.4c0.9-0.8,1.84-1.53,2.76-2.31c-1.55,1.3,0.23-0.15,0.63-0.43
				c0.62-0.44,1.26-0.87,1.9-1.29c2.12-1.37,4.35-2.59,6.65-3.64c0.3-0.14,0.61-0.27,0.91-0.4c1.13-0.51-1.37,0.54-0.21,0.09
				c0.52-0.2,1.03-0.41,1.55-0.6c1.26-0.46,2.53-0.88,3.82-1.24c1.3-0.37,2.62-0.68,3.94-0.95c0.56-0.11,1.12-0.21,1.68-0.31
				c0.34-0.06,0.68-0.11,1.01-0.16c1.08-0.17-1.58,0.18,0.11-0.01c2.66-0.3,5.35-0.39,8.02-0.29c1.33,0.05,2.66,0.16,3.98,0.31
				c0.45,0.05,1.33,0.25-0.4-0.06c0.34,0.06,0.68,0.1,1.02,0.15c0.79,0.12,1.57,0.27,2.35,0.43c2.53,0.52,5.01,1.23,7.43,2.12
				c0.62,0.23,1.23,0.52,1.86,0.72c-1.87-0.62-0.07-0.02,0.39,0.19c1.3,0.6,2.58,1.24,3.83,1.94c1.05,0.59,2.08,1.22,3.09,1.88
				c0.46,0.3,0.91,0.61,1.36,0.92c0.27,0.19,0.54,0.38,0.8,0.57c0.35,0.25,1.57,1.28,0.09,0.05c1.93,1.62,3.84,3.21,5.59,5.03
				c0.91,0.94,1.78,1.92,2.62,2.93c0.35,0.42,0.68,0.86,1.03,1.28c-1.17-1.4-0.39-0.5-0.15-0.17c0.26,0.35,0.52,0.71,0.77,1.06
				c1.45,2.07,2.75,4.24,3.88,6.49c0.3,0.59,0.58,1.19,0.86,1.79c0.14,0.3,0.27,0.61,0.4,0.91c0.4,0.89-0.2-0.45-0.22-0.52
				c0.42,1.37,1.05,2.7,1.48,4.08c0.78,2.47,1.38,5,1.79,7.57c0.05,0.34,0.09,0.68,0.15,1.02c-0.34-1.87-0.09-0.66-0.04-0.23
				c0.06,0.57,0.12,1.15,0.16,1.72C311.43,253.59,311.48,254.99,311.49,256.39c0.01,3.14,2.75,6.15,6,6c3.24-0.15,6.01-2.64,6-6
				c-0.04-11.92-3.68-23.91-10.66-33.61c-7.07-9.82-16.71-17.21-28.07-21.38c-22.55-8.29-49.27-1.01-64.49,17.57
				c-7.8,9.53-12.46,20.94-13.43,33.23c-0.95,11.95,2.07,24.3,8.32,34.52c5.99,9.79,14.94,17.96,25.43,22.68
				c11.47,5.16,24.05,6.64,36.4,4.17c23.14-4.62,42.13-24.26,45.69-47.62c0.48-3.17,0.8-6.35,0.81-9.56c0.01-3.14-2.77-6.14-6-6
				C314.23,250.54,311.5,253.03,311.49,256.39z"/>
		</g>
	</g>
	<g>
		<g>
			<g>
				<path class="st0" d="M311.49,129.98c0,0.35-0.01,0.69-0.03,1.04c-0.01,0.17-0.09,0.5-0.06,0.68c0.01,0.05,0.23-1.38,0.1-0.75
					c-0.17,0.77-0.31,1.52-0.55,2.27c-0.08,0.24-0.52,1.31-0.1,0.37c0.42-0.95-0.06,0.11-0.17,0.33c-0.34,0.68-0.74,1.32-1.17,1.96
					c-0.09,0.13-0.22,0.26-0.28,0.4c-0.01,0.02,0.86-1,0.44-0.58c-0.27,0.26-0.49,0.58-0.75,0.85c-0.22,0.23-0.46,0.46-0.69,0.68
					c-0.12,0.11-0.24,0.21-0.36,0.32c-0.71,0.66-0.02-0.06,0.33-0.23c-0.57,0.27-1.08,0.75-1.63,1.07
					c-0.33,0.19-0.68,0.35-1.02,0.53c-1.14,0.59,0.97-0.31,0.07-0.03c-0.69,0.21-1.37,0.44-2.08,0.59
					c-0.25,0.05-1.43,0.24-0.37,0.09c1.11-0.15-0.49,0.01-0.74,0.02c-0.7,0.02-1.38-0.04-2.08-0.07c-0.65-0.03,0.81,0.12,0.75,0.11
					c-0.21-0.06-0.45-0.07-0.67-0.12c-0.38-0.08-0.76-0.17-1.14-0.27c-0.37-0.1-0.74-0.24-1.11-0.35c-0.99-0.3,1.14,0.57,0.22,0.11
					c-0.68-0.34-1.36-0.69-2-1.11c-0.26-0.17-0.52-0.42-0.8-0.56c-0.03-0.01,1,0.86,0.58,0.44c-0.11-0.11-0.25-0.21-0.37-0.32
					c-0.57-0.5-1.07-1.06-1.59-1.62c-0.7-0.75,0.71,1.05,0.14,0.19c-0.21-0.32-0.43-0.63-0.63-0.95c-0.17-0.28-0.33-0.56-0.48-0.85
					c-0.14-0.27-0.74-1.58-0.32-0.62c0.42,0.94-0.02-0.13-0.1-0.37c-0.1-0.32-0.2-0.64-0.28-0.96c-0.1-0.38-0.17-0.76-0.25-1.15
					c-0.2-0.96,0.13,1.42,0.02,0.07c-0.06-0.75-0.06-1.5-0.01-2.25c0.01-0.17,0.04-0.34,0.04-0.51c0.03-0.66-0.12,0.81-0.11,0.75
					c0.12-0.43,0.16-0.89,0.26-1.32c0.14-0.59,0.56-1.31,0.6-1.9c-0.01,0.08-0.65,1.38-0.22,0.52c0.07-0.15,0.14-0.3,0.21-0.44
					c0.17-0.34,0.35-0.68,0.55-1c0.19-0.33,0.41-0.64,0.62-0.96c0.09-0.13,0.22-0.26,0.28-0.4c0.01-0.03-0.86,1-0.44,0.58
					c0.54-0.53,1-1.12,1.57-1.64c0.18-0.16,1.08-0.88,0.26-0.26c-0.82,0.62,0.11-0.06,0.31-0.2c0.64-0.43,1.3-0.78,1.99-1.13
					c1.16-0.58-1,0.32-0.07,0.03c0.32-0.1,0.63-0.22,0.95-0.31c0.32-0.09,0.65-0.18,0.97-0.25c0.22-0.05,0.44-0.09,0.66-0.13
					c0.82-0.17-0.4,0.07-0.59,0.07c0.69,0.02,1.38-0.11,2.07-0.09c0.4,0.01,0.8,0.06,1.2,0.07c0.66,0.03-0.81-0.12-0.75-0.11
					c0.21,0.06,0.45,0.07,0.67,0.12c0.82,0.16,1.59,0.48,2.4,0.68c0.59,0.14-0.69-0.31-0.67-0.3c0.18,0.11,0.4,0.18,0.6,0.27
					c0.39,0.19,0.78,0.4,1.15,0.62c0.33,0.19,0.64,0.41,0.96,0.62c1.07,0.7-0.88-0.81,0.07,0.06c0.6,0.55,1.15,1.13,1.71,1.72
					c0.63,0.68-0.75-1.12-0.05-0.06c0.21,0.32,0.42,0.63,0.62,0.96c0.22,0.37,0.43,0.76,0.62,1.15c0.07,0.15,0.13,0.3,0.21,0.45
					c0.32,0.6-0.36-1.19-0.23-0.52c0.16,0.81,0.52,1.58,0.68,2.4c0.03,0.17,0.05,0.33,0.09,0.5c0.15,0.69-0.13-1.62-0.06-0.41
					C311.45,129.06,311.48,129.52,311.49,129.98c0.03,3.14,2.74,6.15,6,6c3.22-0.14,6.04-2.64,6-6c-0.1-9.27-5.92-17.22-14.55-20.41
					c-8.07-2.98-17.96-0.29-23.43,6.33c-5.83,7.06-7,17.09-2.24,25.08c4.77,8.02,14.04,11.83,23.1,10.13
					c9.94-1.87,17.01-11.23,17.12-21.13c0.03-3.14-2.78-6.14-6-6C314.21,124.13,311.53,126.62,311.49,129.98z"/>
			</g>
		</g>
		<g>
			<g>
				<path class="st0" d="M252.93,129.98c0,0.35-0.01,0.69-0.03,1.04c-0.01,0.17-0.09,0.5-0.06,0.68c0.01,0.05,0.23-1.38,0.1-0.75
					c-0.17,0.77-0.31,1.52-0.55,2.27c-0.08,0.24-0.52,1.31-0.1,0.37c0.42-0.95-0.06,0.11-0.17,0.33c-0.34,0.68-0.74,1.32-1.17,1.96
					c-0.09,0.13-0.22,0.26-0.28,0.4c-0.01,0.02,0.86-1,0.44-0.58c-0.27,0.26-0.49,0.58-0.75,0.85c-0.22,0.23-0.46,0.46-0.69,0.68
					c-0.12,0.11-0.24,0.21-0.36,0.32c-0.71,0.66-0.02-0.06,0.33-0.23c-0.57,0.27-1.08,0.75-1.63,1.07
					c-0.33,0.19-0.68,0.35-1.02,0.53c-1.14,0.59,0.97-0.31,0.07-0.03c-0.69,0.21-1.37,0.44-2.08,0.59
					c-0.25,0.05-1.43,0.24-0.37,0.09c1.11-0.15-0.49,0.01-0.74,0.02c-0.7,0.02-1.38-0.04-2.08-0.07c-0.65-0.03,0.81,0.12,0.75,0.11
					c-0.21-0.06-0.45-0.07-0.67-0.12c-0.38-0.08-0.76-0.17-1.14-0.27c-0.37-0.1-0.74-0.24-1.11-0.35c-0.99-0.3,1.14,0.57,0.22,0.11
					c-0.68-0.34-1.36-0.69-2-1.11c-0.26-0.17-0.52-0.42-0.8-0.56c-0.03-0.01,1,0.86,0.58,0.44c-0.11-0.11-0.25-0.21-0.37-0.32
					c-0.57-0.5-1.07-1.06-1.59-1.62c-0.7-0.75,0.71,1.05,0.14,0.19c-0.21-0.32-0.43-0.63-0.63-0.95c-0.17-0.28-0.33-0.56-0.48-0.85
					c-0.14-0.27-0.74-1.58-0.32-0.62c0.42,0.94-0.02-0.13-0.1-0.37c-0.1-0.32-0.2-0.64-0.28-0.96c-0.1-0.38-0.17-0.76-0.25-1.15
					c-0.2-0.96,0.13,1.42,0.02,0.07c-0.06-0.75-0.06-1.5-0.01-2.25c0.01-0.17,0.04-0.34,0.04-0.51c0.03-0.66-0.12,0.81-0.11,0.75
					c0.12-0.43,0.16-0.89,0.26-1.32c0.14-0.59,0.56-1.31,0.6-1.9c-0.01,0.08-0.65,1.38-0.22,0.52c0.07-0.15,0.14-0.3,0.21-0.44
					c0.17-0.34,0.35-0.68,0.55-1c0.19-0.33,0.41-0.64,0.62-0.96c0.09-0.13,0.22-0.26,0.28-0.4c0.01-0.03-0.86,1-0.44,0.58
					c0.54-0.53,1-1.12,1.57-1.64c0.18-0.16,1.08-0.88,0.26-0.26c-0.82,0.62,0.11-0.06,0.31-0.2c0.64-0.43,1.3-0.78,1.99-1.13
					c1.16-0.58-1,0.32-0.07,0.03c0.32-0.1,0.63-0.22,0.95-0.31c0.32-0.09,0.65-0.18,0.97-0.25c0.22-0.05,0.44-0.09,0.66-0.13
					c0.82-0.17-0.4,0.07-0.59,0.07c0.69,0.02,1.38-0.11,2.07-0.09c0.4,0.01,0.8,0.06,1.2,0.07c0.66,0.03-0.81-0.12-0.75-0.11
					c0.21,0.06,0.45,0.07,0.67,0.12c0.82,0.16,1.59,0.48,2.4,0.68c0.59,0.14-0.69-0.31-0.67-0.3c0.18,0.11,0.4,0.18,0.6,0.27
					c0.39,0.19,0.78,0.4,1.15,0.62c0.33,0.19,0.64,0.41,0.96,0.62c1.07,0.7-0.88-0.81,0.07,0.06c0.6,0.55,1.15,1.13,1.71,1.72
					c0.63,0.68-0.75-1.12-0.05-0.06c0.21,0.32,0.42,0.63,0.62,0.96c0.22,0.37,0.43,0.76,0.62,1.15c0.07,0.15,0.13,0.3,0.21,0.45
					c0.32,0.6-0.36-1.19-0.23-0.52c0.16,0.81,0.52,1.58,0.68,2.4c0.03,0.17,0.05,0.33,0.09,0.5c0.15,0.69-0.13-1.62-0.06-0.41
					C252.9,129.06,252.92,129.52,252.93,129.98c0.03,3.14,2.74,6.15,6,6c3.22-0.14,6.04-2.64,6-6c-0.1-9.27-5.92-17.22-14.55-20.41
					c-8.07-2.98-17.96-0.29-23.43,6.33c-5.83,7.06-7,17.09-2.24,25.08c4.77,8.02,14.04,11.83,23.1,10.13
					c9.94-1.87,17.01-11.23,17.12-21.13c0.03-3.14-2.78-6.14-6-6C255.65,124.13,252.97,126.62,252.93,129.98z"/>
			</g>
		</g>
	</g>
</g>
</svg>
