<?xml version="1.0" encoding="utf-8"?>
<!-- Generator: Adobe Illustrator 26.5.0, SVG Export Plug-In . SVG Version: 6.00 Build 0)  -->
<svg version="1.1" id="Layer_1" xmlns="http://www.w3.org/2000/svg" xmlns:xlink="http://www.w3.org/1999/xlink" x="0px" y="0px"
	 viewBox="0 0 443.09 443.09" style="enable-background:new 0 0 443.09 443.09;" xml:space="preserve">
<style type="text/css">
	.st0{fill:#B2ACBD;}
</style>
<g>
	<g>
		<g>
			<path class="st0" d="M298.12,401.23c-3.62,0-7.24,0-10.87,0c-9.1,0-18.2,0-27.3,0c-12,0-23.99,0-35.99,0
				c-12.11,0-24.22,0-36.34,0c-9.64,0-19.27,0-28.91,0c-4.51,0-9.02,0.02-13.54,0c-0.07,0-0.14,0-0.22,0
				c-0.95-0.01-1.89-0.09-2.84-0.16c-0.71-0.05,0.25,0.03,0.33,0.05c-0.25-0.05-0.5-0.08-0.75-0.13c-0.58-0.11-1.15-0.24-1.72-0.39
				c-0.97-0.25-1.89-0.61-2.84-0.92c0.98,0.32,0.07,0.03-0.37-0.18c-0.52-0.25-1.02-0.51-1.52-0.79c-0.85-0.48-1.63-1.08-2.46-1.58
				c-0.57-0.34,0.18,0.15,0.25,0.2c-0.19-0.15-0.38-0.3-0.56-0.46c-0.43-0.37-0.85-0.74-1.26-1.14c-0.7-0.68-1.35-1.4-1.98-2.14
				c-0.74-0.86,0.39,0.61-0.25-0.33c-0.32-0.47-0.64-0.94-0.94-1.42c-0.51-0.84-0.97-1.7-1.4-2.58c-0.11-0.22-0.21-0.45-0.3-0.67
				c0.04,0.09,0.3,0.93,0.14,0.29c-0.14-0.55-0.39-1.1-0.56-1.64c-0.29-0.97-0.5-1.94-0.7-2.93c-0.06-0.27-0.14-1.16-0.01,0.09
				c-0.03-0.26-0.06-0.51-0.08-0.77c-0.05-0.6-0.09-1.21-0.1-1.81c0-0.2,0-0.4-0.01-0.6c-0.02-2.25,0-4.49,0-6.74
				c0-5.46,0-10.91,0-16.37c0-8.06,0-16.12,0-24.18c0-10.12,0-20.23,0-30.35c0-11.46,0-22.93,0-34.39c0-12.25,0-24.51,0-36.76
				c0-12.44,0-24.88,0-37.32c0-12.08,0-24.16,0-36.24c0-11,0-21.99,0-32.99c0-9.37,0-18.73,0-28.1c0-7.13,0-14.27,0-21.4
				c0-4.31,0-8.62,0-12.93c0-0.89,0-1.77,0-2.66c0-0.53,0.01-1.07,0.03-1.6c0.03-0.52,0.09-1.03,0.12-1.54
				c0.05-0.71-0.03,0.25-0.05,0.33c0.05-0.25,0.08-0.5,0.13-0.75c0.2-1.07,0.47-2.12,0.81-3.15c0.15-0.47,0.35-0.93,0.5-1.4
				c-0.32,0.98-0.03,0.07,0.18-0.37c0.46-0.96,0.98-1.88,1.55-2.78c0.26-0.41,0.58-0.79,0.82-1.21c0.34-0.57-0.15,0.18-0.2,0.25
				c0.15-0.19,0.3-0.38,0.46-0.56c0.69-0.8,1.4-1.57,2.18-2.28c0.36-0.33,0.73-0.64,1.1-0.96c0.86-0.74-0.61,0.39,0.33-0.25
				c0.88-0.59,1.76-1.17,2.69-1.67c0.43-0.23,0.87-0.45,1.31-0.66c0.22-0.11,0.45-0.21,0.67-0.3c-0.09,0.04-0.93,0.3-0.29,0.14
				c1.04-0.26,2.04-0.7,3.09-0.95c0.49-0.12,0.99-0.21,1.48-0.31c1.16-0.24-0.77,0.03,0.42-0.07c0.87-0.07,1.73-0.12,2.59-0.13
				c1.02-0.01,2.05,0,3.08,0c6.79,0,13.58,0,20.36,0c10.96,0,21.91,0,32.87,0c12.36,0,24.72,0,37.08,0c11.16,0,22.32,0,33.48,0
				c7.32,0,14.63,0,21.95,0c1.39,0,2.78-0.01,4.17,0c0.23,0,0.45,0,0.68,0.01c0.52,0.01,1.04,0.04,1.55,0.08
				c0.5,0.04,1.5,0.24,0.44,0.03c1.07,0.22,2.14,0.41,3.19,0.72c0.48,0.14,0.95,0.3,1.42,0.46c0.23,0.08,0.46,0.18,0.7,0.26
				c-0.07-0.02-0.91-0.43-0.3-0.13c0.95,0.47,1.91,0.92,2.82,1.47c0.42,0.25,0.83,0.52,1.23,0.79c0.27,0.18,0.53,0.38,0.79,0.56
				c-0.07-0.05-0.74-0.65-0.25-0.19c0.77,0.72,1.59,1.37,2.32,2.14c0.34,0.35,0.66,0.71,0.98,1.08c0.31,0.36,0.86,1.16,0.28,0.31
				c0.6,0.88,1.2,1.73,1.72,2.66c0.24,0.43,0.47,0.86,0.69,1.3c0.1,0.21,0.64,1.49,0.4,0.86c-0.24-0.64,0.23,0.69,0.31,0.91
				c0.19,0.55,0.35,1.11,0.5,1.67c0.13,0.49,0.24,0.98,0.34,1.47c0.1,0.48,0.22,1.49,0.1,0.41c0.11,1.03,0.17,2.06,0.18,3.1
				c0,0.03,0,0.06,0,0.1c0,0.72,0,1.43,0,2.15c0,3.98,0,7.96,0,11.95c0,6.88,0,13.76,0,20.64c0,9.22,0,18.44,0,27.67
				c0,10.87,0,21.73,0,32.6c0,11.95,0,23.9,0,35.85c0,12.43,0,24.85,0,37.28c0,12.36,0,24.72,0,37.08c0,11.56,0,23.13,0,34.69
				c0,10.23,0,20.46,0,30.68c0,8.29,0,16.57,0,24.86c0,5.76,0,11.53,0,17.29c0,2.58,0.01,5.15,0,7.73c0,0.6-0.01,1.21-0.05,1.81
				c-0.03,0.51-0.08,1.03-0.14,1.54c0.11-1.08-0.01-0.07-0.1,0.41c-0.2,0.98-0.45,1.95-0.76,2.91c-0.15,0.47-0.35,0.93-0.5,1.4
				c0.32-0.98,0.03-0.07-0.18,0.37c-0.42,0.88-0.9,1.74-1.42,2.57c-0.26,0.41-0.54,0.81-0.81,1.22c-0.63,0.94,0.49-0.53-0.25,0.33
				c-0.69,0.8-1.39,1.58-2.16,2.3c-0.35,0.33-0.72,0.65-1.09,0.97c-0.18,0.16-0.38,0.31-0.56,0.46c0.07-0.06,0.81-0.54,0.25-0.2
				c-0.84,0.5-1.61,1.1-2.46,1.58c-0.43,0.24-0.86,0.47-1.3,0.69c-0.21,0.1-1.49,0.64-0.86,0.4c0.64-0.24-0.69,0.23-0.91,0.31
				c-0.47,0.16-0.95,0.3-1.43,0.43c-0.48,0.13-0.97,0.25-1.46,0.35c-0.23,0.05-1.65,0.3-0.95,0.19c0.7-0.11-0.75,0.07-0.99,0.08
				C299.33,401.21,298.73,401.22,298.12,401.23c-3.14,0.03-6.15,2.74-6,6c0.14,3.22,2.64,6.03,6,6
				c17.56-0.17,31.83-14.5,31.94-32.06c0.02-2.37,0-4.75,0-7.12c0-5.66,0-11.32,0-16.98c0-8.27,0-16.53,0-24.8
				c0-10.33,0-20.65,0-30.98c0-11.72,0-23.44,0-35.16c0-12.42,0-24.84,0-37.25c0-12.61,0-25.22,0-37.83c0-12.06,0-24.11,0-36.17
				c0-10.99,0-21.98,0-32.97c0-9.19,0-18.38,0-27.58c0-6.86,0-13.71,0-20.57c0-3.84,0-7.68,0-11.51c0-9.27-2.89-18.15-9.7-24.72
				c-6-5.78-14.01-8.96-22.32-9.02c-1.29-0.01-2.57,0-3.86,0c-7.25,0-14.51,0-21.76,0c-11.29,0-22.58,0-33.88,0
				c-12.54,0-25.08,0-37.62,0c-10.98,0-21.95,0-32.93,0c-6.76,0-13.52,0-20.28,0c-1.26,0-2.53-0.03-3.79,0.02
				c-9.99,0.4-18.93,5.33-24.87,13.3c-4.61,6.18-6.03,13.57-6.03,21.09c0,4.16,0,8.32,0,12.48c0,7.08,0,14.15,0,21.23
				c0,9.43,0,18.86,0,28.3c0,11.07,0,22.14,0,33.21c0,12.19,0,24.38,0,36.57c0,12.56,0,25.13,0,37.69c0,12.43,0,24.87,0,37.3
				c0,11.61,0,23.22,0,34.83c0,10.11,0,20.22,0,30.33c0,8.08,0,16.16,0,24.24c0,5.35,0,10.7,0,16.04c0,2.04-0.02,4.08,0,6.11
				c0.14,17.57,14.52,31.84,32.06,31.95c4.36,0.03,8.72,0,13.08,0c9.71,0,19.42,0,29.13,0c12.22,0,24.45,0,36.67,0
				c12.1,0,24.21,0,36.31,0c9.16,0,18.32,0,27.48,0c3.45,0,6.91,0,10.36,0c3.14,0,6.15-2.76,6-6
				C303.97,403.98,301.48,401.23,298.12,401.23z"/>
		</g>
	</g>
	<g>
		<g>
			<path class="st0" d="M119.03,183.21c1.82,0,3.64,0,5.47,0c4.99,0,9.97,0,14.96,0c7.34,0,14.69,0,22.03,0c9,0,18,0,27,0
				c9.82,0,19.63,0,29.45,0c9.91,0,19.81,0,29.72,0c9.24,0,18.48,0,27.72,0c7.84,0,15.68,0,23.52,0c5.61,0,11.23,0,16.84,0
				c2.66,0,5.33,0.04,7.99,0c0.12,0,0.23,0,0.35,0c3.14,0,6.15-2.76,6-6c-0.15-3.25-2.64-6-6-6c-1.82,0-3.64,0-5.47,0
				c-4.99,0-9.97,0-14.96,0c-7.34,0-14.69,0-22.03,0c-9,0-18,0-27,0c-9.82,0-19.63,0-29.45,0c-9.91,0-19.81,0-29.72,0
				c-9.24,0-18.48,0-27.72,0c-7.84,0-15.68,0-23.52,0c-5.61,0-11.23,0-16.84,0c-2.66,0-5.33-0.04-7.99,0c-0.12,0-0.23,0-0.35,0
				c-3.14,0-6.15,2.76-6,6C113.17,180.46,115.66,183.21,119.03,183.21L119.03,183.21z"/>
		</g>
	</g>
	<g>
		<g>
			<path class="st0" d="M324.06,369.83c-1.82,0-3.64,0-5.47,0c-4.99,0-9.97,0-14.96,0c-7.34,0-14.69,0-22.03,0c-9,0-18,0-27,0
				c-9.82,0-19.63,0-29.45,0c-9.91,0-19.81,0-29.72,0c-9.24,0-18.48,0-27.72,0c-7.84,0-15.68,0-23.52,0c-5.61,0-11.23,0-16.84,0
				c-2.66,0-5.33-0.04-7.99,0c-0.12,0-0.23,0-0.35,0c-3.14,0-6.15,2.76-6,6c0.15,3.25,2.64,6,6,6c1.82,0,3.64,0,5.47,0
				c4.99,0,9.97,0,14.96,0c7.34,0,14.69,0,22.03,0c9,0,18,0,27,0c9.82,0,19.63,0,29.45,0c9.91,0,19.81,0,29.72,0
				c9.24,0,18.48,0,27.72,0c7.84,0,15.68,0,23.52,0c5.61,0,11.23,0,16.84,0c2.66,0,5.33,0.04,7.99,0c0.12,0,0.23,0,0.35,0
				c3.14,0,6.15-2.76,6-6C329.92,372.58,327.43,369.83,324.06,369.83L324.06,369.83z"/>
		</g>
	</g>
	<g>
		<g>
			<path class="st0" d="M158.81,71.73c-5.12,0-9.85,2.75-12.56,7.05c-1.53,2.43-2.14,5.29-2.15,8.13c-0.01,3.27,0,6.54,0,9.81
				c0,8.75,0,17.5,0,26.25c0,1.71,0.07,3.43,0.54,5.09c1.37,4.88,5.33,8.83,10.21,10.21c5.01,1.41,10.52-0.06,14.25-3.65
				c2.88-2.77,4.37-6.66,4.42-10.62c0.11-7.84,0-15.69,0-23.53c0-4.02,0-8.04,0-12.05c0-0.66,0.01-1.32,0-1.98
				c-0.09-5.2-2.8-10.1-7.33-12.73C163.94,72.41,161.4,71.78,158.81,71.73c-3.14-0.06-6.14,2.8-6,6c0.15,3.3,2.64,5.93,6,6
				c0.19,0,0.53,0.07,0.7,0.03c0.02,0-1.35-0.26-0.75-0.1c0.38,0.1,0.76,0.18,1.14,0.28c0.97,0.26-1.16-0.67-0.06-0.02
				c0.22,0.13,1.45,0.97,0.63,0.33c-0.84-0.65,0.19,0.21,0.37,0.4c0.11,0.12,0.31,0.42,0.43,0.49c-0.04-0.02-0.68-1.06-0.45-0.56
				c0.15,0.33,0.4,0.67,0.58,0.99c0.27,0.46,0,0.67-0.21-0.52c0.04,0.21,0.15,0.43,0.21,0.64c0.06,0.22,0.34,1.63,0.15,0.53
				c-0.18-1.05-0.04-0.02-0.04,0.24c0,0.05,0,0.1,0,0.15c0,0.31,0,0.62,0,0.93c0,3.33,0,6.67,0,10c0,8.28,0,16.56,0,24.84
				c0,0.58,0.01,1.16,0,1.74c0,0.17-0.03,0.35-0.02,0.52c0.04,0.61,0.12-0.74,0.12-0.74c-0.14,0.41-0.2,0.89-0.31,1.31
				c-0.26,0.98,0.61-1.07,0.1-0.21c-0.18,0.3-0.59,0.79-0.68,1.12c0.22-0.84,0.79-0.9,0.33-0.45c-0.16,0.15-0.3,0.32-0.45,0.47
				c-0.11,0.11-0.27,0.21-0.36,0.33c-0.32,0.42,0.5-0.42,0.57-0.43c-0.28,0.05-0.87,0.53-1.12,0.68c-0.17,0.1-0.75,0.35,0.11-0.03
				c0.97-0.43-0.05-0.02-0.22,0.03c-0.25,0.07-1.64,0.34-0.53,0.15c1.01-0.17,0.02-0.04-0.24-0.04c-0.17,0-0.35-0.03-0.52-0.02
				c-0.61,0.04,0.74,0.12,0.74,0.12c-0.45-0.15-1.01-0.26-1.47-0.37c-0.57-0.13,0.65,0.29,0.66,0.3c-0.12-0.11-0.46-0.23-0.59-0.3
				c-0.23-0.13-1.32-0.91-0.48-0.25c0.83,0.65-0.21-0.23-0.37-0.4c-0.11-0.11-0.21-0.27-0.33-0.36c-0.51-0.41,0.73,1.16,0.25,0.3
				c-0.18-0.33-0.36-0.7-0.56-1c-0.31-0.47,0.29,0.64,0.28,0.67c0.01-0.12-0.18-0.56-0.21-0.64c-0.07-0.25-0.34-1.64-0.15-0.53
				c0.17,1.01,0.04,0.01,0.04-0.25c0-0.18,0-0.35,0-0.53c0-7.62,0-15.24,0-22.86c0-3.89,0-7.77,0-11.66c0-0.83-0.01-1.66,0-2.49
				c0-0.04,0-0.08,0-0.12c0-0.03,0.01-0.32,0.01-0.35c-0.02-0.97-0.07,0.44-0.11,0.57c0.13-0.41,0.21-0.89,0.31-1.31
				c0.14-0.57,0.46-0.31-0.24,0.51c0.1-0.11,0.14-0.31,0.22-0.44c0.17-0.27,0.54-0.69,0.6-0.98c-0.03,0.13-0.99,1.09-0.33,0.45
				c0.12-0.11,0.22-0.24,0.34-0.35c0.12-0.12,0.24-0.22,0.35-0.34c0.71-0.74-0.81,0.43-0.31,0.24c0.33-0.13,0.68-0.4,0.99-0.58
				c0.86-0.51-1.28,0.43-0.05,0.05c0.36-0.11,0.82-0.11,1.15-0.27c-0.14,0.07-1.53,0.08-0.57,0.11l0.35-0.01c3.14,0,6.15-2.76,6-6
				C164.66,74.48,162.17,71.73,158.81,71.73z"/>
		</g>
	</g>
	<g>
		<g>
			<path class="st0" d="M158.81,229.51c-8.1,0-14.58,6.73-14.71,14.72c-0.02,1.03,0,2.05,0,3.08c0,6.06,0,12.12,0,18.18
				c0,8.27,0,16.54,0,24.81c0,6.59,0,13.18,0,19.78c0,1.46-0.01,2.91,0,4.37c0.03,5.56,3.04,11.1,8.22,13.47
				c4.22,1.93,8.6,1.94,12.84,0.07c3.7-1.64,6.39-5.02,7.68-8.8c0.7-2.04,0.69-4.17,0.69-6.29c0-5.53,0-11.05,0-16.58
				c0-8.21,0-16.42,0-24.63c0-7.01,0-14.02,0-21.02c0-1.84,0-3.68,0-5.52c0-4.11-1.19-7.85-3.97-10.96
				C166.85,231.15,162.8,229.58,158.81,229.51c-3.14-0.06-6.14,2.8-6,6c0.15,3.3,2.64,5.93,6,6c0.12,0,0.23,0,0.35,0.01
				c0.65,0.05,0.46,0.01-0.57-0.11c0.29,0.12,0.68,0.13,0.99,0.22c0.76,0.21,0.76,0.62-0.19-0.15c0.23,0.19,0.61,0.3,0.87,0.46
				c0.09,0.06,0.18,0.12,0.28,0.17c0.51,0.36,0.37,0.24-0.43-0.36c0.16,0.24,0.51,0.45,0.72,0.67c0.07,0.08,0.15,0.16,0.22,0.24
				c0.4,0.47,0.29,0.32-0.33-0.45c0.11,0.35,0.49,0.8,0.68,1.12c0.58,1-0.35-1.12-0.16-0.37c0.07,0.27,0.17,0.53,0.24,0.8
				c0.02,0.11,0.05,0.22,0.07,0.33c0.11,0.64,0.09,0.45-0.07-0.58c0.02-0.05,0.03,0.75,0.03,0.7c0,0.07,0,0.15,0,0.22
				c0.01,1.29,0,2.57,0,3.86c0,6.08,0,12.15,0,18.23c0,14.26,0,28.53,0,42.79c0,1.59,0,3.17,0,4.76c0,0.22,0,0.43,0,0.65
				c0,0.12,0,0.23-0.01,0.35c-0.05,0.65-0.01,0.46,0.11-0.57c-0.12,0.29-0.13,0.68-0.22,0.99c-0.21,0.76-0.62,0.76,0.15-0.19
				c-0.19,0.23-0.3,0.61-0.46,0.87c-0.06,0.09-0.12,0.18-0.17,0.28c-0.36,0.51-0.24,0.37,0.36-0.43c-0.24,0.16-0.45,0.51-0.67,0.72
				c-0.08,0.07-0.16,0.15-0.24,0.22c-0.47,0.4-0.32,0.29,0.45-0.33c-0.27,0.08-0.58,0.39-0.83,0.52c-0.1,0.05-0.19,0.1-0.29,0.15
				c-0.57,0.27-0.39,0.2,0.52-0.21c-0.26-0.01-0.69,0.23-0.96,0.29c-0.11,0.02-0.22,0.05-0.33,0.07c-0.64,0.11-0.45,0.09,0.58-0.07
				c0.05,0.02-0.75,0.03-0.7,0.03c-0.12,0-0.23,0-0.35-0.01c-0.65-0.05-0.46-0.01,0.57,0.11c-0.29-0.12-0.68-0.13-0.99-0.22
				c-0.76-0.21-0.76-0.62,0.19,0.15c-0.3-0.25-0.8-0.44-1.15-0.64c-0.52-0.29-0.14-0.48,0.43,0.36c-0.16-0.24-0.51-0.45-0.72-0.67
				c-0.07-0.08-0.15-0.16-0.22-0.24c-0.4-0.47-0.29-0.32,0.33,0.45c-0.08-0.26-0.39-0.58-0.52-0.83c-0.05-0.1-0.1-0.19-0.15-0.29
				c-0.27-0.57-0.2-0.39,0.21,0.52c0.01-0.26-0.23-0.69-0.29-0.96c-0.02-0.11-0.05-0.22-0.07-0.33c-0.11-0.64-0.09-0.45,0.07,0.58
				c-0.01,0.04-0.03-0.75-0.03-0.7c-0.02-0.9,0-1.8,0-2.71c0-13.41,0-26.81,0-40.22c0-6.79,0-13.58,0-20.37c0-1.92,0-3.84,0-5.77
				c0-0.42,0-0.85,0-1.27c0-0.06,0-0.11,0-0.17c0-0.12,0-0.23,0.01-0.35c0.05-0.65,0.01-0.46-0.11,0.57
				c0.12-0.29,0.13-0.68,0.22-0.99c0.03-0.11,0.21-0.5,0.21-0.64c-0.41,0.92-0.48,1.09-0.21,0.52c0.1-0.2,0.2-0.39,0.32-0.58
				c0.06-0.09,0.12-0.18,0.17-0.28c0.36-0.51,0.24-0.37-0.36,0.43c0.24-0.16,0.45-0.51,0.67-0.72c0.08-0.07,0.16-0.15,0.24-0.22
				c0.47-0.4,0.32-0.29-0.45,0.33c0.26-0.08,0.58-0.39,0.83-0.52c0.1-0.05,0.19-0.1,0.29-0.15c0.57-0.27,0.39-0.2-0.52,0.21
				c0.26,0.01,0.69-0.23,0.96-0.29c0.11-0.02,0.22-0.05,0.33-0.07c0.64-0.11,0.45-0.09-0.58,0.07c-0.05-0.02,0.75-0.03,0.7-0.03
				c3.14,0,6.15-2.76,6-6C164.66,232.25,162.17,229.51,158.81,229.51z"/>
		</g>
	</g>
</g>
</svg>
