<?xml version="1.0" encoding="utf-8"?>
<!-- Generator: Adobe Illustrator 26.5.0, SVG Export Plug-In . SVG Version: 6.00 Build 0)  -->
<svg version="1.1" id="Layer_1" xmlns="http://www.w3.org/2000/svg" xmlns:xlink="http://www.w3.org/1999/xlink" x="0px" y="0px"
	 viewBox="0 0 443.09 443.09" style="enable-background:new 0 0 443.09 443.09;" xml:space="preserve">
<style type="text/css">
	.st0{fill:#B2ACBD;}
</style>
<g>
	<g>
		<g>
			<path class="st0" d="M140.84,379.96c-0.7,0-1.39-0.03-2.09-0.08c-0.34-0.03-0.68-0.08-1.03-0.1c1.91,0.14,0.41,0.05-0.09-0.05
				c-1.55-0.29-3.02-0.76-4.5-1.3c-0.93-0.34,1.25,0.6,0.06,0.02c-0.35-0.17-0.69-0.33-1.04-0.51c-0.68-0.35-1.34-0.74-1.99-1.15
				c-0.32-0.21-0.64-0.42-0.95-0.64c-0.18-0.13-0.35-0.26-0.53-0.38c-0.52-0.35,0.61,0.48,0.57,0.44c-0.55-0.58-1.26-1.05-1.84-1.61
				c-0.51-0.49-1-1-1.46-1.53c-0.25-0.28-0.48-0.6-0.73-0.87c-0.42-0.45,0.46,0.61,0.44,0.57c-0.13-0.23-0.33-0.44-0.48-0.66
				c-0.89-1.26-1.61-2.59-2.29-3.98c-0.58-1.18,0.36,1,0.02,0.06c-0.11-0.31-0.24-0.62-0.35-0.93c-0.27-0.79-0.51-1.6-0.7-2.41
				c-0.17-0.72-0.27-1.44-0.42-2.16c0.38,1.83,0.08,0.55,0.03,0.06c-0.04-0.46-0.07-0.92-0.08-1.39c-0.08-2.3-0.02-4.61-0.02-6.91
				c0-5.49,0-10.98,0-16.47c0-7.85,0-15.71,0-23.56c0-9.11,0-18.21,0-27.32c0-9.25,0-18.49,0-27.74c0-8.27,0-16.54,0-24.81
				c0-6.18,0-12.36,0-18.55c0-2.98,0-5.96,0-8.94c0-0.41,0-0.81,0.02-1.22c0.03-0.75,0.12-1.49,0.17-2.24
				c-0.13,1.87-0.07,0.56,0.02,0.08c0.08-0.44,0.17-0.88,0.28-1.32c0.17-0.71,0.37-1.4,0.6-2.09c0.12-0.37,0.26-0.73,0.39-1.1
				c0.47-1.29-0.55,1.11,0.04-0.09c0.68-1.38,1.41-2.71,2.29-3.98c0.13-0.18,0.26-0.35,0.38-0.53c0.35-0.52-0.48,0.61-0.44,0.57
				c0.27-0.25,0.49-0.6,0.73-0.88c0.5-0.57,1.02-1.13,1.57-1.65c0.55-0.53,1.16-0.99,1.71-1.51c0.45-0.42-0.61,0.46-0.57,0.44
				c0.18-0.1,0.36-0.27,0.53-0.39c0.35-0.25,0.72-0.5,1.08-0.73c0.6-0.38,1.21-0.74,1.84-1.07c0.34-0.18,0.68-0.35,1.03-0.51
				c0.15-0.07,0.3-0.13,0.45-0.21c0.62-0.32-1.47,0.56-0.37,0.16c1.48-0.54,2.95-1.01,4.5-1.3c0.33-0.06,0.67-0.1,1.01-0.17
				c-1.83,0.38-0.55,0.08-0.06,0.03c0.75-0.07,1.51-0.1,2.26-0.1s1.51,0.03,2.26,0.1c0.23,0.02,0.46,0.05,0.69,0.07
				c0.67,0.06-0.82-0.12-0.75-0.1c0.44,0.1,0.9,0.15,1.34,0.24c1.55,0.32,2.96,0.97,4.48,1.36c0.06,0.01-1.23-0.57-0.67-0.28
				c0.19,0.1,0.4,0.18,0.6,0.28c0.35,0.17,0.69,0.34,1.03,0.52c0.67,0.36,1.33,0.75,1.97,1.17c0.32,0.21,0.63,0.43,0.94,0.65
				c1.07,0.74-0.79-0.68-0.05-0.04c0.58,0.5,1.16,0.99,1.7,1.52s1.07,1.09,1.56,1.66c0.21,0.24,0.4,0.53,0.62,0.75
				c-1.22-1.21-0.28-0.36,0.04,0.1c0.88,1.27,1.59,2.61,2.27,3.99c0.43,0.89-0.48-1.3-0.03-0.06c0.13,0.36,0.27,0.73,0.39,1.1
				c0.26,0.8,0.49,1.6,0.67,2.42c0.07,0.33,0.14,0.66,0.2,0.99c0.04,0.22,0.07,0.45,0.11,0.67c0.12,0.65-0.1-0.82-0.1-0.75
				c-0.01,0.85,0.17,1.73,0.18,2.59c0.01,0.3,0.01,0.6,0.01,0.9c0,1.04,0,2.09,0,3.13c0,4.73,0,9.46,0,14.18c0,7.38,0,14.76,0,22.14
				c0,8.9,0,17.81,0,26.71c0,9.31,0,18.63,0,27.94c0,8.61,0,17.22,0,25.84c0,6.8,0,13.59,0,20.39c0,3.87,0,7.73,0,11.6
				c0,0.84,0.01,1.68-0.02,2.51c-0.02,0.4-0.04,0.81-0.08,1.21c-0.02,0.23-0.05,0.46-0.07,0.69c-0.06,0.67,0.12-0.82,0.1-0.75
				c-0.19,0.82-0.29,1.67-0.5,2.49c-0.18,0.7-0.39,1.4-0.62,2.08c-0.13,0.36-0.29,0.72-0.41,1.09c-0.19,0.6,0.31-0.71,0.29-0.67
				c-0.14,0.23-0.23,0.51-0.34,0.75c-0.66,1.39-1.47,2.68-2.34,3.94c-0.74,1.07,0.68-0.79,0.04-0.05c-0.21,0.25-0.42,0.5-0.63,0.75
				c-0.54,0.61-1.11,1.2-1.7,1.75c-0.51,0.48-1.11,0.89-1.6,1.39c1.18-1.19,0.47-0.36,0.04-0.06c-0.31,0.22-0.63,0.43-0.95,0.64
				c-0.65,0.41-1.31,0.8-1.99,1.15c-0.29,0.15-0.59,0.3-0.89,0.44c-0.19,0.09-0.43,0.16-0.6,0.27c-0.04,0.03,1.27-0.47,0.67-0.29
				c-1.45,0.46-2.83,0.99-4.32,1.3c-0.39,0.08-0.78,0.14-1.17,0.21c-0.65,0.12,0.82-0.1,0.75-0.1c-0.22,0-0.47,0.05-0.68,0.07
				C142.47,379.93,141.65,379.96,140.84,379.96c-3.14,0.02-6.15,2.74-6,6c0.14,3.23,2.64,6.02,6,6c7.77-0.05,15.09-2.91,20.94-8
				c5.33-4.63,9.09-11.43,10.08-18.42c0.5-3.5,0.45-6.9,0.45-10.42c0-5.47,0-10.94,0-16.4c0-7.98,0-15.96,0-23.94
				c0-9.26,0-18.53,0-27.79c0-9.44,0-18.88,0-28.33c0-8.39,0-16.78,0-25.18c0-6.13,0-12.26,0-18.4c0-2.74,0.01-5.48,0-8.22
				c-0.05-13.48-8.58-25.3-21.2-29.87c-14.18-5.14-30.86,1.49-37.93,14.72c-2.51,4.69-3.8,9.89-3.82,15.21c0,0.92,0,1.85,0,2.77
				c0,4.66,0,9.33,0,13.99c0,7.48,0,14.96,0,22.44c0,9.09,0,18.19,0,27.28c0,9.48,0,18.95,0,28.43c0,8.76,0,17.51,0,26.27
				c0,6.81,0,13.62,0,20.42c0,3.66,0,7.32,0,10.98c0,9.56,3.72,18.98,11.28,25.1c5.75,4.65,12.74,7.37,20.19,7.37
				c3.14,0,6.15-2.76,6-6C146.7,382.71,144.21,379.96,140.84,379.96z"/>
		</g>
	</g>
	<g>
		<g>
			<path class="st0" d="M191.79,379.96c-0.7,0-1.39-0.03-2.09-0.08c-0.34-0.03-0.68-0.08-1.03-0.1c1.91,0.14,0.41,0.05-0.09-0.05
				c-1.55-0.29-3.02-0.76-4.5-1.3c-0.93-0.34,1.25,0.6,0.06,0.02c-0.35-0.17-0.69-0.33-1.04-0.51c-0.68-0.35-1.34-0.74-1.99-1.15
				c-0.32-0.21-0.64-0.42-0.95-0.64c-0.18-0.13-0.35-0.26-0.53-0.38c-0.52-0.35,0.61,0.48,0.57,0.44c-0.55-0.58-1.26-1.05-1.84-1.61
				c-0.51-0.49-1-1-1.46-1.53c-0.25-0.28-0.48-0.6-0.73-0.87c-0.42-0.45,0.46,0.61,0.44,0.57c-0.13-0.23-0.33-0.44-0.48-0.66
				c-0.89-1.26-1.61-2.59-2.29-3.98c-0.58-1.18,0.36,1,0.02,0.06c-0.11-0.31-0.24-0.62-0.35-0.93c-0.27-0.79-0.51-1.6-0.7-2.41
				c-0.17-0.72-0.27-1.44-0.42-2.16c0.38,1.83,0.08,0.55,0.03,0.06c-0.04-0.46-0.07-0.92-0.08-1.39c-0.08-2.3-0.02-4.61-0.02-6.91
				c0-5.49,0-10.98,0-16.47c0-7.85,0-15.71,0-23.56c0-9.11,0-18.21,0-27.32c0-9.25,0-18.49,0-27.74c0-8.27,0-16.54,0-24.81
				c0-6.18,0-12.36,0-18.55c0-2.98,0-5.96,0-8.94c0-0.41,0-0.81,0.02-1.22c0.03-0.75,0.12-1.49,0.17-2.24
				c-0.13,1.87-0.07,0.56,0.02,0.08c0.08-0.44,0.17-0.88,0.28-1.32c0.17-0.71,0.37-1.4,0.6-2.09c0.12-0.37,0.26-0.73,0.39-1.1
				c0.47-1.29-0.55,1.11,0.04-0.09c0.68-1.38,1.41-2.71,2.29-3.98c0.13-0.18,0.26-0.35,0.38-0.53c0.35-0.52-0.48,0.61-0.44,0.57
				c0.27-0.25,0.49-0.6,0.73-0.88c0.5-0.57,1.02-1.13,1.57-1.65c0.55-0.53,1.16-0.99,1.71-1.51c0.45-0.42-0.61,0.46-0.57,0.44
				c0.18-0.1,0.36-0.27,0.53-0.39c0.35-0.25,0.72-0.5,1.08-0.73c0.6-0.38,1.21-0.74,1.84-1.07c0.34-0.18,0.68-0.35,1.03-0.51
				c0.15-0.07,0.3-0.13,0.45-0.21c0.62-0.32-1.47,0.56-0.37,0.16c1.48-0.54,2.95-1.01,4.5-1.3c0.33-0.06,0.67-0.1,1.01-0.17
				c-1.83,0.38-0.55,0.08-0.06,0.03c0.75-0.07,1.51-0.1,2.26-0.1s1.51,0.03,2.26,0.1c0.23,0.02,0.46,0.05,0.69,0.07
				c0.67,0.06-0.82-0.12-0.75-0.1c0.44,0.1,0.9,0.15,1.34,0.24c1.55,0.32,2.96,0.97,4.48,1.36c0.06,0.01-1.23-0.57-0.67-0.28
				c0.19,0.1,0.4,0.18,0.6,0.28c0.35,0.17,0.69,0.34,1.03,0.52c0.67,0.36,1.33,0.75,1.97,1.17c0.32,0.21,0.63,0.43,0.94,0.65
				c1.07,0.74-0.79-0.68-0.05-0.04c0.58,0.5,1.16,0.99,1.7,1.52s1.07,1.09,1.56,1.66c0.21,0.24,0.4,0.53,0.62,0.75
				c-1.22-1.21-0.28-0.36,0.04,0.1c0.88,1.27,1.59,2.61,2.27,3.99c0.43,0.89-0.48-1.3-0.03-0.06c0.13,0.36,0.27,0.73,0.39,1.1
				c0.26,0.8,0.49,1.6,0.67,2.42c0.07,0.33,0.14,0.66,0.2,0.99c0.04,0.22,0.07,0.45,0.11,0.67c0.12,0.65-0.1-0.82-0.1-0.75
				c-0.01,0.85,0.17,1.73,0.18,2.59c0.01,0.3,0.01,0.6,0.01,0.9c0,1.04,0,2.09,0,3.13c0,4.73,0,9.46,0,14.18c0,7.38,0,14.76,0,22.14
				c0,8.9,0,17.81,0,26.71c0,9.31,0,18.63,0,27.94c0,8.61,0,17.22,0,25.84c0,6.8,0,13.59,0,20.39c0,3.87,0,7.73,0,11.6
				c0,0.84,0.01,1.68-0.02,2.51c-0.02,0.4-0.04,0.81-0.08,1.21c-0.02,0.23-0.05,0.46-0.07,0.69c-0.06,0.67,0.12-0.82,0.1-0.75
				c-0.19,0.82-0.29,1.67-0.5,2.49c-0.18,0.7-0.39,1.4-0.62,2.08c-0.13,0.36-0.29,0.72-0.41,1.09c-0.19,0.6,0.31-0.71,0.29-0.67
				c-0.14,0.23-0.23,0.51-0.34,0.75c-0.66,1.39-1.47,2.68-2.34,3.94c-0.74,1.07,0.68-0.79,0.04-0.05c-0.21,0.25-0.42,0.5-0.63,0.75
				c-0.54,0.61-1.11,1.2-1.7,1.75c-0.51,0.48-1.11,0.89-1.6,1.39c1.18-1.19,0.47-0.36,0.04-0.06c-0.31,0.22-0.63,0.43-0.95,0.64
				c-0.65,0.41-1.31,0.8-1.99,1.15c-0.29,0.15-0.59,0.3-0.89,0.44c-0.19,0.09-0.43,0.16-0.6,0.27c-0.04,0.03,1.27-0.47,0.67-0.29
				c-1.45,0.46-2.83,0.99-4.32,1.3c-0.39,0.08-0.78,0.14-1.17,0.21c-0.65,0.12,0.82-0.1,0.75-0.1c-0.22,0-0.47,0.05-0.68,0.07
				C193.41,379.93,192.6,379.96,191.79,379.96c-3.14,0.02-6.15,2.74-6,6c0.14,3.23,2.64,6.02,6,6c7.77-0.05,15.09-2.91,20.94-8
				c5.33-4.63,9.09-11.43,10.08-18.42c0.5-3.5,0.45-6.9,0.45-10.42c0-5.47,0-10.94,0-16.4c0-7.98,0-15.96,0-23.94
				c0-9.26,0-18.53,0-27.79c0-9.44,0-18.88,0-28.33c0-8.39,0-16.78,0-25.18c0-6.13,0-12.26,0-18.4c0-2.74,0.01-5.48,0-8.22
				c-0.05-13.48-8.58-25.3-21.2-29.87c-14.18-5.14-30.86,1.49-37.93,14.72c-2.51,4.69-3.8,9.89-3.82,15.21c0,0.92,0,1.85,0,2.77
				c0,4.66,0,9.33,0,13.99c0,7.48,0,14.96,0,22.44c0,9.09,0,18.19,0,27.28c0,9.48,0,18.95,0,28.43c0,8.76,0,17.51,0,26.27
				c0,6.81,0,13.62,0,20.42c0,3.66,0,7.32,0,10.98c0,9.56,3.72,18.98,11.28,25.1c5.75,4.65,12.74,7.37,20.19,7.37
				c3.14,0,6.15-2.76,6-6C197.64,382.71,195.15,379.96,191.79,379.96z"/>
		</g>
	</g>
	<g>
		<g>
			<path class="st0" d="M242.73,379.96c-0.7,0-1.39-0.03-2.09-0.08c-0.34-0.03-0.68-0.08-1.03-0.1c1.91,0.14,0.41,0.05-0.09-0.05
				c-1.55-0.29-3.02-0.76-4.5-1.3c-0.93-0.34,1.25,0.6,0.06,0.02c-0.35-0.17-0.69-0.33-1.04-0.51c-0.68-0.35-1.34-0.74-1.99-1.15
				c-0.32-0.21-0.64-0.42-0.95-0.64c-0.18-0.13-0.35-0.26-0.53-0.38c-0.52-0.35,0.61,0.48,0.57,0.44c-0.55-0.58-1.26-1.05-1.84-1.61
				c-0.51-0.49-1-1-1.46-1.53c-0.25-0.28-0.48-0.6-0.73-0.87c-0.42-0.45,0.46,0.61,0.44,0.57c-0.13-0.23-0.33-0.44-0.48-0.66
				c-0.89-1.26-1.61-2.59-2.29-3.98c-0.58-1.18,0.36,1,0.02,0.06c-0.11-0.31-0.24-0.62-0.35-0.93c-0.27-0.79-0.51-1.6-0.7-2.41
				c-0.17-0.72-0.27-1.44-0.42-2.16c0.38,1.83,0.08,0.55,0.03,0.06c-0.04-0.46-0.07-0.92-0.08-1.39c-0.08-2.3-0.02-4.61-0.02-6.91
				c0-5.49,0-10.98,0-16.47c0-7.85,0-15.71,0-23.56c0-9.11,0-18.21,0-27.32c0-9.25,0-18.49,0-27.74c0-8.27,0-16.54,0-24.81
				c0-6.18,0-12.36,0-18.55c0-2.98,0-5.96,0-8.94c0-0.41,0-0.81,0.02-1.22c0.03-0.75,0.12-1.49,0.17-2.24
				c-0.13,1.87-0.07,0.56,0.02,0.08c0.08-0.44,0.17-0.88,0.28-1.32c0.17-0.71,0.37-1.4,0.6-2.09c0.12-0.37,0.26-0.73,0.39-1.1
				c0.47-1.29-0.55,1.11,0.04-0.09c0.68-1.38,1.41-2.71,2.29-3.98c0.13-0.18,0.26-0.35,0.38-0.53c0.35-0.52-0.48,0.61-0.44,0.57
				c0.27-0.25,0.49-0.6,0.73-0.88c0.5-0.57,1.02-1.13,1.57-1.65c0.55-0.53,1.16-0.99,1.71-1.51c0.45-0.42-0.61,0.46-0.57,0.44
				c0.18-0.1,0.36-0.27,0.53-0.39c0.35-0.25,0.72-0.5,1.08-0.73c0.6-0.38,1.21-0.74,1.84-1.07c0.34-0.18,0.68-0.35,1.03-0.51
				c0.15-0.07,0.3-0.13,0.45-0.21c0.62-0.32-1.47,0.56-0.37,0.16c1.48-0.54,2.95-1.01,4.5-1.3c0.33-0.06,0.67-0.1,1.01-0.17
				c-1.83,0.38-0.55,0.08-0.06,0.03c0.75-0.07,1.51-0.1,2.26-0.1s1.51,0.03,2.26,0.1c0.23,0.02,0.46,0.05,0.69,0.07
				c0.67,0.06-0.82-0.12-0.75-0.1c0.44,0.1,0.9,0.15,1.34,0.24c1.55,0.32,2.96,0.97,4.48,1.36c0.06,0.01-1.23-0.57-0.67-0.28
				c0.19,0.1,0.4,0.18,0.6,0.28c0.35,0.17,0.69,0.34,1.03,0.52c0.67,0.36,1.33,0.75,1.97,1.17c0.32,0.21,0.63,0.43,0.94,0.65
				c1.07,0.74-0.79-0.68-0.05-0.04c0.58,0.5,1.16,0.99,1.7,1.52c0.54,0.53,1.07,1.09,1.56,1.66c0.21,0.24,0.4,0.53,0.62,0.75
				c-1.22-1.21-0.28-0.36,0.04,0.1c0.88,1.27,1.59,2.61,2.27,3.99c0.43,0.89-0.48-1.3-0.03-0.06c0.13,0.36,0.27,0.73,0.39,1.1
				c0.26,0.8,0.49,1.6,0.67,2.42c0.07,0.33,0.14,0.66,0.2,0.99c0.04,0.22,0.07,0.45,0.11,0.67c0.12,0.65-0.1-0.82-0.1-0.75
				c-0.01,0.85,0.17,1.73,0.18,2.59c0.01,0.3,0.01,0.6,0.01,0.9c0,1.04,0,2.09,0,3.13c0,4.73,0,9.46,0,14.18c0,7.38,0,14.76,0,22.14
				c0,8.9,0,17.81,0,26.71c0,9.31,0,18.63,0,27.94c0,8.61,0,17.22,0,25.84c0,6.8,0,13.59,0,20.39c0,3.87,0,7.73,0,11.6
				c0,0.84,0.01,1.68-0.02,2.51c-0.02,0.4-0.04,0.81-0.08,1.21c-0.02,0.23-0.05,0.46-0.07,0.69c-0.06,0.67,0.12-0.82,0.1-0.75
				c-0.19,0.82-0.29,1.67-0.5,2.49c-0.18,0.7-0.39,1.4-0.62,2.08c-0.13,0.36-0.29,0.72-0.41,1.09c-0.19,0.6,0.31-0.71,0.29-0.67
				c-0.14,0.23-0.23,0.51-0.34,0.75c-0.66,1.39-1.47,2.68-2.34,3.94c-0.74,1.07,0.68-0.79,0.04-0.05c-0.21,0.25-0.42,0.5-0.63,0.75
				c-0.54,0.61-1.11,1.2-1.7,1.75c-0.51,0.48-1.11,0.89-1.6,1.39c1.18-1.19,0.47-0.36,0.04-0.06c-0.31,0.22-0.63,0.43-0.95,0.64
				c-0.65,0.41-1.31,0.8-1.99,1.15c-0.29,0.15-0.59,0.3-0.89,0.44c-0.19,0.09-0.43,0.16-0.6,0.27c-0.04,0.03,1.27-0.47,0.67-0.29
				c-1.45,0.46-2.83,0.99-4.32,1.3c-0.39,0.08-0.78,0.14-1.17,0.21c-0.65,0.12,0.82-0.1,0.75-0.1c-0.22,0-0.47,0.05-0.68,0.07
				C244.36,379.93,243.54,379.96,242.73,379.96c-3.14,0.02-6.15,2.74-6,6c0.14,3.23,2.64,6.02,6,6c7.77-0.05,15.09-2.91,20.94-8
				c5.33-4.63,9.09-11.43,10.08-18.42c0.5-3.5,0.45-6.9,0.45-10.42c0-5.47,0-10.94,0-16.4c0-7.98,0-15.96,0-23.94
				c0-9.26,0-18.53,0-27.79c0-9.44,0-18.88,0-28.33c0-8.39,0-16.78,0-25.18c0-6.13,0-12.26,0-18.4c0-2.74,0.01-5.48,0-8.22
				c-0.05-13.48-8.58-25.3-21.2-29.87c-14.18-5.14-30.86,1.49-37.93,14.72c-2.51,4.69-3.8,9.89-3.82,15.21c0,0.92,0,1.85,0,2.77
				c0,4.66,0,9.33,0,13.99c0,7.48,0,14.96,0,22.44c0,9.09,0,18.19,0,27.28c0,9.48,0,18.95,0,28.43c0,8.76,0,17.51,0,26.27
				c0,6.81,0,13.62,0,20.42c0,3.66,0,7.32,0,10.98c0,9.56,3.72,18.98,11.28,25.1c5.75,4.65,12.74,7.37,20.19,7.37
				c3.14,0,6.15-2.76,6-6C248.59,382.71,246.1,379.96,242.73,379.96z"/>
		</g>
	</g>
	<g>
		<g>
			<path class="st0" d="M293.68,379.96c-0.7,0-1.39-0.03-2.09-0.08c-0.34-0.03-0.68-0.08-1.03-0.1c1.91,0.14,0.41,0.05-0.09-0.05
				c-1.55-0.29-3.02-0.76-4.5-1.3c-0.93-0.34,1.25,0.6,0.06,0.02c-0.35-0.17-0.69-0.33-1.04-0.51c-0.68-0.35-1.34-0.74-1.99-1.15
				c-0.32-0.21-0.64-0.42-0.95-0.64c-0.18-0.13-0.35-0.26-0.53-0.38c-0.52-0.35,0.61,0.48,0.57,0.44c-0.55-0.58-1.26-1.05-1.84-1.61
				c-0.51-0.49-1-1-1.46-1.53c-0.25-0.28-0.48-0.6-0.73-0.87c-0.42-0.45,0.46,0.61,0.44,0.57c-0.13-0.23-0.33-0.44-0.48-0.66
				c-0.89-1.26-1.61-2.59-2.29-3.98c-0.58-1.18,0.36,1,0.02,0.06c-0.11-0.31-0.24-0.62-0.35-0.93c-0.27-0.79-0.51-1.6-0.7-2.41
				c-0.17-0.72-0.27-1.44-0.42-2.16c0.38,1.83,0.08,0.55,0.03,0.06c-0.04-0.46-0.07-0.92-0.08-1.39c-0.08-2.3-0.02-4.61-0.02-6.91
				c0-5.49,0-10.98,0-16.47c0-7.85,0-15.71,0-23.56c0-9.11,0-18.21,0-27.32c0-9.25,0-18.49,0-27.74c0-8.27,0-16.54,0-24.81
				c0-6.18,0-12.36,0-18.55c0-2.98,0-5.96,0-8.94c0-0.41,0-0.81,0.02-1.22c0.03-0.75,0.12-1.49,0.17-2.24
				c-0.13,1.87-0.07,0.56,0.02,0.08c0.08-0.44,0.17-0.88,0.28-1.32c0.17-0.71,0.37-1.4,0.6-2.09c0.12-0.37,0.26-0.73,0.39-1.1
				c0.47-1.29-0.55,1.11,0.04-0.09c0.68-1.38,1.41-2.71,2.29-3.98c0.13-0.18,0.26-0.35,0.38-0.53c0.35-0.52-0.48,0.61-0.44,0.57
				c0.27-0.25,0.49-0.6,0.73-0.88c0.5-0.57,1.02-1.13,1.57-1.65c0.55-0.53,1.16-0.99,1.71-1.51c0.45-0.42-0.61,0.46-0.57,0.44
				c0.18-0.1,0.36-0.27,0.53-0.39c0.35-0.25,0.72-0.5,1.08-0.73c0.6-0.38,1.21-0.74,1.84-1.07c0.34-0.18,0.68-0.35,1.03-0.51
				c0.15-0.07,0.3-0.13,0.45-0.21c0.62-0.32-1.47,0.56-0.37,0.16c1.48-0.54,2.95-1.01,4.5-1.3c0.33-0.06,0.67-0.1,1.01-0.17
				c-1.83,0.38-0.55,0.08-0.06,0.03c0.75-0.07,1.51-0.1,2.26-0.1s1.51,0.03,2.26,0.1c0.23,0.02,0.46,0.05,0.68,0.07
				c0.67,0.06-0.82-0.12-0.75-0.1c0.44,0.1,0.9,0.15,1.34,0.24c1.55,0.32,2.96,0.97,4.48,1.36c0.06,0.01-1.23-0.57-0.67-0.28
				c0.19,0.1,0.4,0.18,0.6,0.28c0.35,0.17,0.69,0.34,1.03,0.52c0.67,0.36,1.33,0.75,1.97,1.17c0.32,0.21,0.63,0.43,0.94,0.65
				c1.07,0.74-0.79-0.68-0.05-0.04c0.58,0.5,1.16,0.99,1.7,1.52s1.07,1.09,1.56,1.66c0.21,0.24,0.4,0.53,0.62,0.75
				c-1.22-1.21-0.28-0.36,0.04,0.1c0.88,1.27,1.59,2.61,2.27,3.99c0.43,0.89-0.48-1.3-0.03-0.06c0.13,0.36,0.27,0.73,0.39,1.1
				c0.26,0.8,0.49,1.6,0.67,2.42c0.07,0.33,0.14,0.66,0.2,0.99c0.04,0.22,0.07,0.45,0.11,0.67c0.12,0.65-0.1-0.82-0.1-0.75
				c-0.01,0.85,0.17,1.73,0.18,2.59c0.01,0.3,0.01,0.6,0.01,0.9c0,1.04,0,2.09,0,3.13c0,4.73,0,9.46,0,14.18c0,7.38,0,14.76,0,22.14
				c0,8.9,0,17.81,0,26.71c0,9.31,0,18.63,0,27.94c0,8.61,0,17.22,0,25.84c0,6.8,0,13.59,0,20.39c0,3.87,0,7.73,0,11.6
				c0,0.84,0.01,1.68-0.02,2.51c-0.02,0.4-0.04,0.81-0.08,1.21c-0.02,0.23-0.05,0.46-0.07,0.69c-0.06,0.67,0.12-0.82,0.1-0.75
				c-0.19,0.82-0.29,1.67-0.5,2.49c-0.18,0.7-0.39,1.4-0.62,2.08c-0.13,0.36-0.29,0.72-0.41,1.09c-0.19,0.6,0.31-0.71,0.29-0.67
				c-0.14,0.23-0.23,0.51-0.34,0.75c-0.66,1.39-1.47,2.68-2.34,3.94c-0.74,1.07,0.68-0.79,0.04-0.05c-0.21,0.25-0.42,0.5-0.63,0.75
				c-0.54,0.61-1.11,1.2-1.7,1.75c-0.51,0.48-1.11,0.89-1.6,1.39c1.18-1.19,0.47-0.36,0.04-0.06c-0.31,0.22-0.63,0.43-0.95,0.64
				c-0.65,0.41-1.31,0.8-1.99,1.15c-0.29,0.15-0.59,0.3-0.89,0.44c-0.19,0.09-0.43,0.16-0.6,0.27c-0.04,0.03,1.27-0.47,0.67-0.29
				c-1.45,0.46-2.83,0.99-4.32,1.3c-0.39,0.08-0.78,0.14-1.17,0.21c-0.65,0.12,0.82-0.1,0.75-0.1c-0.22,0-0.47,0.05-0.68,0.07
				C295.3,379.93,294.49,379.96,293.68,379.96c-3.14,0.02-6.15,2.74-6,6c0.14,3.23,2.64,6.02,6,6c7.77-0.05,15.09-2.91,20.94-8
				c5.33-4.63,9.09-11.43,10.08-18.42c0.5-3.5,0.45-6.9,0.45-10.42c0-5.47,0-10.94,0-16.4c0-7.98,0-15.96,0-23.94
				c0-9.26,0-18.53,0-27.79c0-9.44,0-18.88,0-28.33c0-8.39,0-16.78,0-25.18c0-6.13,0-12.26,0-18.4c0-2.74,0.01-5.48,0-8.22
				c-0.05-13.48-8.58-25.3-21.2-29.87c-14.18-5.14-30.86,1.49-37.93,14.72c-2.51,4.69-3.8,9.89-3.82,15.21c0,0.92,0,1.85,0,2.77
				c0,4.66,0,9.33,0,13.99c0,7.48,0,14.96,0,22.44c0,9.09,0,18.19,0,27.28c0,9.48,0,18.95,0,28.43c0,8.76,0,17.51,0,26.27
				c0,6.81,0,13.62,0,20.42c0,3.66,0,7.32,0,10.98c0,9.56,3.72,18.98,11.28,25.1c5.75,4.65,12.74,7.37,20.19,7.37
				c3.14,0,6.15-2.76,6-6C299.53,382.71,297.04,379.96,293.68,379.96z"/>
		</g>
	</g>
	<g>
		<g>
			<path class="st0" d="M337.91,195.75c0,8.54,0,17.08,0,25.62c0,1.23,0,2.45,0,3.68c2-2,4-4,6-6c-7.22,0-14.44,0-21.65,0
				c-1.04,0-2.07,0-3.11,0c-3.14,0-6.15,2.76-6,6c0.15,3.25,2.64,6,6,6c7.22,0,14.44,0,21.65,0c1.04,0,2.07,0,3.11,0
				c3.24,0,6-2.75,6-6c0-8.54,0-17.08,0-25.62c0-1.23,0-2.45,0-3.68c0-3.14-2.76-6.15-6-6
				C340.66,189.89,337.91,192.38,337.91,195.75L337.91,195.75z"/>
		</g>
	</g>
	<g>
		<g>
			<path class="st0" d="M115.37,228.57c-5.4,0-10.79,0-16.19,0c2,2,4,4,6,6c0-9.15,0-18.3,0-27.46c0-1.32,0-2.64,0-3.97
				c-2,2-4,4-6,6c5.4,0,10.79,0,16.19,0c-2-2-4-4-6-6c0,9.15,0,18.3,0,27.46c0,1.32,0,2.64,0,3.97c0,3.14,2.76,6.15,6,6
				c3.25-0.15,6-2.64,6-6c0-9.15,0-18.3,0-27.46c0-1.32,0-2.64,0-3.97c0-3.24-2.75-6-6-6c-5.4,0-10.79,0-16.19,0c-3.24,0-6,2.75-6,6
				c0,9.15,0,18.3,0,27.46c0,1.32,0,2.64,0,3.97c0,3.24,2.75,6,6,6c5.4,0,10.79,0,16.19,0c3.14,0,6.15-2.76,6-6
				C121.22,231.32,118.73,228.57,115.37,228.57z"/>
		</g>
	</g>
	<g>
		<g>
			<g>
				<path class="st0" d="M175.54,164.81c4.25-1.69,7.61-4.21,10.29-7.95c2.36-3.3,3.57-7.58,3.57-11.61s-1.21-8.32-3.57-11.61
					c-2.68-3.74-6.03-6.25-10.29-7.95c-1.35-0.54-3.42-0.1-4.62,0.6c-1.24,0.73-2.43,2.16-2.76,3.59c-0.79,3.46,1.06,6.13,4.19,7.38
					c-1.8-0.72,0.26,0.16,0.75,0.45c0.3,0.17,0.58,0.37,0.87,0.55c0.88,0.54-0.8-0.69-0.25-0.22c0.48,0.41,0.95,0.82,1.38,1.28
					c0.19,0.2,0.43,0.63,0.68,0.77c-0.54-0.72-0.68-0.9-0.41-0.54c0.1,0.14,0.2,0.28,0.3,0.42c0.39,0.57,0.7,1.18,1.04,1.78
					c0.51,0.91-0.36-1.01-0.11-0.32c0.12,0.33,0.24,0.65,0.35,0.99c0.2,0.62,0.32,1.25,0.46,1.89c0.26,1.25-0.09-1.45-0.04-0.17
					c0.01,0.37,0.04,0.73,0.04,1.1c0,0.37-0.03,0.73-0.04,1.1c-0.02,1.09,0.21-1.08,0.07-0.34c-0.12,0.64-0.25,1.27-0.43,1.9
					c-0.1,0.34-0.22,0.66-0.34,0.99c-0.4,1.18,0.63-1.25,0.05-0.16c-0.33,0.61-0.65,1.21-1.04,1.78c-0.13,0.19-0.69,1.07-0.14,0.22
					c0.55-0.86-0.14,0.12-0.31,0.3c-0.43,0.46-0.9,0.87-1.37,1.29c-0.91,0.82,1.15-0.77,0.12-0.11c-0.29,0.19-0.57,0.38-0.87,0.55
					c-0.3,0.18-0.6,0.34-0.91,0.49c-0.38,0.19-1.48,0.61,0.16-0.05c-1.5,0.6-2.74,1.31-3.59,2.76c-0.75,1.29-1.07,3.18-0.6,4.62
					C169.07,163.44,172.41,166.06,175.54,164.81L175.54,164.81z"/>
			</g>
		</g>
		<g>
			<g>
				<path class="st0" d="M174.36,96.79c-9.66,1.37-16.75,10.33-17.1,19.83c-0.35,9.44,6.17,17.87,15.09,20.53
					c3.01,0.9,6.67-1.08,7.38-4.19c0.74-3.23-0.97-6.42-4.19-7.38c-0.39-0.12-0.77-0.26-1.16-0.39c-0.43-0.17-0.22-0.07,0.63,0.28
					c-0.21-0.09-0.42-0.19-0.62-0.3c-0.61-0.31-1.19-0.68-1.77-1.05c-0.99-0.65,0.94,0.85,0.13,0.11c-0.29-0.27-0.6-0.52-0.88-0.8
					c-0.28-0.28-0.54-0.58-0.81-0.87c-0.75-0.8,0.76,1.12,0.1,0.14c-0.39-0.57-0.75-1.14-1.07-1.75c-0.11-0.2-0.21-0.41-0.3-0.62
					c0.35,0.85,0.44,1.07,0.27,0.64c-0.14-0.38-0.28-0.76-0.4-1.15c-0.2-0.68-0.31-1.37-0.46-2.07c0.37,1.74,0.1,0.64,0.07,0.16
					c-0.02-0.43-0.02-0.86-0.01-1.29c0.01-0.26,0.24-1.52,0-0.49c-0.26,1.1,0.09-0.43,0.14-0.63c0.16-0.7,0.46-1.36,0.62-2.05
					c-0.37,1.53-0.27,0.61-0.03,0.14c0.18-0.37,0.38-0.72,0.6-1.07c0.17-0.28,0.62-0.71,0.68-1.01c-0.17,0.22-0.34,0.44-0.51,0.66
					c0.15-0.18,0.3-0.36,0.45-0.53c0.46-0.52,0.98-0.98,1.49-1.46c0.84-0.79-1.17,0.81,0.03-0.01c0.34-0.23,0.68-0.45,1.04-0.65
					c0.31-0.17,0.62-0.32,0.93-0.49c1.05-0.55-1.26,0.38,0.05-0.01c0.94-0.28,1.85-0.53,2.82-0.67c1.38-0.2,2.92-1.62,3.59-2.76
					c0.75-1.29,1.07-3.18,0.6-4.62c-0.47-1.45-1.37-2.85-2.76-3.59C177.46,96.59,176.06,96.55,174.36,96.79L174.36,96.79z"/>
			</g>
		</g>
		<g>
			<g>
				<path class="st0" d="M171.97,109.71c2.41,0,4.85-1.01,7.01-1.96c-1.01,0.27-2.02,0.55-3.03,0.82c2.72,0,5.51-2.11,7.52-3.77
					c1.55-1.28,2.86-2.88,3.96-4.55c2.28-3.46,3.47-7.93,3.22-12.06c-0.55-8.94-6.5-16.52-15.11-19.07
					c-3.01-0.89-6.67,1.07-7.38,4.19c-0.73,3.22,0.97,6.43,4.19,7.38c0.34,0.1,0.66,0.22,1,0.32c1.18,0.36-1.25-0.63-0.15-0.07
					c0.62,0.31,1.22,0.63,1.8,1.01c0.09,0.06,0.19,0.13,0.28,0.19c0.51,0.37,0.38,0.26-0.39-0.33c0.2,0.25,0.54,0.45,0.78,0.67
					c0.46,0.43,0.87,0.9,1.3,1.36c0.4,0.43-0.86-1.22-0.11-0.13c0.2,0.28,0.38,0.57,0.56,0.86c0.15,0.25,0.29,0.5,0.42,0.75
					c0.11,0.2,0.21,0.41,0.3,0.62c-0.11-0.27-0.22-0.53-0.33-0.8c0.11,0.66,0.49,1.33,0.65,1.99c0.09,0.34,0.15,0.69,0.22,1.04
					c0.24,1.24-0.06-1.45-0.04-0.17c0.01,0.74,0.01,1.47,0,2.21c-0.02,1.09,0.21-1.06,0.06-0.32c-0.07,0.35-0.13,0.71-0.21,1.06
					c-0.12,0.49-0.61,1.38-0.58,1.87c0.39-0.89,0.45-1.04,0.19-0.46c-0.05,0.11-0.1,0.21-0.15,0.32c-0.16,0.31-0.33,0.62-0.5,0.92
					c-0.18,0.3-0.38,0.58-0.57,0.88c-0.65,1.05,0.91-1.03,0.09-0.11c-0.46,0.52-0.93,1.03-1.45,1.5c-0.09,0.08-0.17,0.15-0.26,0.23
					c-0.48,0.4-0.35,0.3,0.4-0.29c-0.29,0.1-0.61,0.43-0.86,0.59c-0.59,0.38-1.21,0.7-1.85,1c1.01-0.27,2.02-0.55,3.03-0.82
					c-1.12,0-2.02,0.39-3.04,0.82c1.49-0.63,0.12-0.08-0.16,0c-0.39,0.12-0.79,0.23-1.19,0.32c-0.67,0.15-1.78,0,0.39,0
					c-3.14,0-6.15,2.76-6,6C166.11,106.96,168.6,109.71,171.97,109.71L171.97,109.71z"/>
			</g>
		</g>
	</g>
	<g>
		<g>
			<g>
				<path class="st0" d="M262.13,164.82c4.25-1.69,7.61-4.21,10.29-7.95c2.36-3.3,3.57-7.58,3.57-11.61s-1.21-8.32-3.57-11.61
					c-2.68-3.74-6.03-6.25-10.29-7.95c-1.35-0.54-3.42-0.1-4.62,0.6c-1.24,0.73-2.43,2.16-2.76,3.59c-0.79,3.46,1.06,6.13,4.19,7.38
					c-1.8-0.72,0.26,0.16,0.75,0.45c0.3,0.17,0.58,0.37,0.87,0.55c0.88,0.54-0.8-0.69-0.25-0.22c0.48,0.41,0.95,0.82,1.38,1.28
					c0.19,0.2,0.43,0.63,0.68,0.77c-0.54-0.72-0.68-0.9-0.41-0.54c0.1,0.14,0.2,0.28,0.3,0.42c0.39,0.57,0.7,1.18,1.04,1.78
					c0.51,0.91-0.36-1.01-0.11-0.32c0.12,0.33,0.24,0.65,0.35,0.99c0.2,0.62,0.32,1.25,0.46,1.89c0.26,1.25-0.09-1.45-0.04-0.17
					c0.01,0.37,0.04,0.73,0.04,1.1c0,0.37-0.03,0.73-0.04,1.1c-0.02,1.09,0.21-1.08,0.07-0.34c-0.12,0.64-0.25,1.27-0.43,1.9
					c-0.1,0.34-0.22,0.66-0.34,0.99c-0.4,1.18,0.63-1.25,0.05-0.16c-0.33,0.61-0.65,1.21-1.04,1.78c-0.13,0.19-0.69,1.07-0.14,0.22
					c0.55-0.86-0.14,0.12-0.31,0.3c-0.43,0.46-0.9,0.87-1.37,1.29c-0.91,0.82,1.15-0.77,0.12-0.11c-0.29,0.19-0.57,0.38-0.87,0.55
					c-0.3,0.18-0.6,0.34-0.91,0.49c-0.38,0.19-1.48,0.61,0.16-0.05c-1.5,0.6-2.74,1.31-3.59,2.76c-0.75,1.29-1.07,3.18-0.6,4.62
					C255.66,163.44,259.01,166.06,262.13,164.82L262.13,164.82z"/>
			</g>
		</g>
		<g>
			<g>
				<path class="st0" d="M260.96,96.8c-9.66,1.37-16.75,10.33-17.1,19.83c-0.35,9.44,6.17,17.87,15.09,20.53
					c3.01,0.9,6.67-1.08,7.38-4.19c0.74-3.23-0.97-6.42-4.19-7.38c-0.39-0.12-0.77-0.26-1.16-0.39c-0.43-0.17-0.22-0.07,0.63,0.28
					c-0.21-0.09-0.42-0.19-0.62-0.3c-0.61-0.31-1.19-0.68-1.77-1.05c-0.99-0.65,0.94,0.85,0.13,0.11c-0.29-0.27-0.6-0.52-0.88-0.8
					c-0.28-0.28-0.54-0.58-0.81-0.87c-0.75-0.8,0.76,1.12,0.1,0.14c-0.39-0.57-0.75-1.14-1.07-1.75c-0.11-0.2-0.21-0.41-0.3-0.62
					c0.35,0.85,0.44,1.07,0.27,0.64c-0.14-0.38-0.28-0.76-0.4-1.15c-0.2-0.68-0.31-1.37-0.46-2.07c0.37,1.74,0.1,0.64,0.07,0.16
					c-0.02-0.43-0.02-0.86-0.01-1.29c0.01-0.26,0.24-1.52,0-0.49c-0.26,1.1,0.09-0.43,0.14-0.63c0.16-0.7,0.46-1.36,0.62-2.05
					c-0.37,1.53-0.27,0.61-0.03,0.14c0.18-0.37,0.38-0.72,0.6-1.07c0.17-0.28,0.62-0.71,0.68-1.01c-0.17,0.22-0.34,0.44-0.51,0.66
					c0.15-0.18,0.29-0.36,0.45-0.53c0.46-0.52,0.98-0.98,1.49-1.46c0.84-0.79-1.17,0.81,0.03-0.01c0.34-0.23,0.68-0.45,1.04-0.65
					c0.31-0.17,0.62-0.32,0.93-0.49c1.05-0.55-1.26,0.38,0.05-0.01c0.94-0.28,1.85-0.53,2.82-0.67c1.38-0.2,2.92-1.62,3.59-2.76
					c0.75-1.29,1.07-3.18,0.6-4.62c-0.47-1.45-1.37-2.85-2.76-3.59C264.06,96.6,262.65,96.56,260.96,96.8L260.96,96.8z"/>
			</g>
		</g>
		<g>
			<g>
				<path class="st0" d="M258.56,109.72c2.41,0,4.85-1.01,7.01-1.96c-1.01,0.27-2.02,0.55-3.03,0.82c2.72,0,5.51-2.11,7.52-3.77
					c1.55-1.28,2.86-2.88,3.96-4.55c2.28-3.46,3.47-7.93,3.22-12.06c-0.55-8.94-6.5-16.52-15.11-19.07
					c-3.01-0.89-6.67,1.07-7.38,4.19c-0.73,3.22,0.97,6.43,4.19,7.38c0.34,0.1,0.66,0.22,1,0.32c1.18,0.36-1.25-0.63-0.15-0.07
					c0.62,0.31,1.22,0.63,1.8,1.01c0.09,0.06,0.19,0.13,0.28,0.19c0.51,0.37,0.38,0.26-0.39-0.33c0.2,0.25,0.54,0.45,0.78,0.67
					c0.46,0.43,0.87,0.9,1.3,1.36c0.4,0.43-0.86-1.22-0.11-0.13c0.2,0.28,0.38,0.57,0.56,0.86c0.15,0.25,0.29,0.5,0.42,0.75
					c0.11,0.2,0.21,0.41,0.3,0.62c-0.11-0.27-0.22-0.53-0.33-0.8c0.11,0.66,0.49,1.33,0.65,1.99c0.09,0.34,0.15,0.69,0.22,1.04
					c0.24,1.24-0.06-1.45-0.04-0.17c0.01,0.74,0.01,1.47,0,2.21c-0.02,1.09,0.21-1.06,0.06-0.32c-0.07,0.35-0.13,0.71-0.21,1.06
					c-0.12,0.49-0.61,1.38-0.58,1.87c0.39-0.89,0.45-1.04,0.19-0.46c-0.05,0.11-0.1,0.21-0.15,0.32c-0.16,0.31-0.33,0.62-0.5,0.92
					c-0.18,0.3-0.38,0.58-0.57,0.88c-0.65,1.05,0.91-1.03,0.09-0.11c-0.46,0.52-0.93,1.03-1.45,1.5c-0.09,0.08-0.17,0.15-0.26,0.23
					c-0.48,0.4-0.35,0.3,0.4-0.29c-0.29,0.1-0.61,0.43-0.86,0.59c-0.59,0.38-1.21,0.7-1.85,1c1.01-0.27,2.02-0.55,3.03-0.82
					c-1.12,0-2.02,0.39-3.04,0.82c1.49-0.63,0.12-0.08-0.16,0c-0.39,0.12-0.79,0.23-1.19,0.32c-0.67,0.15-1.78,0,0.39,0
					c-3.14,0-6.15,2.76-6,6C252.7,106.97,255.19,109.72,258.56,109.72L258.56,109.72z"/>
			</g>
		</g>
	</g>
	<g>
		<g>
			<g>
				<path class="st0" d="M218.77,106.59c-4.25,1.69-7.61,4.21-10.29,7.95c-2.36,3.3-3.57,7.58-3.57,11.61s1.21,8.32,3.57,11.61
					c2.68,3.74,6.03,6.25,10.29,7.95c1.35,0.54,3.42,0.1,4.62-0.6c1.24-0.73,2.43-2.16,2.76-3.59c0.79-3.46-1.06-6.13-4.19-7.38
					c1.8,0.72-0.26-0.16-0.75-0.45c-0.3-0.17-0.58-0.37-0.87-0.55c-0.88-0.54,0.8,0.69,0.25,0.22c-0.48-0.41-0.95-0.82-1.38-1.28
					c-0.19-0.2-0.43-0.63-0.68-0.77c0.54,0.72,0.68,0.9,0.41,0.54c-0.1-0.14-0.2-0.28-0.3-0.42c-0.39-0.57-0.7-1.18-1.04-1.78
					c-0.51-0.91,0.36,1.01,0.11,0.32c-0.12-0.33-0.24-0.65-0.35-0.99c-0.2-0.62-0.32-1.25-0.46-1.89c-0.26-1.25,0.09,1.45,0.04,0.17
					c-0.01-0.37-0.04-0.73-0.04-1.1c0-0.37,0.03-0.73,0.04-1.1c0.02-1.09-0.21,1.08-0.07,0.34c0.12-0.64,0.25-1.27,0.43-1.9
					c0.1-0.34,0.22-0.66,0.34-0.99c0.4-1.18-0.63,1.25-0.05,0.16c0.33-0.61,0.65-1.21,1.04-1.78c0.13-0.19,0.69-1.07,0.14-0.22
					c-0.55,0.86,0.14-0.12,0.31-0.3c0.43-0.46,0.9-0.87,1.37-1.29c0.91-0.82-1.15,0.77-0.12,0.11c0.29-0.19,0.57-0.38,0.87-0.55
					c0.3-0.18,0.6-0.34,0.91-0.49c0.38-0.19,1.48-0.61-0.16,0.05c1.5-0.6,2.74-1.31,3.59-2.76c0.75-1.29,1.07-3.18,0.6-4.62
					C225.24,107.97,221.89,105.35,218.77,106.59L218.77,106.59z"/>
			</g>
		</g>
		<g>
			<g>
				<path class="st0" d="M221.96,118.05c8.92-2.67,15.44-11.1,15.09-20.53c-0.35-9.5-7.44-18.46-17.1-19.83
					c-1.67-0.24-3.11-0.28-4.62,0.6c-1.24,0.73-2.43,2.16-2.76,3.59c-0.65,2.83,0.87,6.91,4.19,7.38c0.98,0.14,1.87,0.41,2.82,0.67
					c1.13,0.32-0.95-0.5,0.05,0.01c0.31,0.16,0.63,0.31,0.93,0.49c0.3,0.17,0.6,0.36,0.89,0.55c0.19,0.13,0.38,0.26,0.57,0.4
					c-0.7-0.56-0.88-0.69-0.53-0.4c0.56,0.51,1.12,1,1.62,1.57c0.12,0.13,0.23,0.26,0.34,0.4c0.29,0.35,0.15,0.17-0.4-0.53
					c0.08,0.28,0.42,0.6,0.59,0.87c0.22,0.35,0.42,0.7,0.61,1.06c0.08,0.16,0.16,0.31,0.23,0.47c0.26,0.58,0.2,0.43-0.19-0.46
					c-0.03,0.58,0.49,1.44,0.62,2.05c0.08,0.33,0.07,0.75,0.2,1.07c-0.13-0.99-0.16-1.16-0.09-0.5c0.01,0.18,0.02,0.37,0.03,0.56
					c0.01,0.37,0.01,0.74,0,1.11c-0.01,0.18-0.01,0.36-0.03,0.54c-0.06,0.66-0.03,0.48,0.1-0.52c-0.22,0.66-0.26,1.39-0.46,2.07
					c-0.1,0.33-0.22,0.66-0.33,0.99c-0.37,1.11,0.63-1.31-0.02-0.01c-0.34,0.67-0.74,1.28-1.15,1.91c-0.67,1.01,0.93-1.02,0.1-0.14
					c-0.23,0.25-0.45,0.51-0.69,0.75c-0.28,0.28-0.57,0.55-0.87,0.81c-1.09,0.94,0.97-0.6,0,0c-0.58,0.36-1.15,0.74-1.77,1.05
					c-0.21,0.1-0.41,0.2-0.62,0.3c0.27-0.11,0.53-0.22,0.8-0.34c-0.38,0.01-0.95,0.33-1.32,0.45c-3,0.9-5.2,4.25-4.19,7.38
					C215.57,116.9,218.74,119.01,221.96,118.05L221.96,118.05z"/>
			</g>
		</g>
		<g>
			<g>
				<path class="st0" d="M218.77,50.01c-8.61,2.55-14.56,10.13-15.11,19.07c-0.25,4.13,0.94,8.6,3.22,12.06
					c1.1,1.67,2.41,3.27,3.96,4.55c2.02,1.67,4.79,3.77,7.52,3.77c-1.01-0.27-2.02-0.55-3.03-0.82c2.16,0.95,4.6,1.96,7.01,1.96
					c3.14,0,6.15-2.76,6-6c-0.15-3.25-2.64-6-6-6c2.02,0,1.12,0.17,0.39,0c-0.4-0.09-0.8-0.2-1.19-0.32c-0.36-0.11-1.6-0.63-0.16,0
					c-1.05-0.45-1.83-0.82-3.04-0.82c1.01,0.27,2.02,0.55,3.03,0.82c-0.64-0.3-1.26-0.62-1.85-1c-0.29-0.19-0.57-0.42-0.86-0.59
					c1.33,0.79,0.52,0.4,0.14,0.06c-0.52-0.47-0.98-0.98-1.45-1.5c-0.7-0.77,0.58,0.86,0.19,0.25c-0.19-0.29-0.39-0.58-0.58-0.87
					c-0.18-0.3-0.35-0.6-0.51-0.92c-0.1-0.19-0.69-1.35-0.21-0.4c0.45,0.9,0-0.05-0.07-0.28c-0.11-0.34-0.21-0.68-0.3-1.03
					s-0.15-0.7-0.23-1.06c-0.27-1.26,0.08,1.44,0.03,0.14c-0.03-0.74-0.03-1.47,0-2.21c0.05-1.16-0.3,1.38-0.04,0.17
					c0.07-0.35,0.13-0.7,0.22-1.04c0.16-0.63,0.37-1.22,0.59-1.83c0.2-0.56-0.65,1.37-0.04,0.17c0.13-0.26,0.27-0.51,0.41-0.76
					c0.17-0.3,0.36-0.59,0.55-0.87c0.13-0.19,0.26-0.37,0.4-0.56c-0.17,0.23-0.34,0.45-0.52,0.68c0.47-0.24,1-1.11,1.41-1.49
					c0.25-0.23,0.53-0.44,0.78-0.67c-1.19,1.11-0.5,0.39-0.11,0.13c0.58-0.38,1.19-0.69,1.8-1.01c0.93-0.48-1.01,0.36-0.32,0.13
					c0.39-0.13,0.77-0.27,1.16-0.38c3.01-0.89,5.2-4.26,4.19-7.38C225.17,51.16,222,49.06,218.77,50.01L218.77,50.01z"/>
			</g>
		</g>
	</g>
</g>
</svg>
