<?xml version="1.0" encoding="utf-8"?>
<!-- Generator: Adobe Illustrator 26.5.0, SVG Export Plug-In . SVG Version: 6.00 Build 0)  -->
<svg version="1.1" id="Layer_1" xmlns="http://www.w3.org/2000/svg" xmlns:xlink="http://www.w3.org/1999/xlink" x="0px" y="0px"
	 viewBox="0 0 443.09 443.09" style="enable-background:new 0 0 443.09 443.09;" xml:space="preserve">
<style type="text/css">
	.st0{fill:#3C445B;}
</style>
<g>
	<g>
		<g>
			<path class="st0" d="M274.04,305.4c1.82-4,3.64-7.99,5.46-11.99c4.3-9.43,8.59-18.87,12.89-28.3c5.01-11,10.02-22,15.03-33
				c4.01-8.8,8.01-17.59,12.02-26.39c2.91-6.4,5.96-12.76,8.22-19.43c0.88-2.58,1.44-5.28,2.33-7.84c1.3-3.73-2.1-7.6-5.79-7.6
				c0,0,0,0-0.01,0c1.93,2.53,3.86,5.06,5.79,7.6c5.83-23.12,4.32-48.1-4.85-70.16c-8.16-19.63-21.5-36.45-38.76-48.87
				c-17.14-12.33-37.8-19.36-58.85-20.53c-21.29-1.18-42.85,3.93-61.37,14.49c-17.91,10.21-32.98,25.52-42.84,43.63
				c-10.62,19.49-15.34,42.15-13.14,64.25c1.2,12.01,4.19,23.65,9.08,34.69c0.95,2.14,1.92,4.27,2.88,6.4
				c4.88,10.86,9.77,21.72,14.65,32.58c6,13.35,12.01,26.71,18.01,40.06c3.72,8.27,7.43,16.53,11.15,24.8
				c0.19,0.41,0.37,0.82,0.56,1.24c1.29,2.87,5.69,3.78,8.21,2.15c2.97-1.91,3.53-5.14,2.15-8.21c-2.6-5.78-5.19-11.55-7.79-17.33
				c-5.64-12.54-11.28-25.08-16.92-37.62c-5.45-12.13-10.91-24.25-16.36-36.38c-1.64-3.65-3.28-7.3-4.92-10.95
				c-0.38-0.85-0.76-1.69-1.14-2.54c-0.06-0.13-0.12-0.26-0.18-0.39c-0.64-1.41,0.48,1.2-0.1-0.23c-0.28-0.7-0.57-1.39-0.84-2.09
				c-0.63-1.61-1.22-3.25-1.77-4.89c-1.03-3.1-1.92-6.24-2.66-9.43c-0.35-1.49-0.66-2.99-0.95-4.5c-0.17-0.91-0.33-1.82-0.47-2.73
				c-0.05-0.31-0.1-0.61-0.14-0.92c-0.05-0.32-0.42-2.36-0.11-0.71c-0.61-3.19-0.69-6.59-0.8-9.83c-0.11-2.96-0.09-5.92,0.05-8.88
				c0.12-2.5,0.32-5,0.62-7.49c0.04-0.35,0.09-0.7,0.13-1.06c0.16-1.3-0.22,1.49-0.02,0.19c0.09-0.58,0.17-1.17,0.26-1.75
				c0.2-1.27,0.43-2.54,0.68-3.81c0.96-4.89,2.27-9.7,3.92-14.41c0.4-1.14,0.81-2.27,1.25-3.39c0.23-0.59,0.46-1.17,0.7-1.75
				c0.09-0.21,0.18-0.42,0.26-0.63c-0.66,1.81-0.1,0.25,0.07-0.14c0.96-2.19,1.99-4.35,3.09-6.47c2.3-4.41,4.9-8.67,7.8-12.72
				c0.66-0.92,1.33-1.82,2.01-2.72c0.72-0.96-0.73,0.91-0.21,0.28c0.18-0.22,0.35-0.44,0.52-0.66c0.42-0.53,0.85-1.05,1.28-1.57
				c1.58-1.91,3.22-3.76,4.92-5.56c3.33-3.51,6.91-6.79,10.68-9.81c0.32-0.26,1.98-1.48,0.38-0.31c0.46-0.33,0.9-0.68,1.35-1.02
				c1.04-0.77,2.1-1.53,3.16-2.26c2-1.38,4.05-2.69,6.14-3.92c2.15-1.27,4.34-2.46,6.57-3.58c1.02-0.51,2.04-1,3.08-1.48
				c0.52-0.24,1.04-0.47,1.56-0.7c0.31-0.14,0.63-0.27,0.94-0.41c1.1-0.48-1.21,0.49-0.17,0.07c4.64-1.88,9.38-3.49,14.24-4.73
				c2.43-0.62,4.88-1.15,7.35-1.59c1.22-0.22,2.43-0.41,3.66-0.59c0.43-0.06,1.37-0.13-0.37,0.05c0.35-0.04,0.7-0.09,1.06-0.13
				c0.71-0.09,1.41-0.16,2.12-0.24c5.14-0.52,10.33-0.67,15.49-0.44c2.56,0.11,5.12,0.32,7.67,0.61c0.48,0.06,2.76,0.4,0.69,0.08
				c0.58,0.09,1.17,0.17,1.75,0.26c1.28,0.2,2.55,0.42,3.81,0.67c4.89,0.95,9.72,2.24,14.43,3.87c1.19,0.41,2.38,0.85,3.55,1.3
				c0.53,0.21,1.07,0.42,1.6,0.63c0.26,0.11,0.53,0.22,0.79,0.33c0.43,0.18,0.21,0.09-0.64-0.27c0.21,0.09,0.42,0.18,0.63,0.27
				c2.25,0.97,4.46,2.02,6.63,3.15c4.37,2.26,8.58,4.83,12.59,7.68c0.92,0.65,1.83,1.32,2.73,2c0.32,0.24,1.22,1.05-0.14-0.11
				c0.17,0.14,0.36,0.28,0.53,0.42c0.53,0.42,1.06,0.84,1.58,1.27c1.91,1.57,3.77,3.21,5.57,4.91c3.52,3.32,6.81,6.88,9.84,10.65
				c0.35,0.44,0.68,0.9,1.05,1.32c-1.28-1.51,0.11,0.16,0.39,0.53c0.78,1.04,1.53,2.09,2.27,3.16c1.35,1.95,2.63,3.95,3.85,5.99
				c1.28,2.14,2.48,4.33,3.6,6.56c0.51,1.02,1.01,2.04,1.49,3.07c0.24,0.52,0.48,1.04,0.71,1.56c0.14,0.31,0.28,0.63,0.41,0.94
				c0.09,0.21,0.18,0.42,0.27,0.63c-0.36-0.86-0.45-1.07-0.27-0.64c1.84,4.67,3.5,9.36,4.75,14.23c0.61,2.37,1.13,4.76,1.57,7.17
				c0.23,1.27,0.44,2.55,0.63,3.83c0.03,0.23,0.06,0.47,0.1,0.7c-0.29-1.88-0.08-0.59-0.03-0.19c0.09,0.71,0.17,1.41,0.24,2.12
				c0.59,5.65,0.73,11.35,0.42,17.02c-0.09,1.62-0.21,3.23-0.38,4.84c-0.1,0.95-0.16,1.93-0.33,2.87c0.04-0.2,0.19-1.3,0.02-0.17
				c-0.07,0.47-0.14,0.95-0.21,1.42c-0.51,3.29-1.19,6.54-2,9.77c-0.95,3.77,1.82,7.6,5.79,7.6c0,0,0,0,0.01,0
				c-1.93-2.53-3.86-5.06-5.79-7.6c-0.89,2.56-1.45,5.26-2.33,7.84c-0.43,1.27-0.89,2.54-1.37,3.8c-0.25,0.66-0.51,1.32-0.78,1.98
				c-0.12,0.29-0.22,0.6-0.36,0.88c0.66-1.32-0.05,0.1-0.14,0.3c-0.23,0.53-0.47,1.07-0.72,1.6c-0.9,1.99-1.81,3.97-2.71,5.96
				c-3.79,8.31-7.57,16.63-11.36,24.94c-4.98,10.94-9.96,21.88-14.95,32.82c-4.44,9.75-8.88,19.49-13.31,29.24
				c-2.2,4.84-4.43,9.66-6.61,14.51c-0.03,0.07-0.06,0.14-0.09,0.2c-1.3,2.85-0.91,6.59,2.15,8.21
				C268.46,308.94,272.65,308.45,274.04,305.4L274.04,305.4z"/>
		</g>
	</g>
	<g>
		<g>
			<path class="st0" d="M253.3,344.04c-4.81,0-9.63,0-14.44,0c-9.56,0-19.11,0-28.67,0c-7.12,0-14.25,0-21.37,0
				c-0.56,0-1.12,0-1.68,0c-0.73,0-1.46-0.03-2.19-0.09c-0.22-0.02-0.46-0.07-0.69-0.07c-0.07,0,1.4,0.22,0.75,0.1
				c-0.39-0.07-0.78-0.13-1.17-0.21c-0.88-0.18-1.75-0.41-2.6-0.68c-0.37-0.12-0.73-0.26-1.1-0.39c-1.33-0.46,0.97,0.47,0.05,0.03
				c-0.79-0.38-1.58-0.77-2.34-1.22c-0.66-0.39-1.28-0.83-1.92-1.26c-0.84-0.58,1.03,0.87,0.05,0.04c-0.37-0.32-0.75-0.63-1.1-0.97
				c-0.56-0.52-1.09-1.07-1.59-1.64c-0.25-0.28-0.48-0.59-0.74-0.87c-0.5-0.55,0.74,1.06,0.34,0.44c-0.15-0.23-0.32-0.44-0.48-0.67
				c-0.43-0.63-0.84-1.28-1.21-1.95c-0.19-0.34-0.36-0.68-0.54-1.02c-0.1-0.2-0.19-0.4-0.28-0.6c-0.23-0.48-0.19-1.05,0.15,0.37
				c-0.39-1.63-1.08-3.16-1.38-4.84c-0.03-0.17-0.05-0.34-0.08-0.51c-0.13-0.77,0.14,1.35,0.08,0.57c-0.03-0.4-0.08-0.8-0.1-1.21
				c-0.04-0.76-0.05-1.52-0.02-2.28c0.01-0.41,0.04-0.81,0.07-1.21c0.02-0.19,0.09-0.48,0.07-0.69c0.01,0.08-0.25,1.57-0.07,0.58
				c0.15-0.84,0.31-1.66,0.53-2.48c0.22-0.81,0.5-1.59,0.78-2.38c0.34-0.96-0.64,1.33-0.02,0.06c0.19-0.4,0.38-0.79,0.58-1.18
				c0.38-0.73,0.8-1.43,1.26-2.12c0.21-0.32,0.45-0.62,0.66-0.94c0.34-0.52-0.48,0.6-0.44,0.56c0.19-0.18,0.35-0.43,0.52-0.63
				c0.53-0.62,1.09-1.22,1.68-1.78c0.27-0.26,0.56-0.52,0.84-0.77c0.23-0.2,1.34-1.09,0.53-0.46c-0.85,0.66,0.25-0.17,0.45-0.3
				c0.36-0.25,0.73-0.49,1.1-0.71c0.7-0.43,1.43-0.82,2.17-1.18c0.15-0.07,0.3-0.14,0.45-0.21c0.87-0.42-0.44,0.2-0.52,0.21
				c0.37-0.08,0.73-0.28,1.09-0.41c0.85-0.29,1.71-0.54,2.58-0.74c0.39-0.09,0.77-0.16,1.16-0.23c0.22-0.04,0.45-0.06,0.67-0.11
				c0.07-0.01-1.41,0.15-0.74,0.11c0.87-0.06,1.73-0.14,2.61-0.14c0.1,0,0.2,0,0.29,0c0.69,0,1.37,0,2.06,0c3.02,0,6.04,0,9.05,0
				c9.4,0,18.79,0,28.19,0c7.8,0,15.6,0,23.41,0c1.78,0,3.59-0.06,5.36,0.09c0.19,0.02,0.48,0.09,0.69,0.07
				c-0.08,0.01-1.57-0.25-0.58-0.07c0.39,0.07,0.78,0.13,1.17,0.22c0.82,0.17,1.64,0.39,2.44,0.65c0.42,0.14,0.84,0.3,1.26,0.45
				c0.96,0.34-1.33-0.64-0.06-0.02c0.74,0.36,1.48,0.73,2.19,1.15c0.71,0.42,1.36,0.91,2.05,1.36c0.52,0.34-0.6-0.48-0.56-0.44
				c0.14,0.15,0.35,0.28,0.51,0.41c0.33,0.28,0.66,0.57,0.98,0.87c0.6,0.56,1.16,1.15,1.7,1.76c0.25,0.28,0.46,0.62,0.73,0.88
				c-0.06-0.05-0.88-1.22-0.34-0.43c0.12,0.18,0.25,0.35,0.38,0.53c0.43,0.63,0.84,1.28,1.21,1.95c0.21,0.38,0.42,0.77,0.61,1.17
				c0.07,0.15,0.14,0.3,0.21,0.45c0.43,0.88-0.06,0.02-0.15-0.37c0.16,0.74,0.55,1.48,0.76,2.21c0.25,0.86,0.46,1.74,0.61,2.63
				c0.04,0.22,0.06,0.45,0.11,0.67c0.01,0.07-0.15-1.41-0.11-0.74c0.03,0.4,0.08,0.8,0.1,1.21c0.05,0.82,0.05,1.63,0.02,2.45
				c-0.02,0.4-0.05,0.81-0.08,1.21c-0.14,1.46,0.2-1.1,0.02-0.06c-0.15,0.89-0.33,1.77-0.57,2.65c-0.21,0.75-0.48,1.48-0.73,2.22
				c-0.32,0.91,0.18-0.44,0.23-0.51c-0.11,0.18-0.19,0.42-0.27,0.6c-0.19,0.4-0.38,0.79-0.59,1.18c-0.36,0.67-0.76,1.33-1.18,1.97
				c-0.21,0.32-0.46,0.62-0.66,0.94c-0.4,0.62,0.84-0.98,0.34-0.44c-0.18,0.2-0.35,0.42-0.52,0.63c-0.5,0.58-1.02,1.13-1.57,1.66
				c-0.27,0.26-0.56,0.52-0.84,0.77c-0.16,0.14-0.33,0.28-0.5,0.42c-0.38,0.33-0.98,0.5,0.32-0.23c-1.44,0.81-2.71,1.82-4.22,2.53
				c-0.15,0.07-0.31,0.13-0.45,0.21c-0.66,0.35,1.23-0.44,0.52-0.22c-0.37,0.11-0.73,0.28-1.09,0.4c-0.74,0.25-1.5,0.47-2.26,0.64
				c-0.44,0.1-0.88,0.19-1.33,0.27c-0.17,0.03-0.34,0.05-0.51,0.08c-0.77,0.13,1.35-0.14,0.57-0.08
				C255.03,343.96,254.17,344.03,253.3,344.04c-3.14,0.02-6.15,2.74-6,6c0.14,3.23,2.64,6.02,6,6c8.16-0.06,16.21-3.4,21.8-9.38
				c5.54-5.92,8.7-14.08,8.18-22.22c-0.52-8.07-4.14-15.99-10.43-21.2c-5.6-4.63-12.36-7.23-19.67-7.26c-5.78-0.02-11.57,0-17.35,0
				c-10.02,0-20.05,0-30.07,0c-6.15,0-12.29-0.01-18.44,0c-6.15,0.01-12.44,1.77-17.44,5.42c-6.54,4.77-11.31,11.79-12.45,19.9
				c-1.23,8.75,1.07,17.13,6.64,24c5.16,6.36,12.98,10.02,21.06,10.66c1.86,0.15,3.75,0.08,5.61,0.08c3.51,0,7.03,0,10.54,0
				c9.9,0,19.81,0,29.71,0c7.07,0,14.14,0,21.22,0c0.37,0,0.74,0,1.11,0c3.14,0,6.15-2.76,6-6
				C259.15,346.79,256.66,344.04,253.3,344.04z"/>
		</g>
	</g>
	<g>
		<g>
			<path class="st0" d="M249.81,391.03c-4.28,0-8.57,0-12.85,0c-8.52,0-17.03,0-25.55,0c-6.41,0-12.83,0-19.24,0
				c-0.51,0-1.03,0-1.54,0c-0.56,0-1.12-0.02-1.68-0.06c-0.25-0.02-1.46-0.17-0.4-0.02c1.06,0.15-0.27-0.05-0.55-0.11
				c-0.77-0.15-1.54-0.34-2.29-0.58c-0.32-0.1-0.64-0.21-0.95-0.32c-0.16-0.06-0.31-0.13-0.47-0.18c-0.6-0.18,0.71,0.31,0.67,0.29
				c-0.64-0.4-1.4-0.66-2.06-1.04c-0.62-0.35-1.21-0.75-1.8-1.15c-1.07-0.73,0.78,0.68,0.04,0.04c-0.29-0.25-0.58-0.49-0.86-0.75
				c-0.52-0.48-1.02-0.98-1.5-1.51c-0.22-0.24-0.42-0.5-0.64-0.74c-0.13-0.15-0.5-0.64,0.06,0.09c0.63,0.81,0.02,0.01-0.11-0.18
				c-0.83-1.18-1.34-2.52-2.09-3.73c0.05,0.07,0.54,1.42,0.23,0.51c-0.05-0.16-0.12-0.31-0.17-0.47c-0.11-0.32-0.22-0.63-0.31-0.95
				c-0.23-0.75-0.42-1.52-0.56-2.3c-0.05-0.24-0.23-1.45-0.08-0.39c0.16,1.11-0.01-0.32-0.03-0.58c-0.04-0.7-0.06-1.4-0.03-2.1
				c0.01-0.35,0.03-0.7,0.06-1.04c0.01-0.17,0.04-0.34,0.05-0.52c0.06-0.78-0.22,1.34-0.08,0.57c0.13-0.73,0.26-1.45,0.45-2.16
				c0.18-0.7,0.41-1.39,0.66-2.07c0.44-1.22-0.49,0.98-0.03,0.05c0.17-0.35,0.33-0.7,0.51-1.04c0.33-0.63,0.69-1.25,1.08-1.84
				c0.18-0.27,0.37-0.54,0.56-0.81c0.26-0.39,0.64-0.51-0.34,0.43c0.15-0.15,0.28-0.34,0.42-0.51c0.93-1.1,2.07-1.93,3.05-2.95
				c-1.12,1.17-0.49,0.38-0.03,0.06c0.27-0.19,0.54-0.37,0.82-0.54c0.65-0.41,1.33-0.78,2.02-1.11c0.15-0.07,0.3-0.14,0.45-0.21
				c0.87-0.43-0.44,0.2-0.52,0.21c0.31-0.06,0.64-0.25,0.94-0.35c0.74-0.26,1.5-0.47,2.26-0.65c0.33-0.08,0.66-0.14,1-0.2
				c0.22-0.04,0.45-0.06,0.67-0.11c0.07-0.01-1.41,0.15-0.74,0.11c0.76-0.04,1.5-0.11,2.26-0.12c0.08,0,0.17,0,0.25,0
				c0.63,0,1.25,0,1.88,0c2.7,0,5.39,0,8.09,0c8.34,0,16.68,0,25.02,0c7.02,0,14.04,0,21.05,0c1.52,0,3.06-0.05,4.57,0.06
				c0.23,0.02,0.46,0.05,0.69,0.06c0.66,0.04-0.81-0.12-0.74-0.11c0.33,0.07,0.67,0.11,1.01,0.17c0.77,0.15,1.54,0.34,2.29,0.58
				c0.32,0.1,0.64,0.21,0.95,0.32c0.17,0.06,0.43,0.2,0.62,0.24c0.05,0.01-1.23-0.57-0.67-0.28c0.69,0.35,1.39,0.66,2.06,1.05
				c0.62,0.36,1.2,0.76,1.79,1.16c0.86,0.58-0.96-0.82-0.18-0.14c0.33,0.29,0.67,0.56,0.99,0.86c0.48,0.44,0.94,0.91,1.38,1.4
				c0.25,0.28,0.48,0.6,0.74,0.87c0.42,0.44-0.45-0.6-0.44-0.57c0.09,0.19,0.26,0.36,0.38,0.53c0.41,0.58,0.79,1.19,1.14,1.81
				c0.16,0.29,0.32,0.58,0.46,0.87c0.1,0.21,0.74,1.63,0.32,0.64c-0.41-0.95,0.04,0.14,0.12,0.37c0.13,0.37,0.25,0.74,0.36,1.11
				c0.22,0.76,0.4,1.53,0.54,2.3c0.03,0.17,0.05,0.34,0.08,0.51c0.12,0.65-0.1-0.81-0.1-0.74c0,0.34,0.07,0.69,0.09,1.03
				c0.05,0.7,0.06,1.4,0.03,2.1c-0.01,0.41-0.04,0.81-0.07,1.22c-0.01,0.17-0.05,0.35-0.05,0.52c0,0.07,0.22-1.4,0.1-0.74
				c-0.14,0.78-0.28,1.56-0.49,2.32c-0.19,0.7-0.43,1.38-0.67,2.07c-0.34,1,0.55-1.15,0.09-0.21c-0.19,0.4-0.38,0.8-0.58,1.18
				c-0.31,0.58-0.64,1.15-1.01,1.7c-0.21,0.32-0.45,0.62-0.66,0.94c-0.33,0.52,0.48-0.6,0.44-0.56c-0.15,0.14-0.28,0.35-0.42,0.51
				c-0.46,0.54-0.94,1.06-1.45,1.55c-0.27,0.27-0.55,0.52-0.84,0.78c-0.19,0.17-1.22,0.99-0.41,0.36c0.81-0.63-0.12,0.07-0.32,0.21
				c-0.32,0.22-0.64,0.43-0.96,0.63c-0.66,0.4-1.33,0.77-2.03,1.1c-0.15,0.07-0.31,0.13-0.45,0.21c-0.56,0.29,0.72-0.29,0.67-0.28
				c-0.36,0.07-0.75,0.29-1.09,0.4c-0.64,0.22-1.28,0.4-1.94,0.55c-0.39,0.09-0.77,0.17-1.16,0.24c-0.17,0.03-0.34,0.05-0.51,0.08
				c-0.65,0.12,0.81-0.1,0.74-0.1C251.44,390.89,250.62,391.03,249.81,391.03c-3.14,0.03-6.15,2.74-6,6c0.14,3.23,2.64,6.03,6,6
				c7.48-0.06,14.89-3.12,20.01-8.64c4.99-5.38,7.87-12.71,7.45-20.08c-0.41-7.36-3.66-14.62-9.34-19.44
				c-5.15-4.35-11.44-6.8-18.21-6.84c-5.16-0.03-10.31,0-15.47,0c-8.98,0-17.96,0-26.94,0c-5.52,0-11.03-0.01-16.55,0
				c-5.58,0.01-11.32,1.59-15.87,4.89c-6.01,4.35-10.44,10.79-11.49,18.24c-1.12,7.97,0.91,15.55,5.93,21.86
				c4.7,5.91,11.83,9.27,19.26,9.93c1.69,0.15,3.41,0.09,5.1,0.09c3.15,0,6.31,0,9.46,0c8.86,0,17.73,0,26.59,0
				c6.36,0,12.73,0,19.09,0c0.32,0,0.65,0,0.97,0c3.14,0,6.15-2.76,6-6C255.66,393.78,253.17,391.03,249.81,391.03z"/>
		</g>
	</g>
	<g>
		<g>
			<g>
				<path class="st0" d="M218.26,299.05c-1.18-3.71-2.36-7.42-3.54-11.12c-2.84-8.9-5.67-17.8-8.51-26.71
					c-3.42-10.73-6.84-21.46-10.26-32.19c-2.97-9.31-5.94-18.63-8.9-27.94c-1.44-4.52-2.74-9.12-4.33-13.59
					c-0.02-0.06-0.04-0.13-0.06-0.19c-1.93,2.53-3.86,5.06-5.79,7.6c2.87,0,5.74,0,8.61,0c6.89,0,13.79,0,20.68,0
					c8.34,0,16.68,0,25.02,0c7.21,0,14.42,0,21.63,0c3.5,0,7.02,0.13,10.51,0c0.05,0,0.1,0,0.15,0c-1.93-2.53-3.86-5.06-5.79-7.6
					c-1.18,3.71-2.36,7.42-3.54,11.12c-2.84,8.9-5.67,17.8-8.51,26.71c-3.42,10.73-6.84,21.46-10.26,32.19
					c-2.97,9.31-5.94,18.63-8.9,27.94c-1.44,4.52-3.02,9.03-4.33,13.59c-0.02,0.06-0.04,0.13-0.06,0.19
					c-0.95,2.99,1.12,6.68,4.19,7.38c3.28,0.75,6.36-0.99,7.38-4.19c1.18-3.71,2.36-7.42,3.54-11.12c2.84-8.9,5.67-17.8,8.51-26.71
					c3.42-10.73,6.84-21.46,10.26-32.19c2.97-9.31,5.94-18.63,8.9-27.94c1.44-4.52,3.02-9.03,4.33-13.59
					c0.02-0.06,0.04-0.13,0.06-0.19c1.19-3.74-2.01-7.6-5.79-7.6c-2.87,0-5.74,0-8.61,0c-6.89,0-13.79,0-20.68,0
					c-8.34,0-16.68,0-25.02,0c-7.21,0-14.42,0-21.63,0c-3.5,0-7.01-0.09-10.51,0c-0.05,0-0.1,0-0.15,0c-3.77,0-6.98,3.85-5.79,7.6
					c1.18,3.71,2.36,7.42,3.54,11.12c2.84,8.9,5.67,17.8,8.51,26.71c3.42,10.73,6.84,21.46,10.26,32.19
					c2.97,9.31,5.94,18.63,8.9,27.94c1.44,4.53,2.82,9.09,4.33,13.59c0.02,0.06,0.04,0.13,0.06,0.19c0.95,2.99,4.21,5.22,7.38,4.19
					C217.06,305.47,219.28,302.26,218.26,299.05L218.26,299.05z"/>
			</g>
		</g>
		<g>
			<g>
				<path class="st0" d="M181.91,187.44c-1.35-3.57-2.7-7.14-4.05-10.71c-0.65-1.72-1.3-3.44-1.95-5.16c-1.33-3.51-3.48-6.67-7-8.3
					c-4.49-2.08-9.97-2.08-14.07,0.96c-2.42,1.8-4.07,3.94-5.18,6.75c-0.93,2.35-0.91,4.86-0.52,7.31c0.39,2.43,1.64,4.57,3.18,6.44
					c1.58,1.92,3.72,3.08,5.99,3.96c1.24,0.48,2.49,0.94,3.74,1.42c4.16,1.57,8.32,3.15,12.48,4.72c1.38,0.52,3.4,0.11,4.62-0.6
					c1.24-0.73,2.43-2.16,2.76-3.59c0.35-1.54,0.27-3.26-0.6-4.62c-0.89-1.38-2.05-2.18-3.59-2.76c-4.75-1.8-9.5-3.6-14.26-5.39
					c-0.73-0.28-1.47-0.55-2.2-0.83c0.48,0.2,0.96,0.4,1.43,0.6c-0.66-0.28-1.26-0.63-1.83-1.06c0.4,0.31,0.81,0.63,1.21,0.94
					c-0.53-0.43-1-0.9-1.42-1.44c0.31,0.4,0.63,0.81,0.94,1.21c-0.39-0.54-0.72-1.11-0.98-1.72c0.2,0.48,0.4,0.96,0.6,1.43
					c-0.24-0.62-0.41-1.24-0.52-1.89c0.07,0.53,0.14,1.06,0.21,1.6c-0.1-0.73-0.1-1.45-0.01-2.19c-0.07,0.53-0.14,1.06-0.21,1.6
					c0.1-0.67,0.27-1.31,0.53-1.93c-0.2,0.48-0.4,0.96-0.6,1.43c0.28-0.64,0.63-1.23,1.05-1.79c-0.31,0.4-0.63,0.81-0.94,1.21
					c0.41-0.51,0.86-0.96,1.37-1.37c-0.4,0.31-0.81,0.63-1.21,0.94c0.56-0.42,1.15-0.77,1.79-1.05c-0.48,0.2-0.96,0.4-1.43,0.6
					c0.63-0.25,1.27-0.42,1.93-0.53c-0.53,0.07-1.06,0.14-1.6,0.21c0.73-0.09,1.46-0.09,2.19,0.01c-0.53-0.07-1.06-0.14-1.6-0.21
					c0.65,0.1,1.28,0.27,1.89,0.52c-0.48-0.2-0.96-0.4-1.43-0.6c0.61,0.26,1.18,0.59,1.72,0.98c-0.4-0.31-0.81-0.63-1.21-0.94
					c0.54,0.42,1.02,0.89,1.44,1.42c-0.31-0.4-0.63-0.81-0.94-1.21c0.43,0.57,0.78,1.18,1.06,1.83c-0.2-0.48-0.4-0.96-0.6-1.43
					c1.88,4.76,3.63,9.58,5.44,14.36c0.26,0.7,0.53,1.39,0.79,2.09c0.57,1.5,1.33,2.75,2.76,3.59c1.29,0.75,3.18,1.07,4.62,0.6
					C180.57,193.9,183.09,190.59,181.91,187.44z"/>
			</g>
		</g>
		<g>
			<g>
				<path class="st0" d="M269.61,191.85c1.8-4.75,3.6-9.5,5.39-14.26c0.28-0.73,0.55-1.47,0.83-2.2c-0.2,0.48-0.4,0.96-0.6,1.43
					c0.28-0.66,0.63-1.26,1.06-1.83c-0.31,0.4-0.63,0.81-0.94,1.21c0.43-0.53,0.9-1,1.44-1.42c-0.4,0.31-0.81,0.63-1.21,0.94
					c0.54-0.39,1.11-0.72,1.72-0.98c-0.48,0.2-0.96,0.4-1.43,0.6c0.62-0.24,1.24-0.41,1.89-0.52c-0.53,0.07-1.06,0.14-1.6,0.21
					c0.73-0.1,1.45-0.1,2.19-0.01c-0.53-0.07-1.06-0.14-1.6-0.21c0.67,0.1,1.31,0.27,1.93,0.53c-0.48-0.2-0.96-0.4-1.43-0.6
					c0.64,0.28,1.23,0.63,1.79,1.05c-0.4-0.31-0.81-0.63-1.21-0.94c0.51,0.41,0.96,0.86,1.37,1.37c-0.31-0.4-0.63-0.81-0.94-1.21
					c0.42,0.56,0.77,1.15,1.05,1.79c-0.2-0.48-0.4-0.96-0.6-1.43c0.25,0.63,0.42,1.27,0.53,1.93c-0.07-0.53-0.14-1.06-0.21-1.6
					c0.09,0.73,0.09,1.46-0.01,2.19c0.07-0.53,0.14-1.06,0.21-1.6c-0.1,0.65-0.27,1.28-0.52,1.89c0.2-0.48,0.4-0.96,0.6-1.43
					c-0.26,0.61-0.59,1.18-0.98,1.72c0.31-0.4,0.63-0.81,0.94-1.21c-0.42,0.54-0.89,1.02-1.42,1.44c0.4-0.31,0.81-0.63,1.21-0.94
					c-0.57,0.43-1.18,0.78-1.83,1.06c0.48-0.2,0.96-0.4,1.43-0.6c-4.76,1.88-9.58,3.63-14.36,5.44c-0.7,0.26-1.39,0.53-2.09,0.79
					c-1.5,0.57-2.75,1.33-3.59,2.76c-0.75,1.29-1.07,3.18-0.6,4.62c0.92,2.86,4.24,5.38,7.38,4.19c3.57-1.35,7.14-2.7,10.71-4.05
					c1.72-0.65,3.44-1.3,5.16-1.95c3.51-1.33,6.67-3.48,8.3-7c2.08-4.49,2.08-9.97-0.96-14.07c-1.8-2.42-3.94-4.07-6.75-5.18
					c-2.35-0.93-4.86-0.91-7.31-0.52c-2.43,0.39-4.57,1.64-6.44,3.18c-1.92,1.58-3.08,3.72-3.96,5.99
					c-0.48,1.24-0.94,2.49-1.42,3.74c-1.57,4.16-3.15,8.32-4.72,12.48c-0.52,1.38-0.11,3.4,0.6,4.62c0.73,1.24,2.16,2.43,3.59,2.76
					c1.54,0.35,3.26,0.27,4.62-0.6C268.23,194.54,269.03,193.38,269.61,191.85z"/>
			</g>
		</g>
	</g>
</g>
</svg>
