<?xml version="1.0" encoding="utf-8"?>
<!-- Generator: Adobe Illustrator 26.5.0, SVG Export Plug-In . SVG Version: 6.00 Build 0)  -->
<svg version="1.1" id="Layer_1" xmlns="http://www.w3.org/2000/svg" xmlns:xlink="http://www.w3.org/1999/xlink" x="0px" y="0px"
	 viewBox="0 0 1060.03 241.68" style="enable-background:new 0 0 1060.03 241.68;" xml:space="preserve">
<style type="text/css">
	.st0{fill:#B2ACBD;}
	.st1{fill:#F2F4FA;}
</style>
<g>
	<g>
		<g>
			<path class="st0" d="M207.88,61.39c0.46,0,0.92,0,1.38-0.01c-3.5-3.5-7-7-10.5-10.5c0,9.85,0.25,19.74-0.12,29.59
				c-0.21,5.5-0.68,10.99-1.41,16.44c0.13-0.93,0.25-1.86,0.38-2.79c-2.01,14.84-5.97,29.36-11.77,43.17
				c0.35-0.84,0.71-1.67,1.06-2.51c-5.7,13.48-13.12,26.18-22.04,37.77c0.55-0.71,1.09-1.42,1.64-2.13
				c-8.96,11.59-19.38,22.02-30.97,30.98c0.71-0.55,1.42-1.09,2.13-1.64c-9.32,7.17-19.34,13.38-29.92,18.5c3.53,0,7.07,0,10.6,0
				c-10.58-5.12-20.61-11.33-29.93-18.5c0.71,0.55,1.42,1.09,2.13,1.64c-11.59-8.96-22.01-19.38-30.98-30.98
				c0.55,0.71,1.09,1.42,1.64,2.13c-8.93-11.59-16.35-24.3-22.05-37.78c0.35,0.84,0.71,1.67,1.06,2.51
				c-5.8-13.8-9.76-28.33-11.78-43.17c0.13,0.93,0.25,1.86,0.38,2.79c-2.02-15.11-2.02-30.45-0.03-45.56
				c-0.13,0.93-0.25,1.86-0.38,2.79c0.02-0.16,0.04-0.32,0.06-0.47c-3.37,2.57-6.75,5.14-10.12,7.71
				c28.73-0.34,57.32-8.49,81.7-23.76c6.93-4.34,13.51-9.27,19.73-14.58c-4.95,0-9.9,0-14.85,0c10.87,9.28,22.81,17.27,35.78,23.3
				c13.19,6.13,27.05,10.64,41.43,12.89C190.65,60.56,199.25,61.39,207.88,61.39c2.69,0,5.52-1.17,7.42-3.08
				c1.82-1.82,3.19-4.81,3.08-7.42c-0.25-5.69-4.61-10.5-10.5-10.5c-6.65,0-13.3-0.45-19.89-1.33c0.93,0.13,1.86,0.25,2.79,0.38
				c-12.8-1.75-25.32-5.17-37.23-10.17c0.84,0.35,1.67,0.71,2.51,1.06c-11.63-4.92-22.58-11.32-32.59-19.02
				c0.71,0.55,1.42,1.09,2.13,1.64c-1.98-1.53-3.93-3.12-5.84-4.74c-2.06-1.76-4.6-3.2-7.42-3.08c-2.91,0.13-5.21,1.18-7.42,3.08
				c-1.91,1.63-3.87,3.22-5.86,4.76c0.71-0.55,1.42-1.09,2.13-1.64c-10.04,7.72-21.04,14.13-32.7,19.06
				c0.84-0.35,1.67-0.71,2.51-1.06c-11.96,5.01-24.53,8.43-37.38,10.16c0.93-0.13,1.86-0.25,2.79-0.38
				c-5.99,0.79-12.03,1.22-18.07,1.29c-2.35,0.03-4.52,0.83-6.36,2.25c-1.61,1.25-3.48,3.34-3.76,5.45
				C6.83,58.28,6.04,68.47,6.33,78.76c0.23,8.49,1.14,16.96,2.49,25.34c2.51,15.56,7.31,30.54,13.76,44.89
				c6.33,14.08,14.64,27.05,24.31,39.06c9.63,11.97,20.87,22.38,33.17,31.55c5.85,4.36,11.97,8.34,18.33,11.91
				c1.61,0.9,3.23,1.78,4.87,2.63c2.24,1.17,4.58,2.53,6.98,3.3c4.26,1.38,8.41-1.15,12.09-3.06c1.64-0.85,3.26-1.72,4.88-2.62
				c13.35-7.45,25.82-16.74,36.87-27.3c11.05-10.56,20.78-22.65,28.83-35.63c8.15-13.15,14.58-27.49,19.1-42.28
				c4.66-15.27,7.2-31.29,7.69-47.24c0.26-8.55,0.08-17.13,0.08-25.69c0-0.92,0-1.84,0-2.77c0-5.62-4.81-10.58-10.5-10.5
				c-0.46,0.01-0.92,0.01-1.38,0.01c-2.69,0-5.52,1.17-7.42,3.08c-1.82,1.82-3.19,4.81-3.08,7.42
				C197.64,56.57,202,61.39,207.88,61.39z"/>
		</g>
	</g>
	<g>
		<g>
			<g>
				<path class="st1" d="M80.11,63.88c0,3.56,0,7.13,0,10.69c0,8.56,0,17.12,0,25.68c0,10.36,0,20.72,0,31.08
					c0,8.99,0,17.99,0,26.98c0,4.35-0.07,8.7,0,13.05c0,0.06,0,0.12,0,0.18c0,2.69,1.17,5.52,3.08,7.42
					c1.82,1.82,4.81,3.19,7.42,3.08c5.69-0.25,10.5-4.61,10.5-10.5c0-3.56,0-7.13,0-10.69c0-8.56,0-17.12,0-25.68
					c0-10.36,0-20.72,0-31.08c0-8.99,0-17.99,0-26.98c0-4.35,0.07-8.7,0-13.05c0-0.06,0-0.12,0-0.18c0-2.69-1.17-5.52-3.08-7.42
					c-1.82-1.82-4.81-3.19-7.42-3.08C84.92,53.64,80.11,58,80.11,63.88L80.11,63.88z"/>
			</g>
		</g>
		<g>
			<g>
				<path class="st1" d="M120.87,63.88c0,3.56,0,7.13,0,10.69c0,8.56,0,17.12,0,25.68c0,10.36,0,20.72,0,31.08
					c0,8.99,0,17.99,0,26.98c0,4.35-0.07,8.7,0,13.05c0,0.06,0,0.12,0,0.18c0,2.69,1.17,5.52,3.08,7.42
					c1.82,1.82,4.81,3.19,7.42,3.08c5.69-0.25,10.5-4.61,10.5-10.5c0-3.56,0-7.13,0-10.69c0-8.56,0-17.12,0-25.68
					c0-10.36,0-20.72,0-31.08c0-8.99,0-17.99,0-26.98c0-4.35,0.07-8.7,0-13.05c0-0.06,0-0.12,0-0.18c0-2.69-1.17-5.52-3.08-7.42
					c-1.82-1.82-4.81-3.19-7.42-3.08C125.68,53.64,120.87,58,120.87,63.88L120.87,63.88z"/>
			</g>
		</g>
		<g>
			<g>
				<path class="st1" d="M59.81,146.87c3.54,0,7.08,0,10.62,0c8.46,0,16.92,0,25.38,0c10.23,0,20.46,0,30.69,0
					c8.88,0,17.76,0,26.64,0c4.3,0,8.6,0.07,12.9,0c0.06,0,0.12,0,0.18,0c2.69,0,5.52-1.17,7.42-3.08c1.82-1.82,3.19-4.81,3.08-7.42
					c-0.25-5.69-4.61-10.5-10.5-10.5c-3.54,0-7.08,0-10.62,0c-8.46,0-16.92,0-25.38,0c-10.23,0-20.46,0-30.69,0
					c-8.88,0-17.76,0-26.64,0c-4.3,0-8.6-0.07-12.9,0c-0.06,0-0.12,0-0.18,0c-2.69,0-5.52,1.17-7.42,3.08
					c-1.82,1.82-3.19,4.81-3.08,7.42C49.56,142.06,53.92,146.87,59.81,146.87L59.81,146.87z"/>
			</g>
		</g>
		<g>
			<g>
				<path class="st1" d="M59.81,106.12c3.54,0,7.08,0,10.62,0c8.46,0,16.92,0,25.38,0c10.23,0,20.46,0,30.69,0
					c8.88,0,17.76,0,26.64,0c4.3,0,8.6,0.07,12.9,0c0.06,0,0.12,0,0.18,0c2.69,0,5.52-1.17,7.42-3.08c1.82-1.82,3.19-4.81,3.08-7.42
					c-0.25-5.69-4.61-10.5-10.5-10.5c-3.54,0-7.08,0-10.62,0c-8.46,0-16.92,0-25.38,0c-10.23,0-20.46,0-30.69,0
					c-8.88,0-17.76,0-26.64,0c-4.3,0-8.6-0.07-12.9,0c-0.06,0-0.12,0-0.18,0c-2.69,0-5.52,1.17-7.42,3.08
					c-1.82,1.82-3.19,4.81-3.08,7.42C49.56,101.31,53.92,106.12,59.81,106.12L59.81,106.12z"/>
			</g>
		</g>
	</g>
	<g>
		<g>
			<path class="st0" d="M290.52,114.91h46.16v57.65c-5.51,1.9-11.83,3.45-18.95,4.65c-7.12,1.19-14.58,1.79-22.39,1.79
				c-10.29,0-19.31-2-27.07-6c-7.75-4-13.8-10.08-18.14-18.25c-4.34-8.17-6.51-18.5-6.51-30.98c0-11.22,2.15-20.91,6.44-29.08
				c4.29-8.17,10.62-14.48,18.98-18.95c8.36-4.46,18.62-6.69,30.76-6.69c6.68,0,13.02,0.63,19.02,1.9c6,1.27,11.22,2.88,15.66,4.83
				l-9.15,22.68c-3.85-1.9-7.85-3.33-12-4.28c-4.15-0.95-8.61-1.43-13.39-1.43c-6.39,0-11.52,1.44-15.4,4.32
				c-3.88,2.88-6.69,6.72-8.45,11.52c-1.76,4.8-2.63,10.11-2.63,15.91c0,6.63,0.94,12.23,2.82,16.79c1.88,4.56,4.63,8.02,8.27,10.39
				c3.63,2.37,8.03,3.55,13.21,3.55c1.71,0,3.79-0.12,6.25-0.37c2.46-0.24,4.33-0.54,5.6-0.88v-16.75h-19.09V114.91z"/>
			<path class="st0" d="M410.59,93.18c1.56,0,3.19,0.11,4.9,0.33c1.71,0.22,2.97,0.4,3.8,0.55l-2.56,27
				c-0.93-0.24-2.12-0.45-3.58-0.62c-1.46-0.17-3.51-0.26-6.15-0.26c-1.81,0-3.73,0.17-5.78,0.51c-2.05,0.34-3.99,1.06-5.82,2.16
				c-1.83,1.1-3.33,2.76-4.5,4.97c-1.17,2.22-1.76,5.21-1.76,8.96v40.75h-28.6V94.65h21.29l4.46,13.24h1.39
				c1.51-2.73,3.45-5.21,5.82-7.43c2.37-2.22,5.02-3.99,7.97-5.3C404.43,93.84,407.47,93.18,410.59,93.18z"/>
			<path class="st0" d="M449.16,61.29c4.1,0,7.67,0.85,10.72,2.56c3.05,1.71,4.57,5.1,4.57,10.17c0,4.93-1.52,8.25-4.57,9.99
				c-3.05,1.73-6.62,2.6-10.72,2.6c-4.19,0-7.77-0.87-10.72-2.6c-2.95-1.73-4.43-5.06-4.43-9.99c0-5.07,1.47-8.46,4.43-10.17
				C441.39,62.14,444.96,61.29,449.16,61.29z M463.35,94.65v82.89h-28.6V94.65H463.35z"/>
			<path class="st0" d="M512.82,178.99c-8.54,0-15.56-3.63-21.07-10.9c-5.51-7.27-8.27-17.9-8.27-31.9
				c0-14.14,2.83-24.85,8.49-32.12c5.66-7.27,12.97-10.9,21.95-10.9c3.71,0,6.9,0.54,9.58,1.61c2.68,1.07,5.01,2.52,6.99,4.35
				c1.97,1.83,3.69,3.89,5.16,6.18h0.58c-0.34-2.1-0.66-4.99-0.95-8.67c-0.29-3.68-0.44-7.28-0.44-10.79V63.7h28.82v113.83h-21.58
				l-6.14-10.46h-1.1c-1.32,2.19-2.96,4.2-4.94,6c-1.97,1.8-4.37,3.24-7.17,4.32C519.92,178.46,516.62,178.99,512.82,178.99z
				 M524.52,156.39c4.58,0,7.82-1.45,9.69-4.35c1.88-2.9,2.89-7.33,3.04-13.28v-2.27c0-6.54-0.91-11.55-2.74-15.03
				c-1.83-3.49-5.26-5.23-10.28-5.23c-3.42,0-6.24,1.66-8.49,4.97c-2.24,3.32-3.37,8.46-3.37,15.44c0,6.88,1.13,11.89,3.4,15.03
				C518.05,154.82,520.96,156.39,524.52,156.39z"/>
			<path class="st0" d="M631.78,114.91h46.16v57.65c-5.51,1.9-11.83,3.45-18.95,4.65c-7.12,1.19-14.58,1.79-22.39,1.79
				c-10.29,0-19.31-2-27.07-6c-7.75-4-13.8-10.08-18.14-18.25c-4.34-8.17-6.51-18.5-6.51-30.98c0-11.22,2.15-20.91,6.44-29.08
				c4.29-8.17,10.62-14.48,18.98-18.95c8.36-4.46,18.62-6.69,30.76-6.69c6.68,0,13.02,0.63,19.02,1.9c6,1.27,11.22,2.88,15.66,4.83
				l-9.14,22.68c-3.85-1.9-7.85-3.33-12-4.28c-4.15-0.95-8.61-1.43-13.39-1.43c-6.39,0-11.52,1.44-15.4,4.32
				c-3.88,2.88-6.69,6.72-8.45,11.52c-1.76,4.8-2.63,10.11-2.63,15.91c0,6.63,0.94,12.23,2.82,16.79c1.88,4.56,4.63,8.02,8.27,10.39
				c3.63,2.37,8.04,3.55,13.21,3.55c1.71,0,3.79-0.12,6.25-0.37c2.46-0.24,4.33-0.54,5.6-0.88v-16.75h-19.09V114.91z"/>
			<path class="st0" d="M782.43,94.65v82.89h-21.58l-3.58-10.31h-1.68c-1.71,2.78-3.87,5.04-6.47,6.77c-2.61,1.73-5.5,3-8.67,3.8
				c-3.17,0.8-6.46,1.21-9.88,1.21c-5.41,0-10.3-1.05-14.67-3.15c-4.37-2.1-7.83-5.39-10.39-9.88c-2.56-4.49-3.84-10.27-3.84-17.34
				V94.65h28.6v45.28c0,5.37,0.77,9.45,2.3,12.25c1.54,2.81,4.06,4.21,7.57,4.21c3.61,0,6.4-0.98,8.38-2.93
				c1.97-1.95,3.35-4.83,4.13-8.63c0.78-3.8,1.17-8.44,1.17-13.9V94.65H782.43z"/>
			<path class="st0" d="M846.38,93.18c10.49,0,18.68,2.6,24.58,7.79c5.9,5.19,8.85,12.6,8.85,22.2v54.35h-19.83l-5.49-10.97h-0.58
				c-2.34,2.93-4.74,5.3-7.21,7.13c-2.46,1.83-5.28,3.17-8.45,4.02c-3.17,0.85-7.05,1.28-11.63,1.28c-4.78,0-9.07-0.98-12.88-2.93
				c-3.8-1.95-6.8-4.9-9-8.85c-2.2-3.95-3.29-8.95-3.29-15c0-8.88,3.07-15.46,9.22-19.75c6.15-4.29,15.05-6.71,26.7-7.24l13.83-0.44
				v-1.17c0-3.71-0.92-6.34-2.74-7.9c-1.83-1.56-4.28-2.34-7.35-2.34c-3.27,0-6.91,0.57-10.94,1.72c-4.02,1.15-8.06,2.62-12.11,4.43
				l-8.27-18.87c4.78-2.44,10.19-4.29,16.24-5.56C832.09,93.82,838.87,93.18,846.38,93.18z M851.36,140.51l-6.58,0.29
				c-5.27,0.2-8.96,1.11-11.08,2.74c-2.12,1.63-3.18,3.96-3.18,6.99c0,2.83,0.75,4.91,2.27,6.25c1.51,1.34,3.51,2.01,6,2.01
				c3.46,0,6.42-1.1,8.89-3.29c2.46-2.19,3.69-5.05,3.69-8.56V140.51z"/>
			<path class="st0" d="M953.06,93.18c1.56,0,3.19,0.11,4.9,0.33c1.71,0.22,2.97,0.4,3.8,0.55l-2.56,27
				c-0.93-0.24-2.12-0.45-3.58-0.62c-1.46-0.17-3.51-0.26-6.15-0.26c-1.8,0-3.73,0.17-5.78,0.51c-2.05,0.34-3.99,1.06-5.82,2.16
				c-1.83,1.1-3.33,2.76-4.5,4.97c-1.17,2.22-1.76,5.21-1.76,8.96v40.75h-28.6V94.65h21.29l4.46,13.24h1.39
				c1.51-2.73,3.45-5.21,5.82-7.43c2.37-2.22,5.02-3.99,7.97-5.3S949.94,93.18,953.06,93.18z"/>
			<path class="st0" d="M1002.82,178.99c-8.54,0-15.56-3.63-21.07-10.9c-5.51-7.27-8.27-17.9-8.27-31.9
				c0-14.14,2.83-24.85,8.49-32.12c5.66-7.27,12.97-10.9,21.95-10.9c3.71,0,6.9,0.54,9.58,1.61c2.68,1.07,5.01,2.52,6.99,4.35
				c1.97,1.83,3.69,3.89,5.16,6.18h0.58c-0.34-2.1-0.66-4.99-0.95-8.67c-0.29-3.68-0.44-7.28-0.44-10.79V63.7h28.82v113.83h-21.58
				l-6.15-10.46h-1.1c-1.32,2.19-2.96,4.2-4.94,6c-1.97,1.8-4.37,3.24-7.17,4.32C1009.93,178.46,1006.62,178.99,1002.82,178.99z
				 M1014.52,156.39c4.58,0,7.82-1.45,9.69-4.35c1.88-2.9,2.89-7.33,3.04-13.28v-2.27c0-6.54-0.92-11.55-2.74-15.03
				c-1.83-3.49-5.26-5.23-10.28-5.23c-3.42,0-6.24,1.66-8.49,4.97c-2.24,3.32-3.37,8.46-3.37,15.44c0,6.88,1.13,11.89,3.4,15.03
				C1008.05,154.82,1010.96,156.39,1014.52,156.39z"/>
		</g>
	</g>
</g>
</svg>
