<?xml version="1.0" encoding="utf-8"?>
<!-- Generator: Adobe Illustrator 26.5.0, SVG Export Plug-In . SVG Version: 6.00 Build 0)  -->
<svg version="1.1" id="Layer_1" xmlns="http://www.w3.org/2000/svg" xmlns:xlink="http://www.w3.org/1999/xlink" x="0px" y="0px"
	 viewBox="0 0 1104.63 237.79" style="enable-background:new 0 0 1104.63 237.79;" xml:space="preserve">
<style type="text/css">
	.st0{fill:#3C445B;}
	.st1{fill:#F2F4FA;}
	.st2{fill:#B2ACBD;}
	.st3{fill:#7BAE97;}
	.st4{fill:#B3ADBD;}
</style>
<g>
	<g>
		<g>
			<path class="st1" d="M353.16,115.8h42.43v55.45c-5.61,1.85-11.44,3.33-17.48,4.43c-6.05,1.1-12.9,1.65-20.56,1.65
				c-10.63,0-19.66-2.1-27.07-6.29c-7.41-4.19-13.05-10.39-16.9-18.58c-3.85-8.19-5.78-18.26-5.78-30.21
				c0-11.22,2.16-20.92,6.47-29.12c4.32-8.19,10.63-14.53,18.95-19.02c8.31-4.49,18.47-6.73,30.47-6.73
				c5.66,0,11.24,0.61,16.75,1.83c5.51,1.22,10.51,2.81,15,4.76l-7.54,18.14c-3.27-1.66-7-3.05-11.19-4.17
				c-4.2-1.12-8.58-1.68-13.17-1.68c-6.58,0-12.3,1.51-17.16,4.54c-4.85,3.02-8.61,7.26-11.27,12.69
				c-2.66,5.44-3.99,11.84-3.99,19.2c0,6.98,0.95,13.16,2.85,18.54c1.9,5.39,4.9,9.61,9,12.66c4.1,3.05,9.44,4.57,16.02,4.57
				c3.22,0,5.94-0.16,8.16-0.48c2.22-0.32,4.3-0.65,6.25-0.99v-22.31h-20.26V115.8z"/>
			<path class="st1" d="M467.19,92.54c1.12,0,2.43,0.06,3.91,0.18c1.49,0.12,2.69,0.28,3.62,0.48l-1.68,20.92
				c-0.73-0.24-1.77-0.43-3.11-0.55c-1.34-0.12-2.5-0.18-3.48-0.18c-2.88,0-5.67,0.37-8.38,1.1c-2.71,0.73-5.13,1.92-7.28,3.55
				c-2.15,1.63-3.84,3.78-5.08,6.44c-1.24,2.66-1.87,5.91-1.87,9.77v41.63h-22.31V94.07h16.9l3.29,13.75h1.1
				c1.61-2.78,3.62-5.33,6.04-7.64c2.41-2.32,5.17-4.17,8.27-5.56C460.22,93.23,463.58,92.54,467.19,92.54z"/>
			<path class="st1" d="M503.01,62.03c3.32,0,6.17,0.77,8.56,2.3c2.39,1.54,3.58,4.4,3.58,8.6c0,4.15-1.2,7.01-3.58,8.6
				c-2.39,1.59-5.24,2.38-8.56,2.38c-3.37,0-6.23-0.79-8.6-2.38c-2.37-1.58-3.55-4.45-3.55-8.6c0-4.19,1.18-7.06,3.55-8.6
				C496.78,62.8,499.65,62.03,503.01,62.03z M514.13,94.07v81.79h-22.31V94.07H514.13z"/>
			<path class="st1" d="M565.69,177.32c-9.12,0-16.55-3.57-22.28-10.72c-5.73-7.14-8.6-17.64-8.6-31.49c0-14,2.9-24.59,8.71-31.79
				c5.8-7.19,13.39-10.79,22.75-10.79c3.9,0,7.34,0.54,10.32,1.61c2.97,1.07,5.55,2.51,7.72,4.32c2.17,1.8,4.01,3.83,5.52,6.07h0.73
				c-0.29-1.56-0.65-3.86-1.06-6.91c-0.42-3.05-0.62-6.18-0.62-9.4V62.03h22.39v113.83h-17.12l-4.32-10.61h-0.95
				c-1.42,2.24-3.18,4.28-5.3,6.11c-2.12,1.83-4.65,3.28-7.57,4.35C573.08,176.79,569.64,177.32,565.69,177.32z M573.52,159.55
				c6.1,0,10.4-1.82,12.91-5.45c2.51-3.63,3.84-9.11,3.99-16.42v-2.41c0-7.95-1.22-14.03-3.66-18.25
				c-2.44-4.22-6.98-6.33-13.61-6.33c-4.93,0-8.78,2.12-11.56,6.36s-4.17,10.36-4.17,18.36c0,8,1.4,14.02,4.21,18.07
				C564.43,157.52,568.39,159.55,573.52,159.55z"/>
			<path class="st1" d="M679.21,115.8h42.43v55.45c-5.61,1.85-11.44,3.33-17.48,4.43c-6.05,1.1-12.9,1.65-20.56,1.65
				c-10.63,0-19.66-2.1-27.07-6.29c-7.41-4.19-13.05-10.39-16.9-18.58c-3.85-8.19-5.78-18.26-5.78-30.21
				c0-11.22,2.16-20.92,6.47-29.12c4.32-8.19,10.63-14.53,18.95-19.02c8.31-4.49,18.47-6.73,30.47-6.73
				c5.66,0,11.24,0.61,16.75,1.83c5.51,1.22,10.51,2.81,15,4.76l-7.54,18.14c-3.27-1.66-7-3.05-11.19-4.17
				c-4.2-1.12-8.58-1.68-13.17-1.68c-6.58,0-12.3,1.51-17.15,4.54c-4.85,3.02-8.61,7.26-11.27,12.69
				c-2.66,5.44-3.99,11.84-3.99,19.2c0,6.98,0.95,13.16,2.85,18.54c1.9,5.39,4.9,9.61,9,12.66c4.1,3.05,9.44,4.57,16.02,4.57
				c3.22,0,5.94-0.16,8.16-0.48c2.22-0.32,4.3-0.65,6.26-0.99v-22.31h-20.27V115.8z"/>
			<path class="st1" d="M822.64,94.07v81.79h-17.12l-3-10.46h-1.17c-1.76,2.78-3.95,5.05-6.58,6.8s-5.54,3.05-8.71,3.88
				c-3.17,0.83-6.46,1.24-9.88,1.24c-5.85,0-10.95-1.04-15.29-3.11c-4.34-2.07-7.72-5.3-10.13-9.69c-2.41-4.39-3.62-10.1-3.62-17.12
				V94.07h22.31v47.77c0,5.85,1.05,10.27,3.15,13.24c2.1,2.98,5.44,4.46,10.02,4.46c4.54,0,8.09-1.04,10.68-3.11
				c2.58-2.07,4.4-5.12,5.45-9.14c1.05-4.02,1.57-8.94,1.57-14.74V94.07H822.64z"/>
			<path class="st1" d="M881.81,92.39c10.97,0,19.39,2.39,25.24,7.17c5.85,4.78,8.78,12.05,8.78,21.8v54.5h-15.58l-4.32-11.12h-0.59
				c-2.34,2.93-4.73,5.32-7.17,7.17c-2.44,1.85-5.24,3.22-8.41,4.1c-3.17,0.88-7.02,1.32-11.56,1.32c-4.83,0-9.16-0.93-12.99-2.78
				c-3.83-1.85-6.84-4.69-9.04-8.52c-2.19-3.83-3.29-8.69-3.29-14.59c0-8.68,3.05-15.08,9.14-19.2c6.1-4.12,15.24-6.4,27.43-6.84
				l14.19-0.44v-3.58c0-4.29-1.12-7.44-3.36-9.44c-2.24-2-5.37-3-9.36-3c-3.95,0-7.83,0.56-11.63,1.68
				c-3.8,1.12-7.61,2.54-11.41,4.24l-7.39-15.07c4.34-2.29,9.21-4.1,14.59-5.41C870.48,93.05,876.05,92.39,881.81,92.39z
				 M893.66,137.97l-8.63,0.29c-7.22,0.2-12.23,1.49-15.03,3.88c-2.8,2.39-4.21,5.54-4.21,9.44c0,3.41,1,5.84,3,7.28
				c2,1.44,4.61,2.16,7.83,2.16c4.78,0,8.82-1.41,12.11-4.24c3.29-2.83,4.94-6.85,4.94-12.07V137.97z"/>
			<path class="st1" d="M986.69,92.54c1.12,0,2.43,0.06,3.91,0.18c1.49,0.12,2.69,0.28,3.62,0.48l-1.68,20.92
				c-0.73-0.24-1.77-0.43-3.11-0.55c-1.34-0.12-2.5-0.18-3.47-0.18c-2.88,0-5.67,0.37-8.38,1.1c-2.71,0.73-5.13,1.92-7.28,3.55
				c-2.15,1.63-3.84,3.78-5.08,6.44c-1.24,2.66-1.87,5.91-1.87,9.77v41.63h-22.31V94.07h16.9l3.29,13.75h1.1
				c1.61-2.78,3.62-5.33,6.04-7.64c2.41-2.32,5.17-4.17,8.27-5.56C979.73,93.23,983.08,92.54,986.69,92.54z"/>
			<path class="st1" d="M1037.22,177.32c-9.12,0-16.55-3.57-22.28-10.72c-5.73-7.14-8.6-17.64-8.6-31.49c0-14,2.9-24.59,8.71-31.79
				c5.8-7.19,13.39-10.79,22.75-10.79c3.9,0,7.34,0.54,10.32,1.61c2.97,1.07,5.55,2.51,7.72,4.32c2.17,1.8,4.01,3.83,5.52,6.07h0.73
				c-0.29-1.56-0.65-3.86-1.06-6.91c-0.42-3.05-0.62-6.18-0.62-9.4V62.03h22.39v113.83h-17.12l-4.32-10.61h-0.95
				c-1.42,2.24-3.18,4.28-5.3,6.11c-2.12,1.83-4.65,3.28-7.57,4.35C1044.61,176.79,1041.17,177.32,1037.22,177.32z M1045.05,159.55
				c6.1,0,10.4-1.82,12.91-5.45c2.51-3.63,3.84-9.11,3.99-16.42v-2.41c0-7.95-1.22-14.03-3.66-18.25
				c-2.44-4.22-6.98-6.33-13.61-6.33c-4.93,0-8.78,2.12-11.56,6.36c-2.78,4.24-4.17,10.36-4.17,18.36c0,8,1.4,14.02,4.21,18.07
				C1035.97,157.52,1039.93,159.55,1045.05,159.55z"/>
		</g>
	</g>
</g>
<g>
	<g>
		<polygon class="st4" points="143.81,16.44 76.6,124.22 108.81,144.3 111.08,216.73 178.53,108.57 145.35,87.88 		"/>
	</g>
	<g>
		<g>
			<path class="st4" d="M147.51,157.83c-7.52-4.69-15.03-9.37-22.55-14.06c-11.88-7.41-23.77-14.82-35.65-22.23
				c-2.72-1.7-5.44-3.39-8.16-5.09c1.08,4.1,2.15,8.21,3.23,12.31c4.02-6.45,8.04-12.9,12.06-19.35c6.36-10.2,12.72-20.4,19.08-30.6
				c1.47-2.36,2.94-4.72,4.42-7.08c-4.1,1.08-8.21,2.15-12.31,3.23c7.52,4.69,15.03,9.37,22.55,14.06
				c11.88,7.41,23.77,14.82,35.65,22.23c2.72,1.7,5.44,3.39,8.16,5.09c-1.08-4.1-2.15-8.21-3.23-12.31
				c-4.02,6.45-8.04,12.9-12.06,19.35c-6.36,10.2-12.72,20.4-19.08,30.6c-1.47,2.36-2.94,4.72-4.42,7.08
				c-2.49,4-0.98,10.09,3.23,12.31c4.42,2.33,9.65,1.04,12.31-3.23c4.02-6.45,8.04-12.9,12.06-19.35
				c6.36-10.2,12.72-20.4,19.08-30.6c1.47-2.36,2.94-4.72,4.42-7.08c2.63-4.21,0.81-9.8-3.23-12.31
				c-7.52-4.69-15.03-9.37-22.55-14.06c-11.88-7.41-23.77-14.82-35.65-22.23c-2.72-1.7-5.44-3.39-8.16-5.09
				c-4.21-2.63-9.8-0.81-12.31,3.23c-4.02,6.45-8.04,12.9-12.06,19.35c-6.36,10.2-12.72,20.4-19.08,30.6
				c-1.47,2.36-2.94,4.72-4.42,7.08c-2.63,4.21-0.81,9.8,3.23,12.31c7.52,4.69,15.03,9.37,22.55,14.06
				c11.88,7.41,23.77,14.82,35.65,22.23c2.72,1.7,5.44,3.39,8.16,5.09c4,2.49,10.09,0.98,12.31-3.23
				C153.07,165.72,151.78,160.49,147.51,157.83z"/>
		</g>
	</g>
	<g>
		<g>
			<path class="st4" d="M136.04,11.9c-0.89,1.42-1.77,2.85-2.66,4.27c-2.4,3.85-4.8,7.7-7.2,11.55
				c-3.55,5.69-7.09,11.37-10.64,17.06c-4.35,6.97-8.69,13.94-13.04,20.91c-4.74,7.6-9.48,15.2-14.22,22.81
				c-4.81,7.71-9.61,15.42-14.42,23.13c-4.46,7.16-8.92,14.31-13.39,21.47c-3.79,6.07-7.58,12.15-11.36,18.22
				c-2.71,4.35-5.42,8.69-8.13,13.04c-1.29,2.06-2.6,4.11-3.86,6.19c-0.05,0.09-0.11,0.18-0.17,0.27c-2.49,4-0.98,10.09,3.23,12.31
				c4.42,2.33,9.65,1.04,12.31-3.23c0.89-1.42,1.77-2.85,2.66-4.27c2.4-3.85,4.8-7.7,7.2-11.55c3.55-5.69,7.09-11.37,10.64-17.06
				c4.35-6.97,8.69-13.94,13.04-20.91c4.74-7.6,9.48-15.2,14.22-22.81c4.81-7.71,9.61-15.42,14.42-23.13
				c4.46-7.16,8.92-14.31,13.39-21.47c3.79-6.07,7.58-12.15,11.36-18.22c2.71-4.35,5.42-8.69,8.13-13.04
				c1.29-2.06,2.6-4.11,3.86-6.19c0.05-0.09,0.11-0.18,0.17-0.27c2.49-4,0.98-10.09-3.23-12.31C143.94,6.33,138.7,7.63,136.04,11.9
				L136.04,11.9z"/>
		</g>
	</g>
	<g>
		<g>
			<path class="st4" d="M118.85,221.27c0.89-1.42,1.77-2.85,2.66-4.27c2.4-3.85,4.8-7.7,7.2-11.55c3.55-5.69,7.09-11.37,10.64-17.06
				c4.35-6.97,8.69-13.94,13.04-20.91c4.74-7.6,9.48-15.2,14.22-22.81c4.81-7.71,9.61-15.42,14.42-23.13
				c4.46-7.16,8.92-14.31,13.39-21.47c3.79-6.07,7.58-12.15,11.36-18.22c2.71-4.35,5.42-8.69,8.13-13.04
				c1.29-2.06,2.6-4.11,3.86-6.19c0.05-0.09,0.11-0.18,0.17-0.27c2.49-4,0.98-10.09-3.23-12.31c-4.42-2.33-9.65-1.04-12.31,3.23
				c-0.89,1.42-1.77,2.85-2.66,4.27c-2.4,3.85-4.8,7.7-7.2,11.55c-3.55,5.69-7.09,11.37-10.64,17.06
				c-4.35,6.97-8.69,13.94-13.04,20.91c-4.74,7.6-9.48,15.2-14.22,22.81c-4.81,7.71-9.61,15.42-14.42,23.13
				c-4.46,7.16-8.92,14.31-13.39,21.47c-3.79,6.07-7.58,12.15-11.36,18.22c-2.71,4.35-5.42,8.69-8.13,13.04
				c-1.29,2.06-2.6,4.11-3.86,6.19c-0.05,0.09-0.11,0.18-0.17,0.27c-2.49,4-0.98,10.09,3.23,12.31
				C110.96,226.84,116.19,225.54,118.85,221.27L118.85,221.27z"/>
		</g>
	</g>
	<g>
		<g>
			<path class="st4" d="M58.83,44.53c1.45,0.9,2.89,1.8,4.34,2.71c3.94,2.45,7.87,4.91,11.81,7.36c5.79,3.61,11.58,7.22,17.38,10.84
				c7.1,4.43,14.19,8.85,21.29,13.28c7.77,4.85,15.55,9.7,23.32,14.54c7.81,4.87,15.63,9.74,23.44,14.62
				c7.32,4.56,14.64,9.13,21.96,13.69c6.19,3.86,12.37,7.71,18.56,11.57c4.45,2.77,8.89,5.54,13.34,8.32
				c2.1,1.31,4.18,2.65,6.3,3.93c0.09,0.06,0.18,0.11,0.28,0.17c4,2.49,10.09,0.98,12.31-3.23c2.33-4.42,1.04-9.65-3.23-12.31
				c-1.45-0.9-2.89-1.8-4.34-2.71c-3.94-2.45-7.87-4.91-11.81-7.36c-5.79-3.61-11.58-7.22-17.38-10.84
				c-7.1-4.43-14.19-8.85-21.29-13.28c-7.77-4.85-15.55-9.7-23.32-14.54c-7.81-4.87-15.63-9.74-23.44-14.62
				c-7.32-4.56-14.64-9.13-21.96-13.69c-6.19-3.86-12.37-7.71-18.56-11.57c-4.45-2.77-8.89-5.54-13.34-8.32
				c-2.1-1.31-4.18-2.65-6.3-3.93c-0.09-0.06-0.18-0.11-0.28-0.17c-4-2.49-10.09-0.98-12.31,3.23
				C53.27,36.63,54.56,41.87,58.83,44.53L58.83,44.53z"/>
		</g>
	</g>
	<g>
		<g>
			<path class="st4" d="M23.27,101.56c1.45,0.9,2.89,1.8,4.34,2.71c3.94,2.45,7.87,4.91,11.81,7.36
				c5.79,3.61,11.58,7.22,17.38,10.84c7.1,4.43,14.19,8.85,21.29,13.28c7.77,4.85,15.55,9.7,23.32,14.54
				c7.81,4.87,15.63,9.74,23.44,14.62c7.32,4.56,14.64,9.13,21.96,13.69c6.19,3.86,12.37,7.71,18.56,11.57
				c4.45,2.77,8.89,5.54,13.34,8.32c2.1,1.31,4.18,2.65,6.3,3.93c0.09,0.06,0.18,0.11,0.28,0.17c4,2.49,10.09,0.98,12.31-3.23
				c2.33-4.42,1.04-9.65-3.23-12.31c-1.45-0.9-2.89-1.8-4.34-2.71c-3.94-2.45-7.87-4.91-11.81-7.36
				c-5.79-3.61-11.58-7.22-17.38-10.84c-7.1-4.43-14.19-8.85-21.29-13.28c-7.77-4.85-15.55-9.7-23.32-14.54
				c-7.81-4.87-15.63-9.74-23.44-14.62c-7.32-4.56-14.64-9.13-21.96-13.69c-6.19-3.86-12.37-7.71-18.56-11.57
				c-4.45-2.77-8.89-5.54-13.34-8.32c-2.1-1.31-4.18-2.65-6.3-3.93c-0.09-0.06-0.18-0.11-0.28-0.17c-4-2.49-10.09-0.98-12.31,3.23
				C17.7,93.66,19,98.9,23.27,101.56L23.27,101.56z"/>
		</g>
	</g>
	<g>
		<polygon class="st1" points="143.81,16.44 76.6,124.22 108.81,144.3 111.08,216.73 178.53,108.57 145.35,87.88 		"/>
		<g>
			<path class="st1" d="M136.04,11.9c-2.23,3.57-4.46,7.15-6.69,10.72c-5.35,8.58-10.71,17.17-16.06,25.75
				c-6.48,10.38-12.95,20.77-19.43,31.15c-5.6,8.97-11.19,17.94-16.79,26.92c-2.71,4.35-5.52,8.65-8.14,13.05
				c-0.04,0.06-0.07,0.12-0.11,0.18c-2.63,4.21-0.81,9.8,3.23,12.31c9.41,5.87,18.83,11.74,28.24,17.61
				c1.32,0.82,2.64,1.65,3.97,2.47c-1.49-2.59-2.97-5.18-4.46-7.77c0.26,8.18,0.51,16.36,0.77,24.54
				c0.41,12.98,0.81,25.97,1.22,38.95c0.09,2.98,0.19,5.96,0.28,8.94c0.12,3.82,2.7,7.79,6.61,8.68c3.98,0.91,7.98-0.63,10.16-4.14
				c2.24-3.59,4.48-7.19,6.72-10.78c5.38-8.63,10.76-17.25,16.14-25.88c6.48-10.39,12.96-20.79,19.45-31.18
				c5.61-8.99,11.21-17.98,16.82-26.97c2.74-4.39,5.57-8.73,8.21-13.17c0.04-0.06,0.08-0.12,0.12-0.19
				c2.63-4.21,0.81-9.8-3.23-12.31c-9.68-6.03-19.35-12.07-29.03-18.1c-1.38-0.86-2.77-1.73-4.15-2.59
				c1.49,2.59,2.97,5.18,4.46,7.77c-0.17-8.1-0.35-16.19-0.52-24.29c-0.27-12.79-0.55-25.58-0.82-38.37
				c-0.06-2.93-0.13-5.86-0.19-8.79c-0.1-4.7-4.07-9.22-9-9c-4.79,0.21-9.11,3.96-9,9c0.11,5.27,0.23,10.54,0.34,15.81
				c0.22,10.45,0.45,20.9,0.67,31.34c0.16,7.57,0.33,15.14,0.49,22.7c0.01,0.52,0,1.04,0.03,1.55c0.19,3.36,1.72,6.03,4.54,7.85
				c0.28,0.18,0.56,0.35,0.84,0.53c3.21,2,6.43,4.01,9.64,6.01c7.39,4.61,14.78,9.22,22.17,13.82c0.15,0.09,0.29,0.18,0.44,0.27
				c-1.08-4.1-2.15-8.21-3.23-12.31c-2.24,3.59-4.48,7.19-6.72,10.78c-5.38,8.63-10.76,17.25-16.14,25.88
				c-6.48,10.39-12.96,20.79-19.45,31.18c-5.61,8.99-11.21,17.98-16.82,26.97c-2.74,4.39-5.57,8.73-8.21,13.17
				c-0.04,0.06-0.08,0.12-0.12,0.19c5.59,1.51,11.18,3.03,16.77,4.54c-0.16-5.18-0.32-10.36-0.49-15.54
				c-0.33-10.43-0.65-20.85-0.98-31.28c-0.25-7.83-0.49-15.66-0.74-23.5c-0.02-0.65-0.03-1.31-0.06-1.96
				c-0.18-3.35-1.63-6.09-4.46-7.93c-0.16-0.1-0.32-0.2-0.48-0.3c-3.01-1.87-6.01-3.75-9.02-5.62c-7.42-4.63-14.83-9.25-22.25-13.88
				c-0.15-0.09-0.3-0.19-0.45-0.28c1.08,4.1,2.15,8.21,3.23,12.31c2.23-3.57,4.46-7.15,6.69-10.72
				c5.35-8.58,10.71-17.17,16.06-25.75c6.48-10.38,12.95-20.77,19.43-31.15c5.6-8.97,11.19-17.94,16.79-26.92
				c2.71-4.35,5.52-8.65,8.14-13.05c0.04-0.06,0.07-0.12,0.11-0.18c2.49-4,0.98-10.09-3.23-12.31
				C143.94,6.33,138.7,7.63,136.04,11.9z"/>
		</g>
	</g>
</g>
</svg>
