<?xml version="1.0" encoding="utf-8"?>
<!-- Generator: Adobe Illustrator 26.5.0, SVG Export Plug-In . SVG Version: 6.00 Build 0)  -->
<svg version="1.1" id="Layer_1" xmlns="http://www.w3.org/2000/svg" xmlns:xlink="http://www.w3.org/1999/xlink" x="0px" y="0px"
	 viewBox="0 0 443.09 443.09" style="enable-background:new 0 0 443.09 443.09;" xml:space="preserve">
<style type="text/css">
	.st0{fill:#3C445B;}
</style>
<g>
	<g>
		<g>
			<path class="st0" d="M389.46,337.81c-2.19,0-4.38,0-6.57,0c-6.02,0-12.04,0-18.06,0c-9.14,0-18.28,0-27.42,0
				c-11.41,0-22.83,0-34.24,0c-13.02,0-26.04,0-39.06,0c-13.81,0-27.62,0-41.44,0c-13.77,0-27.54,0-41.32,0
				c-13.09,0-26.18,0-39.26,0c-11.57,0-23.14,0-34.71,0c-9.25,0-18.5,0-27.75,0c-6.24,0-12.48,0-18.72,0c-2.41,0-4.83,0.03-7.25,0
				c-0.1,0-0.19,0-0.29,0c-0.61-0.01-1.2-0.06-1.81-0.11c1.19,0.09-0.2-0.06-0.66-0.17c-0.57-0.13-1.13-0.29-1.68-0.47
				c-0.23-0.08-0.47-0.19-0.7-0.25c-0.83-0.22,0.79,0.47,0.07,0.03c-0.96-0.59-1.97-1.17-2.95-1.73c-0.73-0.42,0.64,0.65,0.06,0.04
				c-0.17-0.17-0.37-0.32-0.55-0.48c-0.42-0.38-0.82-0.78-1.21-1.2c-0.15-0.17-1.04-1.23-0.63-0.7c0.47,0.61-0.15-0.22-0.25-0.38
				c-0.18-0.27-0.36-0.54-0.53-0.82c-0.3-0.49-0.55-1-0.82-1.51c-0.05-0.1-0.38-0.85-0.1-0.18c0.31,0.72-0.09-0.26-0.15-0.44
				c-0.15-0.48-0.31-0.95-0.43-1.43c-0.08-0.32-0.16-0.65-0.23-0.98c-0.03-0.13-0.21-1.21-0.1-0.46c0.09,0.64-0.06-0.92-0.07-1.26
				c0-0.17-0.01-0.36-0.01-0.53c0-0.02,0-0.05,0-0.07c0-0.14,0-0.27,0-0.41c0-0.6,0-1.2,0-1.79c0-6.18,0-12.37,0-18.55
				c0-10.69,0-21.37,0-32.06c0-13.28,0-26.56,0-39.84c0-13.76,0-27.52,0-41.27c0-12.36,0-24.71,0-37.07c0-8.88,0-17.75,0-26.63
				c0-3.38-0.04-6.77,0-10.15c0.01-0.61,0.07-1.21,0.09-1.81c0.02-0.7-0.03,0.24-0.05,0.33c0.07-0.33,0.12-0.66,0.19-0.99
				c0.11-0.49,0.23-0.98,0.38-1.46c0.1-0.32,0.21-0.63,0.31-0.94c0.2-0.6,0.19-0.41-0.05,0.06c0.52-1.03,1.06-2.01,1.69-2.98
				c0.61-0.94-0.5,0.5,0.25-0.33c0.44-0.48,0.87-0.96,1.34-1.41c0.23-0.22,1.36-1.17,0.87-0.79c-0.53,0.41,0.82-0.54,0.99-0.65
				c0.42-0.26,0.84-0.5,1.28-0.73c0.29-0.15,0.59-0.28,0.88-0.43c-0.47,0.24-0.66,0.24-0.06,0.05c1.13-0.37,2.23-0.64,3.39-0.88
				c-1.06,0.22-0.06,0.02,0.44-0.01c0.35-0.02,0.7-0.02,1.04-0.03c0.6-0.01,1.21,0,1.81,0c4.26,0,8.52,0,12.78,0
				c7.74,0,15.48,0,23.22,0c10.44,0,20.88,0,31.33,0c12.31,0,24.63,0,36.94,0c13.53,0,27.05,0,40.58,0c13.92,0,27.84,0,41.76,0
				c13.48,0,26.96,0,40.45,0c12.4,0,24.8,0,37.2,0c10.44,0,20.88,0,31.32,0c7.81,0,15.62,0,23.43,0c4.36,0,8.71,0,13.07,0
				c0.64,0,1.28-0.01,1.93,0c0.44,0.01,0.87,0.02,1.31,0.05c0.26,0.02,0.51,0.05,0.77,0.07c-0.09-0.01-1.01-0.2-0.33-0.03
				c0.65,0.16,1.31,0.27,1.96,0.46c0.56,0.16,1.1,0.36,1.65,0.56c-1.08-0.38,0.16,0.1,0.58,0.33c0.43,0.23,0.85,0.48,1.27,0.74
				c0.27,0.17,0.53,0.39,0.81,0.55c0.67,0.38-0.57-0.62-0.06-0.04c0.73,0.81,1.62,1.65,2.4,2.4c0.47,0.45-0.13-0.17-0.19-0.26
				c0.14,0.2,0.29,0.39,0.42,0.6c0.35,0.55,0.7,1.1,1.01,1.67c0.21,0.39,0.75,1.69,0.33,0.58c0.21,0.54,0.4,1.09,0.56,1.65
				c0.14,0.48,0.26,0.97,0.36,1.46c0.04,0.19,0.21,1.25,0.1,0.46c-0.11-0.76,0.02,0.34,0.03,0.48c0.25,3.68,0.05,7.43,0.05,11.11
				c0,8.75,0,17.49,0,26.24c0,12.3,0,24.6,0,36.9c0,13.81,0,27.62,0,41.43c0,13.25,0,26.5,0,39.75c0,10.8,0,21.61,0,32.41
				c0,6.27,0,12.54,0,18.81c0,0.83,0.01,1.67,0,2.5c-0.01,0.52-0.03,1.04-0.06,1.56c-0.06,1.16-0.02,0.17,0.03-0.07
				c-0.05,0.25-0.09,0.5-0.14,0.75c-0.22,1.07-0.56,2.08-0.92,3.11c0.44-1.24-0.16,0.27-0.33,0.58c-0.27,0.5-0.56,1-0.87,1.47
				c-0.13,0.2-0.3,0.39-0.41,0.6c-0.42,0.73,0.65-0.64,0.04-0.06c-0.35,0.33-0.64,0.74-0.98,1.08c-0.4,0.41-0.82,0.78-1.24,1.17
				c-0.08,0.07-0.72,0.58-0.15,0.14c0.61-0.47-0.22,0.15-0.38,0.25c-0.9,0.58-1.81,1.1-2.78,1.56c1.08-0.51-0.23,0.06-0.65,0.19
				c-0.56,0.18-1.12,0.33-1.69,0.45c-0.49,0.11-1.48,0.19-0.41,0.11C390.84,337.75,390.15,337.8,389.46,337.81
				c-3.14,0.04-6.15,2.73-6,6c0.14,3.21,2.64,6.05,6,6c11.3-0.15,21.69-7.91,24.29-19.09c0.6-2.6,0.71-5.19,0.71-7.82
				c0-6.04,0-12.07,0-18.11c0-10.74,0-21.48,0-32.22c0-13.37,0-26.75,0-40.12c0-13.94,0-27.88,0-41.83c0-12.44,0-24.88,0-37.32
				c0-8.87,0-17.75,0-26.62c0-3.89,0.29-7.91-0.11-11.79c-1.19-11.56-9.86-21.09-21.51-22.65c-1.61-0.22-3.17-0.28-4.78-0.28
				c-4.1,0-8.2,0-12.3,0c-7.67,0-15.34,0-23.01,0c-10.45,0-20.9,0-31.35,0c-12.44,0-24.88,0-37.32,0c-13.57,0-27.15,0-40.72,0
				c-14.04,0-28.09,0-42.13,0c-13.66,0-27.32,0-40.98,0c-12.49,0-24.98,0-37.46,0c-10.52,0-21.05,0-31.57,0c-7.77,0-15.54,0-23.31,0
				c-4.22,0-8.44,0-12.66,0c-0.88,0-1.77-0.02-2.65,0.03c-11.18,0.59-21.46,8.79-23.45,20.05c-0.81,4.6-0.51,9.41-0.51,14.06
				c0,8.73,0,17.46,0,26.19c0,12.36,0,24.72,0,37.09c0,13.93,0,27.85,0,41.78c0,13.42,0,26.85,0,40.27c0,10.85,0,21.7,0,32.56
				c0,6.21,0,12.43,0,18.64c0,2.16,0.06,4.21,0.39,6.37c1.73,11.41,11.57,19.68,22.8,20.74c2.67,0.25,5.43,0.09,8.1,0.09
				c6.01,0,12.02,0,18.04,0c9.2,0,18.39,0,27.59,0c11.57,0,23.14,0,34.71,0c13.15,0,26.31,0,39.46,0c13.94,0,27.89,0,41.83,0
				c13.94,0,27.89,0,41.83,0c13.15,0,26.31,0,39.46,0c11.57,0,23.14,0,34.71,0c9.2,0,18.39,0,27.59,0c6.03,0,12.06,0,18.09,0
				c2.08,0,4.15,0,6.23,0c3.14,0,6.15-2.76,6-6C395.31,340.56,392.82,337.81,389.46,337.81z"/>
		</g>
	</g>
	<g>
		<g>
			<path class="st0" d="M261.24,297.94c-5.42,0-10.84,0-16.25,0c-13.11,0-26.22,0-39.34,0c-16.09,0-32.19,0-48.28,0
				c-14.36,0-28.72,0-43.09,0c-7.92,0-15.84,0-23.76,0c-0.42,0-0.84,0.01-1.26,0c-0.29,0-0.75-0.11-1.03-0.05
				c0.98-0.21,1.23,0.2,0.43,0.04c-0.27-0.05-0.54-0.12-0.81-0.19c-0.29-0.08-0.65-0.28-0.94-0.31c0.28,0.12,0.55,0.24,0.83,0.35
				c-0.2-0.09-0.39-0.18-0.59-0.28c-0.29-0.15-0.57-0.31-0.84-0.49c-1.34-0.85,0.65,0.67-0.08-0.03c-0.45-0.43-0.87-1-1.34-1.38
				c1.04,0.84,0.56,0.76,0.18,0.17c-0.17-0.27-0.34-0.55-0.49-0.84c-0.05-0.1-0.1-0.19-0.15-0.29c-0.26-0.57-0.19-0.39,0.22,0.53
				c-0.03-0.29-0.23-0.65-0.31-0.94c-0.09-0.32-0.15-0.65-0.23-0.97c-0.24-1.01,0.09,1.58,0.03-0.09c-0.06-1.76-0.01-3.53-0.01-5.3
				c0-10.92,0-21.84,0-32.76c0-15.85,0-31.69,0-47.54c0-14.26,0-28.52,0-42.78c0-6.19-0.08-12.39,0-18.58
				c0-0.29,0.11-0.75,0.05-1.03c-0.04,0.31-0.09,0.62-0.13,0.92c0.03-0.22,0.07-0.44,0.12-0.66c0.07-0.32,0.16-0.65,0.25-0.96
				c0.2-0.64,0.67-0.95-0.14,0.21c0.36-0.51,0.62-1.16,0.95-1.7c0.61-1.02-0.97,1.05-0.15,0.19c0.22-0.23,0.43-0.48,0.66-0.7
				c0.22-0.21,0.53-0.41,0.72-0.64c-0.84,1.04-0.76,0.56-0.17,0.18c0.27-0.17,0.55-0.34,0.84-0.49c0.1-0.05,0.19-0.1,0.29-0.15
				c0.57-0.26,0.39-0.19-0.53,0.22c0.6-0.06,1.31-0.4,1.91-0.54c1.2-0.28-1.5,0.05-0.25,0.05c-0.04,0,0.74-0.02,0.69-0.02
				c0.41-0.01,0.81,0,1.22,0c2.83,0,5.67,0,8.5,0c11.7,0,23.39,0,35.09,0c15.81,0,31.62,0,47.42,0c15.14,0,30.28,0,45.42,0
				c9.93,0,19.86,0,29.8,0c1.51,0,3.02-0.02,4.53,0c0.12,0-0.09-0.01,0.35,0.01c0.66,0.02,1.21,0.39-0.24-0.09
				c0.61,0.2,1.31,0.3,1.93,0.48c1.16,0.33-1.28-0.68-0.23-0.1c0.29,0.16,0.58,0.3,0.86,0.46c0.26,0.15,0.54,0.42,0.81,0.53
				c-0.78-0.62-0.93-0.73-0.46-0.34c0.16,0.14,0.32,0.29,0.47,0.44c0.23,0.23,0.44,0.47,0.66,0.7c0.82,0.86-0.76-1.21-0.15-0.19
				c0.28,0.47,0.55,0.92,0.81,1.4c0.57,1.05-0.43-1.38-0.1-0.23c0.09,0.32,0.2,0.63,0.28,0.95c0.08,0.32,0.1,0.68,0.2,0.98
				c-0.13-1.04-0.16-1.23-0.11-0.58c0.01,0.23,0.02,0.46,0.02,0.69c0.01,0.44,0,0.88,0,1.31c0,8.82,0,17.63,0,26.45
				c0,15.26,0,30.53,0,45.79c0,15.23,0,30.46,0,45.69c0,8.71,0,17.42,0,26.13c0,0.41,0.01,0.82,0,1.24
				c0.01-0.84-0.02,1.52-0.02,0.69c0,1.25,0.33-1.46,0.05-0.25c-0.14,0.6-0.48,1.31-0.54,1.91c0.12-0.28,0.24-0.55,0.35-0.83
				c-0.09,0.2-0.18,0.39-0.28,0.59c-0.15,0.29-0.31,0.57-0.49,0.84c-0.38,0.59-0.86,0.67,0.18-0.17c-0.23,0.19-0.43,0.5-0.64,0.72
				c-0.23,0.23-0.47,0.44-0.7,0.66c-0.86,0.82,1.21-0.77,0.19-0.15c-0.54,0.33-1.19,0.59-1.7,0.95c1.16-0.81,0.85-0.34,0.21-0.14
				c-0.32,0.1-0.64,0.18-0.96,0.25c-0.11,0.02-0.22,0.04-0.33,0.07c-0.64,0.11-0.44,0.08,0.59-0.08
				C261.99,297.83,261.54,297.93,261.24,297.94c-3.14,0.05-6.15,2.73-6,6c0.14,3.21,2.64,6.05,6,6c7.65-0.12,14.7-5.29,16.57-12.83
				c0.42-1.71,0.54-3.46,0.54-5.21c0-3.01,0-6.02,0-9.03c0-12.77,0-25.55,0-38.32c0-16.21,0-32.43,0-48.64c0-12.98,0-25.95,0-38.93
				c0-3.19,0-6.37,0-9.56c0-0.75,0.01-1.49-0.05-2.24c-0.6-7.39-5.91-14.29-13.44-15.68c-2.54-0.47-5.01-0.4-7.57-0.4
				c-3.9,0-7.8,0-11.71,0c-13.16,0-26.32,0-39.48,0c-16.25,0-32.5,0-48.75,0c-14.48,0-28.97,0-43.45,0c-7.86,0-15.72,0-23.58,0
				c-0.59,0-1.18-0.02-1.77,0.02c-7.52,0.46-14.61,5.81-16.02,13.46c-0.5,2.7-0.4,5.38-0.4,8.1c0,10.93,0,21.87,0,32.8
				c0,15.99,0,31.99,0,47.98c0,14.37,0,28.75,0,43.12c0,4.49,0,8.99,0,13.48c0,2.03-0.13,4.11,0.08,6.13
				c0.78,7.56,6.33,14.29,14.07,15.45c1.32,0.2,2.56,0.3,3.87,0.3c2.73,0,5.47,0,8.2,0c11.68,0,23.36,0,35.03,0
				c15.95,0,31.89,0,47.84,0c15.36,0,30.72,0,46.07,0c9.91,0,19.82,0,29.73,0c1.4,0,2.79,0,4.19,0c3.14,0,6.15-2.76,6-6
				C267.1,300.69,264.61,297.94,261.24,297.94z"/>
		</g>
	</g>
	<g>
		<g>
			<path class="st0" d="M309.69,97.95c0,2.19,0,4.38,0,6.56c0,5.98,0,11.96,0,17.94c0,8.82,0,17.63,0,26.45c0,10.75,0,21.51,0,32.26
				c0,11.78,0,23.56,0,35.34c0,11.93,0,23.86,0,35.79c0,11.08,0,22.17,0,33.25c0,9.36,0,18.73,0,28.09c0,6.73,0,13.46,0,20.2
				c0,3.19-0.04,6.38,0,9.56c0,0.14,0,0.27,0,0.41c0,3.14,2.76,6.15,6,6c3.25-0.15,6-2.64,6-6c0-2.19,0-4.38,0-6.56
				c0-5.98,0-11.96,0-17.94c0-8.82,0-17.63,0-26.45c0-10.75,0-21.51,0-32.26c0-11.78,0-23.56,0-35.34c0-11.93,0-23.86,0-35.79
				c0-11.08,0-22.17,0-33.25c0-9.36,0-18.73,0-28.09c0-6.73,0-13.46,0-20.2c0-3.19,0.04-6.38,0-9.56c0-0.14,0-0.27,0-0.41
				c0-3.14-2.76-6.15-6-6C312.44,92.1,309.69,94.59,309.69,97.95L309.69,97.95z"/>
		</g>
	</g>
	<g>
		<g>
			<path class="st0" d="M340.46,158.33c12.12,0,24.25,0,36.37,0c1.71,0,3.43,0,5.14,0c3.24,0,6-2.75,6-6c0-5.82,0-11.64,0-17.46
				c0-3.24-2.75-6-6-6c-12.12,0-24.25,0-36.37,0c-1.71,0-3.43,0-5.14,0c-3.24,0-6,2.75-6,6c0,5.82,0,11.64,0,17.46
				C334.46,155.47,337.22,158.47,340.46,158.33c3.25-0.15,6-2.64,6-6c0-5.82,0-11.64,0-17.46c-2,2-4,4-6,6c12.12,0,24.25,0,36.37,0
				c1.71,0,3.43,0,5.14,0c-2-2-4-4-6-6c0,5.82,0,11.64,0,17.46c2-2,4-4,6-6c-12.12,0-24.25,0-36.37,0c-1.71,0-3.43,0-5.14,0
				c-3.14,0-6.15,2.76-6,6C334.6,155.58,337.09,158.33,340.46,158.33z"/>
		</g>
	</g>
	<g>
		<g>
			<path class="st0" d="M375.97,221.47c0,0.52-0.02,1.04-0.06,1.56c-0.02,0.27-0.1,0.59-0.08,0.86c-0.01-0.08,0.26-1.56,0.07-0.58
				c-0.2,0.99-0.4,1.97-0.71,2.94c-0.09,0.28-0.74,1.83-0.27,0.84c0.48-1.01-0.28,0.58-0.38,0.78c-0.45,0.87-0.95,1.72-1.52,2.52
				c-0.12,0.17-0.28,0.35-0.38,0.53c0.76-1.31,0.57-0.71,0.23-0.32c-0.32,0.37-0.64,0.74-0.98,1.09c-0.3,0.31-0.61,0.61-0.93,0.91
				c-0.16,0.15-0.32,0.29-0.49,0.43c-0.41,0.35-1.16,0.67,0.2-0.12c-0.8,0.46-1.51,1.06-2.32,1.52c-0.43,0.24-0.87,0.47-1.31,0.68
				c-0.19,0.09-0.41,0.17-0.6,0.27c1.47-0.8,0.67-0.29,0.2-0.12c-0.89,0.32-1.81,0.58-2.73,0.77c-0.28,0.06-0.55,0.1-0.83,0.16
				c-0.51,0.1-0.77-0.13,0.58-0.07c-0.56-0.02-1.16,0.11-1.72,0.13c-0.99,0.03-1.96-0.03-2.95-0.11c-0.83-0.07,1.61,0.29,0.41,0.05
				c-0.22-0.04-0.44-0.08-0.67-0.12c-0.55-0.11-1.09-0.24-1.63-0.4c-0.43-0.12-0.85-0.26-1.27-0.41c-0.18-0.06-0.43-0.2-0.62-0.23
				c1.32,0.25,0.92,0.42,0.37,0.15c-0.94-0.45-1.85-0.94-2.72-1.51c-0.36-0.24-0.7-0.54-1.07-0.75c1.5,0.87,0.29,0.21-0.17-0.2
				c-0.77-0.69-1.46-1.45-2.14-2.22c-0.3-0.34-0.38-0.78,0.33,0.45c-0.1-0.18-0.27-0.36-0.38-0.53c-0.25-0.36-0.49-0.72-0.72-1.09
				c-0.26-0.42-0.5-0.85-0.73-1.28c-0.13-0.24-0.25-0.49-0.37-0.74c-0.1-0.21-0.54-1.13-0.1-0.19c0.47,0.99-0.18-0.56-0.27-0.84
				c-0.14-0.42-0.26-0.85-0.37-1.29c-0.12-0.49-0.23-0.99-0.32-1.48c-0.1-0.58,0.1-1.06,0.04,0.41c0.01-0.28-0.06-0.58-0.08-0.86
				c-0.07-0.98-0.08-1.97-0.01-2.96c0.02-0.23,0.04-0.46,0.06-0.69c0.08-1.22-0.21,1.23-0.06,0.41c0.1-0.56,0.2-1.11,0.33-1.66
				c0.22-0.9,0.68-1.8,0.86-2.7c-0.22,1.17-0.45,1-0.22,0.52c0.12-0.25,0.23-0.5,0.35-0.74c0.24-0.49,0.51-0.97,0.79-1.44
				c0.25-0.42,0.52-0.83,0.8-1.23c0.12-0.17,0.29-0.35,0.38-0.53c-0.04,0.07-0.96,1.16-0.33,0.45c0.65-0.73,1.29-1.46,2.02-2.12
				c0.2-0.18,0.41-0.35,0.61-0.54c0.38-0.34,0.99-0.54-0.32,0.23c0.37-0.22,0.71-0.51,1.07-0.75c0.82-0.54,1.68-1.02,2.57-1.44
				c0.17-0.08,1.18-0.56,0.19-0.1c-0.87,0.41-0.19,0.08,0.05,0c0.47-0.16,0.94-0.33,1.42-0.47c0.43-0.12,0.86-0.23,1.3-0.33
				c0.22-0.05,0.44-0.09,0.66-0.13c0.22-0.04,0.45-0.08,0.67-0.11c-0.31,0.04-0.61,0.08-0.92,0.12c1.01,0.08,2.09-0.16,3.12-0.13
				c0.46,0.01,0.92,0.06,1.38,0.09c1,0.06-0.49-0.06-0.58-0.09c0.31,0.1,0.68,0.11,1,0.18c1.1,0.22,2.15,0.57,3.21,0.92
				c0.91,0.3-0.44-0.19-0.51-0.23c0.28,0.16,0.6,0.27,0.9,0.41c0.49,0.24,0.97,0.5,1.44,0.78c0.47,0.28,0.93,0.57,1.37,0.89
				c0.15,0.1,1.04,0.76,0.18,0.11c-0.82-0.62-0.03-0.01,0.15,0.15c0.82,0.7,1.59,1.47,2.3,2.3c0.12,0.14,0.79,1.01,0.15,0.15
				c-0.62-0.83-0.02-0.01,0.11,0.18c0.34,0.49,0.67,0.99,0.97,1.51c0.27,0.47,0.53,0.96,0.77,1.45c0.09,0.2,0.18,0.4,0.28,0.6
				c0.26,0.54-0.53-1.46-0.11-0.21c0.36,1.06,0.68,2.12,0.89,3.22c0.04,0.22,0.08,0.45,0.12,0.67c0.11,0.62-0.17-1.61-0.05-0.24
				C375.94,220.2,375.97,220.83,375.97,221.47c0.03,3.14,2.74,6.15,6,6c3.23-0.14,6.03-2.64,6-6c-0.09-11.4-7.26-21.23-17.85-25.22
				c-10.1-3.8-22.4-0.43-29.24,7.87c-3.73,4.52-5.86,9.77-6.35,15.61c-0.44,5.31,0.97,10.93,3.72,15.48
				c5.94,9.84,17.47,14.64,28.66,12.4c12.22-2.45,20.96-13.87,21.06-26.14c0.03-3.14-2.78-6.14-6-6
				C378.7,215.62,376,218.11,375.97,221.47z"/>
		</g>
	</g>
	<g>
		<g>
			<path class="st0" d="M375.97,282.71c0,0.52-0.02,1.04-0.06,1.56c-0.02,0.27-0.1,0.59-0.08,0.86c-0.01-0.08,0.26-1.56,0.07-0.58
				c-0.2,0.99-0.4,1.97-0.71,2.94c-0.09,0.28-0.74,1.83-0.27,0.84c0.48-1.01-0.28,0.58-0.38,0.78c-0.45,0.87-0.95,1.72-1.52,2.52
				c-0.12,0.17-0.28,0.35-0.38,0.53c0.76-1.31,0.57-0.71,0.23-0.32c-0.32,0.37-0.64,0.74-0.98,1.09c-0.3,0.31-0.61,0.61-0.93,0.91
				c-0.16,0.15-0.32,0.29-0.49,0.43c-0.41,0.35-1.16,0.67,0.2-0.12c-0.8,0.46-1.51,1.06-2.32,1.52c-0.43,0.24-0.87,0.47-1.31,0.68
				c-0.19,0.09-0.41,0.17-0.6,0.27c1.47-0.8,0.67-0.29,0.2-0.12c-0.89,0.32-1.81,0.58-2.73,0.77c-0.28,0.06-0.55,0.1-0.83,0.16
				c-0.51,0.1-0.77-0.13,0.58-0.07c-0.56-0.02-1.16,0.11-1.72,0.13c-0.99,0.03-1.96-0.03-2.95-0.11c-0.83-0.07,1.61,0.29,0.41,0.05
				c-0.22-0.04-0.44-0.08-0.67-0.12c-0.55-0.11-1.09-0.24-1.63-0.4c-0.43-0.12-0.85-0.26-1.27-0.41c-0.18-0.06-0.43-0.2-0.62-0.23
				c1.32,0.25,0.92,0.42,0.37,0.15c-0.94-0.45-1.85-0.94-2.72-1.51c-0.36-0.24-0.7-0.54-1.07-0.75c1.5,0.87,0.29,0.21-0.17-0.2
				c-0.77-0.69-1.46-1.45-2.14-2.22c-0.3-0.34-0.38-0.78,0.33,0.45c-0.1-0.18-0.27-0.36-0.38-0.53c-0.25-0.36-0.49-0.72-0.72-1.09
				c-0.26-0.42-0.5-0.85-0.73-1.28c-0.13-0.24-0.25-0.49-0.37-0.74c-0.1-0.21-0.54-1.13-0.1-0.19c0.47,0.99-0.18-0.56-0.27-0.84
				c-0.14-0.42-0.26-0.85-0.37-1.29c-0.12-0.49-0.23-0.99-0.32-1.48c-0.1-0.58,0.1-1.06,0.04,0.41c0.01-0.28-0.06-0.58-0.08-0.86
				c-0.07-0.98-0.08-1.97-0.01-2.96c0.02-0.23,0.04-0.46,0.06-0.69c0.08-1.22-0.21,1.23-0.06,0.41c0.1-0.56,0.2-1.11,0.33-1.66
				c0.22-0.9,0.68-1.8,0.86-2.7c-0.22,1.17-0.45,1-0.22,0.52c0.12-0.25,0.23-0.5,0.35-0.74c0.24-0.49,0.51-0.97,0.79-1.44
				c0.25-0.42,0.52-0.83,0.8-1.23c0.12-0.17,0.29-0.35,0.38-0.53c-0.04,0.07-0.96,1.16-0.33,0.45c0.65-0.73,1.29-1.46,2.02-2.12
				c0.2-0.18,0.41-0.35,0.61-0.54c0.38-0.34,0.99-0.54-0.32,0.23c0.37-0.22,0.71-0.51,1.07-0.75c0.82-0.54,1.68-1.02,2.57-1.44
				c0.17-0.08,1.18-0.56,0.19-0.1c-0.87,0.41-0.19,0.08,0.05,0c0.47-0.16,0.94-0.33,1.42-0.47c0.43-0.12,0.86-0.23,1.3-0.33
				c0.22-0.05,0.44-0.09,0.66-0.13c0.22-0.04,0.45-0.08,0.67-0.11c-0.31,0.04-0.61,0.08-0.92,0.12c1.01,0.08,2.09-0.16,3.12-0.13
				c0.46,0.01,0.92,0.06,1.38,0.09c1,0.06-0.49-0.06-0.58-0.09c0.31,0.1,0.68,0.11,1,0.18c1.1,0.22,2.15,0.57,3.21,0.92
				c0.91,0.3-0.44-0.19-0.51-0.23c0.28,0.16,0.6,0.27,0.9,0.41c0.49,0.24,0.97,0.5,1.44,0.78c0.47,0.28,0.93,0.57,1.37,0.89
				c0.15,0.1,1.04,0.76,0.18,0.11c-0.82-0.62-0.03-0.01,0.15,0.15c0.82,0.7,1.59,1.47,2.3,2.3c0.12,0.14,0.79,1.01,0.15,0.15
				c-0.62-0.83-0.02-0.01,0.11,0.18c0.34,0.49,0.67,0.99,0.97,1.51c0.27,0.47,0.53,0.96,0.77,1.45c0.09,0.2,0.18,0.4,0.28,0.6
				c0.26,0.54-0.53-1.46-0.11-0.21c0.36,1.06,0.68,2.12,0.89,3.22c0.04,0.22,0.08,0.45,0.12,0.67c0.11,0.62-0.17-1.61-0.05-0.24
				C375.94,281.43,375.97,282.07,375.97,282.71c0.03,3.14,2.74,6.15,6,6c3.23-0.14,6.03-2.64,6-6c-0.09-11.4-7.26-21.23-17.85-25.22
				c-10.1-3.8-22.4-0.43-29.24,7.87c-3.73,4.52-5.86,9.77-6.35,15.61c-0.44,5.31,0.97,10.93,3.72,15.48
				c5.94,9.84,17.47,14.64,28.66,12.4c12.22-2.45,20.96-13.87,21.06-26.14c0.03-3.14-2.78-6.14-6-6
				C378.7,276.85,376,279.34,375.97,282.71z"/>
		</g>
	</g>
</g>
</svg>
