<?xml version="1.0" encoding="utf-8"?>
<!-- Generator: Adobe Illustrator 26.5.0, SVG Export Plug-In . SVG Version: 6.00 Build 0)  -->
<svg version="1.1" id="Layer_1" xmlns="http://www.w3.org/2000/svg" xmlns:xlink="http://www.w3.org/1999/xlink" x="0px" y="0px"
	 viewBox="0 0 443.09 443.09" style="enable-background:new 0 0 443.09 443.09;" xml:space="preserve">
<style type="text/css">
	.st0{fill:#B2ACBD;}
</style>
<g>
	<g>
		<g>
			<path class="st0" d="M345.5,368.77c-2.64,0-5.28,0-7.92,0c-7.11,0-14.22,0-21.33,0c-10.36,0-20.73,0-31.09,0
				c-12.4,0-24.79,0-37.19,0c-13.16,0-26.32,0-39.48,0c-12.86,0-25.71,0-38.57,0c-11.14,0-22.29,0-33.43,0c-8.35,0-16.71,0-25.06,0
				c-4.3,0-8.59,0-12.89,0c-0.3,0-0.6,0-0.89,0c-0.66,0-1.33-0.03-1.99-0.08c-1.56-0.13,1.04,0.21-0.49-0.06
				c-0.48-0.08-0.95-0.18-1.42-0.3c-0.53-0.13-1.06-0.28-1.58-0.45c-0.26-0.08-0.52-0.17-0.77-0.27c-0.19-0.07-0.38-0.14-0.57-0.22
				c-0.42-0.17-0.25-0.1,0.5,0.21c-0.49,0.16-2.24-1.16-2.67-1.42c-0.45-0.28-0.88-0.62-1.33-0.9c-0.59-0.36,0.46,0.34,0.42,0.33
				c-0.21-0.04-0.76-0.63-0.92-0.77c-0.75-0.66-1.45-1.37-2.11-2.13c-0.17-0.2-0.34-0.42-0.51-0.61c-0.54-0.59,0.62,0.94,0.21,0.26
				c-0.31-0.51-0.69-0.99-1-1.5c-0.28-0.46-0.54-0.93-0.79-1.4c-0.12-0.24-0.23-0.49-0.36-0.72c-0.3-0.57-0.39-0.2,0.12,0.32
				c-0.58-0.59-0.81-2.32-1.01-3.11c-0.13-0.54-0.23-1.08-0.34-1.63c-0.21-1.08,0.07,0.2,0.04,0.35c0.04-0.2-0.06-0.61-0.08-0.84
				c-0.04-0.57-0.06-1.15-0.06-1.72c-0.02-2.67,0-5.35,0-8.02c0-6.89,0-13.78,0-20.66c0-10.12,0-20.23,0-30.35
				c0-12.11,0-24.21,0-36.32c0-13.14,0-26.28,0-39.42c0-13.04,0-26.09,0-39.13c0-11.86,0-23.72,0-35.58c0-9.59,0-19.18,0-28.77
				c0-6.21,0-12.43,0-18.64c0-1.53,0-3.06,0-4.59c0-0.3,0-0.6,0-0.91c0-0.39,0.01-0.77,0.03-1.16c0.01-0.21,0.12-2.08,0.06-1.1
				c-0.05,0.95,0.11-0.59,0.17-0.85c0.25-1.21,0.63-2.38,1.04-3.54c0.36-1-0.56,1.09,0.12-0.24c0.25-0.48,0.48-0.96,0.75-1.43
				c0.27-0.46,0.55-0.92,0.85-1.36c0.11-0.17,0.23-0.33,0.34-0.5c0.76-1.14-0.86,0.98,0.04-0.06c0.66-0.76,1.32-1.5,2.05-2.18
				c0.39-0.36,0.81-0.69,1.21-1.05c0.59-0.54-0.94,0.62-0.26,0.21c0.28-0.17,0.55-0.39,0.82-0.57c0.9-0.59,1.85-1.08,2.81-1.58
				c0.57-0.3,0.2-0.39-0.32,0.12c0.12-0.12,0.65-0.25,0.76-0.29c0.51-0.19,1.03-0.36,1.56-0.51s1.06-0.28,1.6-0.39
				c0.27-0.06,0.55-0.1,0.82-0.15c1.16-0.23-0.32,0.02-0.35,0.04c0.35-0.33,2.07-0.14,2.55-0.14c0.73-0.01,1.46,0,2.2,0
				c5.11,0,10.21,0,15.32,0c8.95,0,17.89,0,26.84,0c11.57,0,23.13,0,34.7,0c12.97,0,25.94,0,38.91,0c13.1,0,26.21,0,39.31,0
				c12.17,0,24.33,0,36.5,0c9.83,0,19.66,0,29.49,0c6.41,0,12.81,0,19.22,0c1.52,0,3.04,0,4.56,0c0.28,0,0.55,0,0.83,0
				c0.01,0,0.03,0,0.04,0c0.29,0,0.57,0.01,0.86,0.02c0.28,0.01,0.57,0.03,0.85,0.05c0.21,0.02,0.42,0.03,0.63,0.06
				c0.46,0.05,0.28,0.02-0.55-0.08c0.66-0.23,2.36,0.47,3.03,0.67c0.52,0.15,1.04,0.34,1.55,0.52c0.24,0.09,0.96,0.51,0.22,0.08
				c-0.81-0.47,0.2,0.11,0.39,0.2c0.96,0.47,1.89,1.02,2.78,1.63c0.12,0.08,0.63,0.38,0.65,0.46c0.01,0.04-0.93-0.78-0.42-0.33
				c0.44,0.4,0.92,0.77,1.35,1.19c0.53,0.51,2,1.61,2.16,2.36c-0.01-0.05-0.83-1.18-0.22-0.25c0.15,0.22,0.31,0.44,0.45,0.66
				c0.33,0.5,0.64,1.02,0.93,1.55c0.23,0.41,0.43,0.84,0.64,1.26c0.51,1-0.07-0.28-0.12-0.32c0.11,0.1,0.23,0.58,0.29,0.76
				c0.4,1.09,0.71,2.22,0.94,3.36c0.05,0.27,0.09,0.55,0.15,0.82c0.16,0.82-0.1-1.19-0.05-0.35c0.03,0.49,0.09,0.99,0.1,1.48
				c0.01,0.29,0.01,0.59,0.02,0.88c0.01,0.78,0,1.56,0,2.34c0,5.01,0,10.01,0,15.02c0,8.65,0,17.31,0,25.96c0,11.33,0,22.66,0,33.99
				c0,12.75,0,25.5,0,38.25c0,13.23,0,26.45,0,39.68c0,12.57,0,25.14,0,37.7c0,10.82,0,21.64,0,32.46c0,7.99,0,15.98,0,23.96
				c0,4.06,0,8.12,0,12.18c0,0.28,0,0.55,0,0.83c0,0.46-0.01,0.91-0.04,1.37c-0.02,0.28-0.04,0.56-0.06,0.85
				c-0.03,0.5-0.32,0.77,0.06-0.34c-0.15,0.44-0.17,0.98-0.26,1.43c-0.23,1.08-0.56,2.11-0.93,3.15c-0.46,1.3,0.38-0.69-0.11,0.25
				c-0.25,0.48-0.48,0.96-0.74,1.43c-0.26,0.47-0.54,0.93-0.84,1.37c-0.15,0.22-0.31,0.44-0.45,0.66c-0.37,0.56,0.05,0.37,0.22-0.25
				c-0.19,0.72-1.49,1.71-2.01,2.22c-0.38,0.37-0.79,0.72-1.19,1.07c-1.11,0.96,0.85-0.53-0.37,0.28c-0.84,0.56-1.68,1.09-2.58,1.56
				c-0.24,0.12-0.49,0.23-0.72,0.36c-1,0.51,0.28-0.07,0.32-0.12c-0.25,0.26-1.19,0.45-1.53,0.56c-1.05,0.34-2.12,0.58-3.21,0.79
				c-1.08,0.2,1.27-0.11-0.28,0.02C346.78,368.74,346.14,368.76,345.5,368.77c-3.14,0.03-6.15,2.74-6,6c0.14,3.23,2.64,6.03,6,6
				c10.49-0.1,20.63-5.97,25.41-15.43c2.2-4.36,3.24-9.03,3.24-13.9c0-3.92,0-7.85,0-11.77c0-7.94,0-15.89,0-23.83
				c0-10.85,0-21.7,0-32.55c0-12.64,0-25.29,0-37.93c0-13.38,0-26.76,0-40.13c0-12.89,0-25.79,0-38.68c0-11.35,0-22.69,0-34.04
				c0-8.69,0-17.37,0-26.06c0-4.91,0-9.82,0-14.74c0-0.69,0.01-1.39,0-2.08c-0.08-10.32-5.74-20.2-14.89-25.13
				c-4.46-2.4-9.36-3.52-14.4-3.52c-1.43,0-2.87,0-4.3,0c-6.31,0-12.62,0-18.93,0c-9.87,0-19.74,0-29.61,0c-12.18,0-24.37,0-36.55,0
				c-13.3,0-26.6,0-39.9,0c-13.07,0-26.13,0-39.2,0c-11.63,0-23.26,0-34.89,0c-8.95,0-17.9,0-26.85,0c-5.02,0-10.05,0-15.07,0
				c-1.01,0-2.02-0.02-3.02,0.03C86.1,61.5,76.16,67.7,71.77,77.32c-1.9,4.15-2.8,8.5-2.8,13.06c0,1.43,0,2.87,0,4.3
				c0,6.14,0,12.28,0,18.42c0,9.59,0,19.17,0,28.76c0,11.92,0,23.83,0,35.75c0,13.19,0,26.38,0,39.56c0,13.24,0,26.48,0,39.72
				c0,12.23,0,24.46,0,36.69c0,10.11,0,20.22,0,30.32c0,6.87,0,13.75,0,20.62c0,2.67-0.05,5.34,0,8
				c0.21,10.38,6.21,20.43,15.6,25.07c4.34,2.14,8.95,3.15,13.78,3.15c4.15,0,8.29,0,12.44,0c8.31,0,16.62,0,24.93,0
				c11.22,0,22.45,0,33.67,0c12.94,0,25.88,0,38.83,0c13.31,0,26.62,0,39.93,0c12.48,0,24.96,0,37.44,0c10.4,0,20.8,0,31.2,0
				c7.08,0,14.15,0,21.23,0c2.51,0,5.01,0,7.52,0c3.14,0,6.15-2.76,6-6C351.36,371.52,348.87,368.77,345.5,368.77z"/>
		</g>
	</g>
	<g>
		<g>
			<path class="st0" d="M368.15,148.06c-2.63,0-5.26,0-7.9,0c-7.1,0-14.2,0-21.3,0c-10.52,0-21.05,0-31.57,0
				c-12.84,0-25.68,0-38.52,0c-14.01,0-28.03,0-42.04,0c-14.24,0-28.49,0-42.73,0c-13.19,0-26.38,0-39.57,0
				c-11.19,0-22.37,0-33.56,0c-8.04,0-16.08,0-24.13,0c-3.8,0-7.6-0.05-11.4,0c-0.17,0-0.33,0-0.5,0c-3.14,0-6.15,2.76-6,6
				c0.15,3.25,2.64,6,6,6c2.63,0,5.26,0,7.9,0c7.1,0,14.2,0,21.3,0c10.52,0,21.05,0,31.57,0c12.84,0,25.68,0,38.52,0
				c14.01,0,28.03,0,42.04,0c14.24,0,28.49,0,42.73,0c13.19,0,26.38,0,39.57,0c11.19,0,22.37,0,33.56,0c8.04,0,16.08,0,24.13,0
				c3.8,0,7.6,0.05,11.4,0c0.17,0,0.33,0,0.5,0c3.14,0,6.15-2.76,6-6C374,150.81,371.51,148.06,368.15,148.06L368.15,148.06z"/>
		</g>
	</g>
	<g>
		<g>
			<path class="st0" d="M129.21,111.33c0,0.35-0.03,0.7-0.04,1.05c-0.04,1.22,0.24-1.2,0.06-0.4c-0.13,0.61-0.25,1.21-0.45,1.8
				c-0.07,0.21-0.17,0.42-0.22,0.63c0.41-1.55,0.32-0.71,0.07-0.22c-0.28,0.56-0.82,1.11-1.02,1.68c0.32-0.89,0.74-0.89,0.34-0.44
				c-0.22,0.24-0.43,0.49-0.66,0.73c-0.38,0.39-0.85,0.7-1.21,1.1c1.04-1.11,0.64-0.49,0.15-0.17c-0.18,0.12-0.37,0.23-0.56,0.34
				c-0.29,0.16-0.58,0.3-0.88,0.46c-1.04,0.55,1.35-0.43,0.21-0.1c-0.54,0.16-1.06,0.34-1.62,0.46c-0.75,0.16-1.07-0.17,0.25,0
				c-0.26-0.03-0.6,0.05-0.87,0.06c-0.59,0.02-1.16-0.02-1.75-0.05c-0.82-0.04,1.59,0.33,0.41,0.05c-0.38-0.09-0.77-0.16-1.15-0.27
				c-0.27-0.08-0.53-0.17-0.8-0.25c-1.17-0.35,1.28,0.67,0.21,0.1c-0.49-0.26-0.97-0.5-1.44-0.8c-0.13-0.08-0.38-0.31-0.54-0.37
				c0.23,0.18,0.46,0.36,0.69,0.54c-0.17-0.14-0.34-0.28-0.5-0.42c-0.49-0.44-0.93-0.92-1.37-1.4c-0.77-0.85,0.58,0.99,0.24,0.3
				c-0.12-0.24-0.31-0.46-0.45-0.69c-0.28-0.46-0.46-1.02-0.77-1.46c0.81,1.16,0.33,0.82,0.13,0.19c-0.07-0.21-0.13-0.43-0.19-0.64
				c-0.09-0.33-0.15-0.66-0.23-0.99c-0.28-1.17,0.07,1.36,0.03,0.23c-0.02-0.64-0.05-1.28-0.01-1.92c0.05-0.68,0.39-0.81-0.08,0.4
				c0.11-0.3,0.13-0.69,0.2-1c0.13-0.52,0.44-1.08,0.5-1.6c-0.11,1.01-0.49,1.04-0.21,0.52c0.21-0.39,0.4-0.78,0.63-1.16
				c0.11-0.19,0.24-0.36,0.36-0.55c0.62-1.03-0.95,1.06-0.15,0.17c0.37-0.41,0.72-0.81,1.13-1.18c0.23-0.21,0.54-0.41,0.74-0.64
				c-0.07,0.09-1.22,0.83-0.42,0.36c0.57-0.34,1.13-0.67,1.71-0.98c1.08-0.57-1.37,0.47-0.21,0.1c0.21-0.07,0.42-0.14,0.64-0.21
				c0.32-0.1,0.65-0.18,0.98-0.25c0.19-0.04,1.32-0.22,0.21-0.06s0.04,0.02,0.23,0.01c0.29-0.02,0.58-0.02,0.88-0.02
				c0.29,0,0.58,0.03,0.87,0.04c1.19,0.04-1.51-0.29-0.07,0c0.67,0.13,1.29,0.35,1.94,0.55c0.76,0.24-1.4-0.7-0.36-0.15
				c0.34,0.18,0.69,0.35,1.02,0.54c0.24,0.14,0.46,0.3,0.69,0.44c0.95,0.58-1.06-1-0.05-0.04c0.48,0.45,0.93,0.91,1.39,1.39
				c0.49,0.52,0.15,0.72-0.23-0.31c0.12,0.32,0.45,0.66,0.63,0.96c0.14,0.24,0.27,0.48,0.4,0.72c0.1,0.2,0.19,0.4,0.28,0.6
				c-0.36-0.88-0.46-1.1-0.29-0.66c0.2,0.65,0.42,1.27,0.55,1.94c0.14,0.7-0.19,0.79-0.03-0.41
				C129.09,110.37,129.21,110.9,129.21,111.33c0.04,3.14,2.73,6.15,6,6c3.22-0.14,6.04-2.64,6-6c-0.11-8.21-5.24-15.16-12.88-17.97
				c-7-2.58-15.66-0.22-20.41,5.51c-5.18,6.24-6.28,15.16-1.98,22.23c4.26,7,12.33,10.27,20.29,8.78
				c8.72-1.64,14.87-9.89,14.99-18.55c0.04-3.14-2.79-6.14-6-6C131.93,105.48,129.26,107.97,129.21,111.33z"/>
		</g>
	</g>
	<g>
		<g>
			<path class="st0" d="M327.89,111.33c0,0.35-0.03,0.7-0.04,1.05c-0.04,1.22,0.24-1.2,0.06-0.4c-0.13,0.61-0.25,1.21-0.45,1.8
				c-0.07,0.21-0.17,0.42-0.22,0.63c0.41-1.55,0.32-0.71,0.07-0.22c-0.28,0.56-0.82,1.11-1.02,1.68c0.32-0.89,0.74-0.89,0.34-0.44
				c-0.22,0.24-0.43,0.49-0.66,0.73c-0.38,0.39-0.85,0.7-1.21,1.1c1.04-1.11,0.64-0.49,0.15-0.17c-0.18,0.12-0.37,0.23-0.56,0.34
				c-0.29,0.16-0.58,0.3-0.88,0.46c-1.04,0.55,1.35-0.43,0.21-0.1c-0.54,0.16-1.06,0.34-1.62,0.46c-0.75,0.16-1.07-0.17,0.25,0
				c-0.26-0.03-0.6,0.05-0.87,0.06c-0.59,0.02-1.16-0.02-1.75-0.05c-0.82-0.04,1.59,0.33,0.41,0.05c-0.38-0.09-0.77-0.16-1.15-0.27
				c-0.27-0.08-0.53-0.17-0.8-0.25c-1.17-0.35,1.28,0.67,0.21,0.1c-0.49-0.26-0.97-0.5-1.44-0.8c-0.13-0.08-0.38-0.31-0.54-0.37
				c0.23,0.18,0.46,0.36,0.69,0.54c-0.17-0.14-0.34-0.28-0.5-0.42c-0.49-0.44-0.93-0.92-1.37-1.4c-0.77-0.85,0.58,0.99,0.24,0.3
				c-0.12-0.24-0.31-0.46-0.45-0.69c-0.28-0.46-0.46-1.02-0.77-1.46c0.81,1.16,0.33,0.82,0.13,0.19c-0.07-0.21-0.13-0.43-0.19-0.64
				c-0.09-0.33-0.15-0.66-0.23-0.99c-0.28-1.17,0.07,1.36,0.03,0.23c-0.02-0.64-0.05-1.28-0.01-1.92c0.05-0.68,0.39-0.81-0.08,0.4
				c0.11-0.3,0.13-0.69,0.2-1c0.13-0.52,0.44-1.08,0.5-1.6c-0.11,1.01-0.49,1.04-0.21,0.52c0.21-0.39,0.4-0.78,0.63-1.16
				c0.11-0.19,0.24-0.36,0.36-0.55c0.62-1.03-0.95,1.06-0.15,0.17c0.37-0.41,0.72-0.81,1.13-1.18c0.23-0.21,0.54-0.41,0.74-0.64
				c-0.07,0.09-1.22,0.83-0.42,0.36c0.57-0.34,1.13-0.67,1.71-0.98c1.08-0.57-1.37,0.47-0.21,0.1c0.21-0.07,0.42-0.14,0.64-0.21
				c0.32-0.1,0.65-0.18,0.98-0.25c0.19-0.04,1.32-0.22,0.21-0.06c-1.11,0.16,0.04,0.02,0.23,0.01c0.29-0.02,0.58-0.02,0.88-0.02
				c0.29,0,0.58,0.03,0.87,0.04c1.19,0.04-1.51-0.29-0.07,0c0.67,0.13,1.29,0.35,1.94,0.55c0.76,0.24-1.4-0.7-0.36-0.15
				c0.34,0.18,0.69,0.35,1.02,0.54c0.24,0.14,0.46,0.3,0.69,0.44c0.95,0.58-1.06-1-0.05-0.04c0.48,0.45,0.93,0.91,1.39,1.39
				c0.49,0.52,0.15,0.72-0.23-0.31c0.12,0.32,0.45,0.66,0.63,0.96c0.14,0.24,0.27,0.48,0.4,0.72c0.1,0.2,0.19,0.4,0.28,0.6
				c-0.36-0.88-0.46-1.1-0.29-0.66c0.2,0.65,0.42,1.27,0.55,1.94c0.14,0.7-0.19,0.79-0.03-0.41
				C327.76,110.37,327.89,110.9,327.89,111.33c0.04,3.14,2.73,6.15,6,6c3.22-0.14,6.04-2.64,6-6c-0.11-8.21-5.24-15.16-12.88-17.97
				c-7-2.58-15.66-0.22-20.41,5.51c-5.18,6.24-6.28,15.16-1.98,22.23c4.26,7,12.33,10.27,20.29,8.78
				c8.72-1.64,14.87-9.89,14.99-18.55c0.04-3.14-2.79-6.14-6-6C330.61,105.48,327.94,107.97,327.89,111.33z"/>
		</g>
	</g>
	<g>
		<g>
			<path class="st0" d="M263.46,111.33c0,0.35-0.03,0.7-0.04,1.05c-0.04,1.22,0.24-1.2,0.06-0.4c-0.13,0.61-0.25,1.21-0.45,1.8
				c-0.07,0.21-0.17,0.42-0.22,0.63c0.41-1.55,0.32-0.71,0.07-0.22c-0.28,0.56-0.82,1.11-1.02,1.68c0.32-0.89,0.74-0.89,0.34-0.44
				c-0.22,0.24-0.43,0.49-0.66,0.73c-0.38,0.39-0.85,0.7-1.21,1.1c1.04-1.11,0.64-0.49,0.15-0.17c-0.18,0.12-0.37,0.23-0.56,0.34
				c-0.29,0.16-0.58,0.3-0.88,0.46c-1.04,0.55,1.35-0.43,0.21-0.1c-0.54,0.16-1.06,0.34-1.62,0.46c-0.75,0.16-1.07-0.17,0.25,0
				c-0.26-0.03-0.6,0.05-0.87,0.06c-0.59,0.02-1.16-0.02-1.75-0.05c-0.82-0.04,1.59,0.33,0.41,0.05c-0.38-0.09-0.77-0.16-1.15-0.27
				c-0.27-0.08-0.53-0.17-0.8-0.25c-1.17-0.35,1.28,0.67,0.21,0.1c-0.49-0.26-0.97-0.5-1.44-0.8c-0.13-0.08-0.38-0.31-0.54-0.37
				c0.23,0.18,0.46,0.36,0.69,0.54c-0.17-0.14-0.34-0.28-0.5-0.42c-0.49-0.44-0.93-0.92-1.37-1.4c-0.77-0.85,0.58,0.99,0.24,0.3
				c-0.12-0.24-0.31-0.46-0.45-0.69c-0.28-0.46-0.46-1.02-0.77-1.46c0.81,1.16,0.33,0.82,0.13,0.19c-0.07-0.21-0.13-0.43-0.19-0.64
				c-0.09-0.33-0.15-0.66-0.23-0.99c-0.28-1.17,0.07,1.36,0.03,0.23c-0.02-0.64-0.05-1.28-0.01-1.92c0.05-0.68,0.39-0.81-0.08,0.4
				c0.11-0.3,0.13-0.69,0.2-1c0.13-0.52,0.44-1.08,0.5-1.6c-0.11,1.01-0.49,1.04-0.21,0.52c0.21-0.39,0.4-0.78,0.63-1.16
				c0.11-0.19,0.24-0.36,0.36-0.55c0.62-1.03-0.95,1.06-0.15,0.17c0.37-0.41,0.72-0.81,1.13-1.18c0.23-0.21,0.54-0.41,0.74-0.64
				c-0.07,0.09-1.22,0.83-0.42,0.36c0.57-0.34,1.13-0.67,1.71-0.98c1.08-0.57-1.37,0.47-0.21,0.1c0.21-0.07,0.42-0.14,0.64-0.21
				c0.32-0.1,0.65-0.18,0.98-0.25c0.19-0.04,1.32-0.22,0.21-0.06s0.04,0.02,0.23,0.01c0.29-0.02,0.58-0.02,0.88-0.02
				c0.29,0,0.58,0.03,0.87,0.04c1.19,0.04-1.51-0.29-0.07,0c0.67,0.13,1.29,0.35,1.94,0.55c0.76,0.24-1.4-0.7-0.36-0.15
				c0.34,0.18,0.69,0.35,1.02,0.54c0.24,0.14,0.46,0.3,0.69,0.44c0.95,0.58-1.06-1-0.05-0.04c0.48,0.45,0.93,0.91,1.39,1.39
				c0.49,0.52,0.15,0.72-0.23-0.31c0.12,0.32,0.45,0.66,0.63,0.96c0.14,0.24,0.27,0.48,0.4,0.72c0.1,0.2,0.19,0.4,0.28,0.6
				c-0.36-0.88-0.46-1.1-0.29-0.66c0.2,0.65,0.42,1.27,0.55,1.94c0.14,0.7-0.19,0.79-0.03-0.41
				C263.33,110.37,263.45,110.9,263.46,111.33c0.04,3.14,2.73,6.15,6,6c3.22-0.14,6.04-2.64,6-6c-0.11-8.21-5.24-15.16-12.88-17.97
				c-7-2.58-15.66-0.22-20.41,5.51c-5.18,6.24-6.28,15.16-1.98,22.23c4.26,7,12.33,10.27,20.29,8.78
				c8.72-1.64,14.87-9.89,14.99-18.55c0.04-3.14-2.79-6.14-6-6C266.17,105.48,263.5,107.97,263.46,111.33z"/>
		</g>
	</g>
	<g>
		<g>
			<path class="st0" d="M196.76,111.33c0,0.35-0.03,0.7-0.04,1.05c-0.04,1.22,0.24-1.2,0.06-0.4c-0.13,0.61-0.25,1.21-0.45,1.8
				c-0.07,0.21-0.17,0.42-0.22,0.63c0.41-1.55,0.32-0.71,0.07-0.22c-0.28,0.56-0.82,1.11-1.02,1.68c0.32-0.89,0.74-0.89,0.34-0.44
				c-0.22,0.24-0.43,0.49-0.66,0.73c-0.38,0.39-0.85,0.7-1.21,1.1c1.04-1.11,0.64-0.49,0.15-0.17c-0.18,0.12-0.37,0.23-0.56,0.34
				c-0.29,0.16-0.58,0.3-0.88,0.46c-1.04,0.55,1.35-0.43,0.21-0.1c-0.54,0.16-1.06,0.34-1.62,0.46c-0.75,0.16-1.07-0.17,0.25,0
				c-0.26-0.03-0.6,0.05-0.87,0.06c-0.59,0.02-1.16-0.02-1.75-0.05c-0.82-0.04,1.59,0.33,0.41,0.05c-0.38-0.09-0.77-0.16-1.15-0.27
				c-0.27-0.08-0.53-0.17-0.8-0.25c-1.17-0.35,1.28,0.67,0.21,0.1c-0.49-0.26-0.97-0.5-1.44-0.8c-0.13-0.08-0.38-0.31-0.54-0.37
				c0.23,0.18,0.46,0.36,0.69,0.54c-0.17-0.14-0.34-0.28-0.5-0.42c-0.49-0.44-0.93-0.92-1.37-1.4c-0.77-0.85,0.58,0.99,0.24,0.3
				c-0.12-0.24-0.31-0.46-0.45-0.69c-0.28-0.46-0.46-1.02-0.77-1.46c0.81,1.16,0.33,0.82,0.13,0.19c-0.07-0.21-0.13-0.43-0.19-0.64
				c-0.09-0.33-0.15-0.66-0.23-0.99c-0.28-1.17,0.07,1.36,0.03,0.23c-0.02-0.64-0.05-1.28-0.01-1.92c0.05-0.68,0.39-0.81-0.08,0.4
				c0.11-0.3,0.13-0.69,0.2-1c0.13-0.52,0.44-1.08,0.5-1.6c-0.11,1.01-0.49,1.04-0.21,0.52c0.21-0.39,0.4-0.78,0.63-1.16
				c0.11-0.19,0.24-0.36,0.36-0.55c0.62-1.03-0.95,1.06-0.15,0.17c0.37-0.41,0.72-0.81,1.13-1.18c0.23-0.21,0.54-0.41,0.74-0.64
				c-0.07,0.09-1.22,0.83-0.42,0.36c0.57-0.34,1.13-0.67,1.71-0.98c1.08-0.57-1.37,0.47-0.21,0.1c0.21-0.07,0.42-0.14,0.64-0.21
				c0.32-0.1,0.65-0.18,0.98-0.25c0.19-0.04,1.32-0.22,0.21-0.06s0.04,0.02,0.23,0.01c0.29-0.02,0.58-0.02,0.88-0.02
				c0.29,0,0.58,0.03,0.87,0.04c1.19,0.04-1.51-0.29-0.07,0c0.67,0.13,1.29,0.35,1.94,0.55c0.76,0.24-1.4-0.7-0.36-0.15
				c0.34,0.18,0.69,0.35,1.02,0.54c0.24,0.14,0.46,0.3,0.69,0.44c0.95,0.58-1.06-1-0.05-0.04c0.48,0.45,0.93,0.91,1.39,1.39
				c0.49,0.52,0.15,0.72-0.23-0.31c0.12,0.32,0.45,0.66,0.63,0.96c0.14,0.24,0.27,0.48,0.4,0.72c0.1,0.2,0.19,0.4,0.28,0.6
				c-0.36-0.88-0.46-1.1-0.29-0.66c0.2,0.65,0.42,1.27,0.55,1.94c0.14,0.7-0.19,0.79-0.03-0.41
				C196.63,110.37,196.75,110.9,196.76,111.33c0.04,3.14,2.73,6.15,6,6c3.22-0.14,6.04-2.64,6-6c-0.11-8.21-5.24-15.16-12.88-17.97
				c-7-2.58-15.66-0.22-20.41,5.51c-5.18,6.24-6.28,15.16-1.98,22.23c4.26,7,12.33,10.27,20.29,8.78
				c8.72-1.64,14.87-9.89,14.99-18.55c0.04-3.14-2.79-6.14-6-6C199.47,105.48,196.8,107.97,196.76,111.33z"/>
		</g>
	</g>
	<g>
		<g>
			<path class="st0" d="M311.75,148.06c-1.62,0-3.23,0-4.85,0c-4.37,0-8.74,0-13.11,0c-6.46,0-12.91,0-19.37,0
				c-7.92,0-15.83,0-23.75,0c-8.63,0-17.26,0-25.89,0c-8.75,0-17.51,0-26.26,0c-8.12,0-16.25,0-24.37,0c-6.87,0-13.74,0-20.6,0
				c-4.96,0-9.93,0-14.89,0c-2.34,0-4.69-0.04-7.03,0c-0.1,0-0.2,0-0.31,0c-3.24,0-6,2.75-6,6c0,2.6,0.06,5.16,0.67,7.71
				c0.86,3.6,2.72,6.84,5.11,9.64c4.19,4.89,10.64,7.58,17.02,7.63c2.16,0.02,4.32,0,6.48,0c5.29,0,10.59,0,15.88,0
				c7.39,0,14.77,0,22.16,0c8.55,0,17.09,0,25.64,0c8.67,0,17.34,0,26.01,0c7.79,0,15.58,0,23.36,0c5.9,0,11.8,0,17.7,0
				c3.01,0,6.02,0,9.03,0c2.93,0,5.89-0.4,8.62-1.5c6.9-2.79,12.4-8.55,14.09-15.93c0.57-2.5,0.64-5,0.64-7.55
				C317.75,150.93,314.99,147.92,311.75,148.06c-3.25,0.15-6,2.64-6,6c0,0.72,0.01,1.45,0,2.17c0,0.59-0.04,1.18-0.09,1.77
				c-0.09,1.08,0.25-1.3,0.02-0.24c-0.1,0.44-0.18,0.88-0.3,1.32c-0.17,0.63-0.5,1.26-0.64,1.9c-0.01,0.03,0.58-1.2,0.27-0.68
				c-0.08,0.14-0.14,0.3-0.21,0.45c-0.17,0.34-0.36,0.68-0.55,1.01s-0.4,0.65-0.62,0.97c-0.09,0.13-0.2,0.26-0.28,0.4
				c-0.3,0.52,0.46-0.58,0.44-0.57c-0.53,0.41-0.94,1.09-1.43,1.56c-0.24,0.23-0.48,0.44-0.72,0.66c-0.11,0.1-0.28,0.2-0.38,0.31
				c-0.02,0.03,1.08-0.76,0.57-0.44c-0.65,0.4-1.26,0.86-1.94,1.22c-0.29,0.16-0.6,0.28-0.88,0.44c-0.52,0.31,0.7-0.28,0.68-0.27
				c-0.16,0.03-0.31,0.13-0.46,0.18c-0.74,0.26-1.48,0.49-2.25,0.66c-0.25,0.05-1.43,0.23-0.37,0.1c1.07-0.13-0.15,0.01-0.4,0.02
				c-0.41,0.03-0.82,0.04-1.23,0.04c-0.05,0-0.09,0-0.14,0c-2.38,0.01-4.77,0-7.16,0c-5.31,0-10.62,0-15.93,0
				c-7.34,0-14.68,0-22.01,0c-8.36,0-16.71,0-25.07,0c-8.47,0-16.94,0-25.41,0c-7.65,0-15.29,0-22.94,0c-5.89,0-11.78,0-17.67,0
				c-3.2,0-6.39,0-9.59,0c-0.27,0-0.54,0-0.81,0c-0.04,0-0.09,0-0.13,0c-0.41,0-0.82-0.02-1.22-0.04c-0.25-0.02-1.47-0.15-0.4-0.02
				c1.07,0.12-0.27-0.08-0.54-0.14c-0.71-0.16-1.4-0.39-2.08-0.62c-0.15-0.05-0.31-0.15-0.46-0.18c-0.03-0.01,1.2,0.58,0.68,0.27
				c-0.33-0.19-0.69-0.34-1.03-0.52c-0.62-0.34-1.18-0.79-1.79-1.14c-0.52-0.3,0.58,0.46,0.57,0.44c-0.09-0.12-0.26-0.21-0.38-0.31
				c-0.28-0.26-0.57-0.5-0.84-0.77c-0.45-0.44-0.83-1.07-1.32-1.45c-0.03-0.02,0.76,1.08,0.44,0.57c-0.11-0.18-0.25-0.36-0.38-0.54
				c-0.21-0.32-0.42-0.64-0.61-0.97c-0.16-0.28-0.32-0.57-0.47-0.87c-0.07-0.15-0.13-0.31-0.21-0.45c-0.31-0.52,0.28,0.7,0.27,0.68
				c-0.16-0.74-0.54-1.47-0.72-2.22c-0.08-0.33-0.14-0.66-0.22-0.99c-0.23-1.05,0.11,1.33,0.02,0.24c-0.05-0.59-0.08-1.18-0.09-1.77
				c-0.01-0.72,0-1.44,0-2.17c-2,2-4,4-6,6c1.62,0,3.23,0,4.85,0c4.37,0,8.74,0,13.11,0c6.46,0,12.91,0,19.37,0
				c7.92,0,15.83,0,23.75,0c8.63,0,17.26,0,25.89,0c8.75,0,17.51,0,26.26,0c8.12,0,16.25,0,24.37,0c6.87,0,13.74,0,20.6,0
				c4.96,0,9.93,0,14.89,0c2.34,0,4.69,0.04,7.03,0c0.1,0,0.2,0,0.31,0c3.14,0,6.15-2.76,6-6
				C317.61,150.81,315.12,148.06,311.75,148.06z"/>
		</g>
	</g>
	<g>
		<g>
			<path class="st0" d="M317.11,324.09c-4.48,0-8.97,0-13.45,0c-11.28,0-22.55,0-33.83,0c-14.72,0-29.45,0-44.17,0
				c-15.09,0-30.17,0-45.26,0c-12.06,0-24.13,0-36.19,0c-5.93,0-11.85,0.01-17.78,0c-0.14,0-0.28,0-0.42,0c-0.13,0-0.26,0-0.39,0
				c-0.35-0.01-0.69-0.04-1.03-0.06c-1.26-0.07,1.47,0.32,0.25,0.02c-0.65-0.16-1.3-0.3-1.94-0.52c-0.62-0.21-0.97-0.7,0.21,0.12
				c-0.25-0.18-0.61-0.29-0.88-0.43c-0.53-0.28-1.1-0.85-1.66-1.04c0.08,0.03,1.15,0.97,0.45,0.34c-0.24-0.22-0.49-0.42-0.73-0.65
				c-0.23-0.22-0.46-0.46-0.68-0.7c-0.15-0.16-0.29-0.32-0.43-0.49c-0.39-0.48-0.28-0.33,0.34,0.45c-0.19-0.47-0.63-0.92-0.88-1.37
				c-0.16-0.29-0.3-0.58-0.45-0.87c-0.57-1.07,0.47,1.38,0.09,0.22c-0.17-0.53-0.35-1.05-0.48-1.59c-0.07-0.3-0.08-0.71-0.2-0.99
				c0.13,1.04,0.15,1.23,0.08,0.58c-0.02-0.23-0.04-0.46-0.05-0.69c-0.11-2.2-0.02-4.43-0.02-6.63c0-12.28,0-24.55,0-36.83
				c0-14.58,0-29.16,0-43.74c0-4.76,0-9.53,0-14.29c0-1.15,0-2.31,0-3.46c0-0.21,0-0.41,0-0.62c0.01-0.59,0.07-1.17,0.1-1.75
				c-0.11,2.03,0.09-0.13,0.26-0.71c0.09-0.32,0.21-0.63,0.31-0.95c0.36-1.11-0.6,1.18-0.09,0.22c0.31-0.58,0.6-1.16,0.96-1.71
				c0.31-0.47,0.95-0.91-0.17,0.16c0.23-0.22,0.42-0.51,0.63-0.74c0.36-0.4,0.75-0.78,1.16-1.13c0.53-0.47,1-0.38-0.2,0.13
				c0.37-0.16,0.73-0.51,1.09-0.72c0.46-0.27,1.02-0.45,1.45-0.76c-1.18,0.82-0.83,0.33-0.21,0.12c0.31-0.11,0.63-0.21,0.95-0.29
				c0.33-0.09,0.65-0.15,0.98-0.22c0.48-0.12,0.84,0.09-0.59,0.06c0.57,0.01,1.15-0.1,1.73-0.1c0.32,0,0.65,0,0.97,0
				c2.33,0,4.65,0,6.98,0c9.93,0,19.86,0,29.79,0c14.17,0,28.34,0,42.51,0c15.31,0,30.63,0,45.94,0c13.07,0,26.15,0,39.22,0
				c7.73,0,15.46,0,23.18,0c0.7,0,1.4,0,2.09,0c0.14,0,0.27,0,0.41,0c0.36,0,0.71,0.01,1.07,0.04c0.19,0.01,1.35,0.1,0.22,0.01
				c-1.1-0.09-0.01,0.02,0.2,0.07c0.75,0.16,1.48,0.53,2.23,0.68c-1.42-0.28-0.81-0.36-0.24-0.07c0.19,0.1,0.39,0.2,0.58,0.31
				c0.28,0.16,0.56,0.33,0.83,0.51c0.47,0.31,0.91,0.95-0.16-0.17c0.4,0.43,0.91,0.77,1.32,1.2c0.19,0.19,0.37,0.39,0.55,0.59
				c1.05,1.2-0.48-0.8,0.06,0.07c0.35,0.56,0.7,1.09,1,1.68c0.09,0.18,0.17,0.43,0.28,0.59c-0.82-1.14-0.34-0.85-0.12-0.21
				s0.36,1.28,0.52,1.94c0.28,1.17-0.1-1.24-0.04-0.42c0.03,0.4,0.07,0.8,0.08,1.2c0.02,0.65,0,1.3,0,1.95c0,10.12,0,20.25,0,30.37
				c0,15.02,0,30.05,0,45.07c0,9.09,0,18.17,0,27.26c0,0.19,0,0.39,0,0.58c0,0.01,0,0.01,0,0.02c0,0.35-0.01,0.69-0.04,1.04
				c-0.01,0.11-0.02,0.23-0.03,0.34c-0.07,0.65-0.04,0.45,0.08-0.58c-0.2,0.48-0.22,1.12-0.37,1.64c-0.09,0.32-0.21,0.63-0.31,0.95
				c-0.38,1.16,0.66-1.29,0.09-0.22c-0.28,0.53-0.55,1.06-0.88,1.57c-0.14,0.21-0.36,0.44-0.46,0.67c0.51-1.2,0.6-0.73,0.13-0.2
				c-0.43,0.49-0.89,0.95-1.38,1.38c-0.15,0.13-0.36,0.27-0.5,0.42c1.05-1.12,0.65-0.49,0.16-0.17c-0.55,0.36-1.13,0.66-1.71,0.96
				c-1.07,0.57,1.38-0.46,0.22-0.09c-0.21,0.07-0.42,0.15-0.63,0.22c-0.62,0.2-1.37,0.23-1.95,0.47c0.31-0.04,0.61-0.08,0.92-0.12
				c-0.23,0.03-0.45,0.05-0.68,0.07C317.81,324.08,317.46,324.09,317.11,324.09c-3.14,0.04-6.15,2.73-6,6c0.14,3.22,2.64,6.04,6,6
				c7-0.08,13.34-3.61,17.18-9.44c2.18-3.3,3.17-7.31,3.18-11.23c0.01-2.92,0-5.83,0-8.75c0-13.38,0-26.76,0-40.14
				c0-14.15,0-28.3,0-42.46c0-3.88,0-7.76,0-11.64c0-0.65,0.01-1.3,0-1.95c-0.17-6.94-3.83-13.32-9.71-17.01
				c-6.19-3.88-14.02-3.01-21.01-3.01c-10.72,0-21.45,0-32.17,0c-14.73,0-29.45,0-44.18,0c-15.36,0-30.72,0-46.08,0
				c-12.63,0-25.26,0-37.89,0c-6.53,0-13.07,0-19.6,0c-0.52,0-1.04-0.01-1.56,0.02c-6.9,0.33-13.27,4.01-16.83,9.97
				c-2.6,4.36-2.84,9.02-2.84,13.87c0,11.54,0,23.09,0,34.63c0,14.98,0,29.97,0,44.95c0,5.3,0,10.59,0,15.89
				c0,2.31-0.13,4.67,0.04,6.97c0.5,6.87,4.17,13.22,10.24,16.65c3.15,1.78,6.71,2.66,10.32,2.67c1.78,0.01,3.56,0,5.33,0
				c9.23,0,18.47,0,27.7,0c14.02,0,28.05,0,42.07,0c15.52,0,31.03,0,46.55,0c13.61,0,27.22,0,40.83,0c8.34,0,16.67,0,25.01,0
				c1.14,0,2.28,0,3.42,0c3.14,0,6.15-2.76,6-6C322.97,326.84,320.48,324.09,317.11,324.09z"/>
		</g>
	</g>
</g>
</svg>
