<?xml version="1.0" encoding="utf-8"?>
<!-- Generator: Adobe Illustrator 26.5.0, SVG Export Plug-In . SVG Version: 6.00 Build 0)  -->
<svg version="1.1" id="Layer_1" xmlns="http://www.w3.org/2000/svg" xmlns:xlink="http://www.w3.org/1999/xlink" x="0px" y="0px"
	 viewBox="0 0 307.76 282.9" style="enable-background:new 0 0 307.76 282.9;" xml:space="preserve">
<style type="text/css">
	.st0{fill:#3C445B;}
</style>
<g>
	<g>
		<path class="st0" d="M67.28,156.5c-6.97,6.36-13.95,12.72-20.92,19.08c-0.99,0.9-1.98,1.81-2.97,2.71c0.71,0,1.41,0,2.12,0
			c-4-4.39-8.01-8.78-12.01-13.17c0,0.71,0,1.41,0,2.12c6.97-6.36,13.95-12.72,20.92-19.08c0.99-0.9,1.98-1.81,2.97-2.71
			c-0.71,0-1.41,0-2.12,0c4,4.39,8.01,8.78,12.01,13.17c1.3,1.43,3.42-0.7,2.12-2.12c-4-4.39-8.01-8.78-12.01-13.17
			c-0.56-0.62-1.54-0.53-2.12,0c-6.97,6.36-13.95,12.72-20.92,19.08c-0.99,0.9-1.98,1.81-2.97,2.71c-0.62,0.56-0.53,1.54,0,2.12
			c4,4.39,8.01,8.78,12.01,13.17c0.56,0.62,1.54,0.53,2.12,0c6.97-6.36,13.95-12.72,20.92-19.08c0.99-0.9,1.98-1.81,2.97-2.71
			C70.83,157.31,68.7,155.2,67.28,156.5z"/>
		<path class="st0" d="M108.38,253.36c-4.77,4.35-9.53,8.69-14.3,13.04c-0.68,0.62-1.36,1.24-2.03,1.85c0.71,0,1.41,0,2.12,0
			c-2.74-3-5.47-6-8.21-9c0,0.71,0,1.41,0,2.12c4.77-4.35,9.53-8.69,14.3-13.04c0.68-0.62,1.36-1.24,2.03-1.85
			c-0.71,0-1.41,0-2.12,0c2.74,3,5.47,6,8.21,9c1.3,1.43,3.42-0.7,2.12-2.12c-2.74-3-5.47-6-8.21-9c-0.56-0.62-1.54-0.53-2.12,0
			c-4.77,4.35-9.53,8.69-14.3,13.04c-0.68,0.62-1.36,1.24-2.03,1.85c-0.62,0.56-0.53,1.54,0,2.12c2.74,3,5.47,6,8.21,9
			c0.56,0.62,1.54,0.53,2.12,0c4.77-4.35,9.53-8.69,14.3-13.04c0.68-0.62,1.36-1.24,2.03-1.85
			C111.93,254.18,109.8,252.06,108.38,253.36z"/>
		<path class="st0" d="M108.2,209.91c0,7.52,0,15.04,0,22.55c0,1.74,0,3.48,0,5.23c0.15-0.35,0.29-0.71,0.44-1.06
			c-4.62,4.21-9.23,8.42-13.85,12.63c-1.39,1.26-2.77,2.53-4.16,3.79c0.84,0.22,1.67,0.44,2.51,0.66c-0.08-0.41-0.46-0.86-0.68-1.2
			c-0.53-0.85-1.07-1.69-1.6-2.54c-1.82-2.88-3.64-5.76-5.46-8.63c-4.35-6.88-8.7-13.75-13.04-20.63c-1.66-2.62-3.32-5.25-4.98-7.87
			c-3.92-6.2-7.84-12.4-11.76-18.6c-2.08-3.29-4.16-6.59-6.25-9.88c-1.14-1.8-2.16-3.81-3.47-5.49c-0.06-0.08-0.11-0.18-0.17-0.27
			c-0.08,0.61-0.16,1.21-0.23,1.82c6.98-6.36,13.95-12.72,20.93-19.08c0.99-0.9,1.98-1.81,2.97-2.71c-0.61,0.08-1.21,0.16-1.82,0.23
			c6.27,4.82,12.54,9.64,18.81,14.47c5.43,4.17,10.86,8.35,16.28,12.52c3.79,2.92,7.58,5.83,11.37,8.75
			c0.65,0.5,1.67,0.09,2.05-0.54c0.46-0.77,0.1-1.56-0.54-2.05c-5-3.85-10.01-7.7-15.01-11.55c-8.02-6.17-16.05-12.34-24.07-18.51
			c-2.46-1.89-4.92-3.79-7.38-5.68c-0.54-0.41-1.37-0.17-1.82,0.23c-6.98,6.36-13.95,12.72-20.93,19.08
			c-0.99,0.9-1.98,1.81-2.97,2.71c-0.47,0.43-0.58,1.28-0.23,1.82c2.73,4.32,5.46,8.64,8.19,12.96c4.14,6.55,8.29,13.1,12.43,19.66
			c1.57,2.48,3.14,4.97,4.71,7.45c4.14,6.55,8.28,13.1,12.42,19.65c2.02,3.19,4.03,6.38,6.05,9.57c1.09,1.72,2.09,3.56,3.29,5.2
			c0.2,0.27,0.1,0.41,0.01-0.1c0.22,1.17,1.74,1.36,2.51,0.66c5.22-4.75,10.43-9.51,15.64-14.27c1.02-0.93,2.74-1.96,2.8-3.45
			c0.07-1.64,0-3.29,0-4.92c0-3.6,0-7.19,0-10.79c0-3.95,0-7.89,0-11.84C111.2,207.98,108.2,207.97,108.2,209.91L108.2,209.91z"/>
		<path class="st0" d="M80.32,266.5c1.99-1.81,3.98-3.62,5.96-5.44c1.38-1.26,2.76-2.52,4.14-3.78c0.96-0.87,2.99-2.09,2.71-3.59
			c-0.13,0.49-0.26,0.97-0.39,1.46c4.68-4.27,9.37-8.53,14.05-12.8c1.32-1.21,2.64-2.41,3.96-3.62c1.43-1.3-0.7-3.42-2.12-2.12
			c-4.9,4.47-9.81,8.94-14.71,13.41c-0.87,0.79-1.73,1.58-2.6,2.37c-0.66,0.6-1.27,1.07-1.08,2.11c0.13-0.49,0.26-0.97,0.39-1.46
			c-4.14,3.78-8.29,7.56-12.43,11.33C76.77,265.69,78.9,267.8,80.32,266.5L80.32,266.5z"/>
		<path class="st0" d="M45.73,205.08c-1.9-2.74-3.81-5.48-5.71-8.22c-0.08,0.61-0.16,1.21-0.23,1.82
			c4.56-5.63,9.13-11.26,13.69-16.89c7.27-8.98,14.54-17.95,21.82-26.93c1.67-2.06,3.34-4.12,5-6.18c-0.71,0-1.41,0-2.12,0
			c3,3.29,6.01,6.59,9.01,9.88c1.3,1.43,3.42-0.7,2.12-2.12c-3-3.29-6.01-6.59-9.01-9.88c-0.51-0.55-1.63-0.61-2.12,0
			c-4.56,5.63-9.13,11.26-13.69,16.89c-7.27,8.98-14.54,17.95-21.82,26.93c-1.67,2.06-3.34,4.12-5,6.18
			c-0.4,0.49-0.64,1.24-0.23,1.82c1.9,2.74,3.81,5.48,5.71,8.22C44.24,208.17,46.84,206.67,45.73,205.08L45.73,205.08z"/>
		<path class="st0" d="M107.98,211.69c-11.44,0.63-22.88,1.28-34.32,1.92c-2.13,0.12-4.26,0.24-6.39,0.36c0.5,0.5,1,1,1.5,1.5
			c0.15-8.34,0.31-16.68,0.46-25.03c0.12-6.55,0.24-13.09,0.36-19.64c0.08-4.42,0.16-8.83,0.25-13.25c0.03-1.35-1.63-1.91-2.56-1.06
			c-6.98,6.36-13.95,12.72-20.93,19.08c-0.99,0.9-1.98,1.81-2.97,2.71c-1.03,0.94-0.15,2.47,1.06,2.56
			c7.78,0.57,15.56,1.15,23.34,1.72c7.91,0.58,15.81,1.17,23.72,1.75c3.57,0.26,7.14,0.53,10.71,0.79c-0.48-0.63-0.96-1.27-1.45-1.9
			c-1.47,9.86-2.94,19.72-4.41,29.58c-1.4,9.37-2.8,18.75-4.2,28.12c-0.46,3.09-0.92,6.19-1.38,9.28c-0.19,1.28-0.76,3.02-0.52,4.32
			c0.35,1.9,3.24,1.09,2.89-0.8c0.19,1.03-0.06,0.98,0.03,0.59c0.05-0.21,0.06-0.43,0.1-0.64c0.11-0.77,0.23-1.54,0.34-2.31
			c0.39-2.61,0.78-5.22,1.17-7.82c0.98-6.57,1.96-13.13,2.94-19.7c1.2-8.04,2.4-16.08,3.6-24.12c0.78-5.23,1.56-10.46,2.34-15.69
			c0.15-1.01-0.39-1.82-1.45-1.9c-8.32-0.61-16.64-1.23-24.96-1.84c-6.53-0.48-13.06-0.96-19.59-1.44
			c-4.41-0.32-8.81-0.65-13.22-0.97c0.35,0.85,0.71,1.71,1.06,2.56c6.98-6.36,13.95-12.72,20.93-19.08c0.99-0.9,1.98-1.81,2.97-2.71
			c-0.85-0.35-1.71-0.71-2.56-1.06c-0.14,7.8-0.29,15.6-0.43,23.4c-0.15,7.93-0.29,15.85-0.44,23.78c-0.07,3.58-0.13,7.16-0.2,10.74
			c-0.01,0.78,0.7,1.54,1.5,1.5c10.3-0.58,20.6-1.16,30.91-1.73c3.27-0.18,6.53-0.36,9.8-0.54
			C109.9,214.59,109.91,211.59,107.98,211.69L107.98,211.69z"/>
	</g>
	<g>
		<path class="st0" d="M242.31,134.56c-1.13,18.15,2.15,36.4,9.46,53.04c1.62,3.68,3.44,7.28,5.44,10.77
			c0.43-0.75,0.86-1.5,1.3-2.26c-17.92,0-35.85,0-53.77,0c-5.15,0-10.29,0-15.44,0c0.48,0.63,0.96,1.27,1.45,1.9
			c6.59-15.85,10.39-32.82,11.18-49.98c0.2-4.38,0.2-8.76,0.01-13.14c-0.08-1.92-3.08-1.93-3,0c0.73,17.16-1.55,34.37-6.81,50.72
			c-1.26,3.92-2.69,7.79-4.27,11.59c-0.38,0.92,0.57,1.9,1.45,1.9c17.92,0,35.85,0,53.77,0c5.15,0,10.29,0,15.44,0
			c1.14,0,1.86-1.27,1.3-2.26c-8.61-15.03-13.67-32-14.57-49.32c-0.22-4.33-0.19-8.66,0.08-12.98
			C245.43,132.63,242.43,132.64,242.31,134.56L242.31,134.56z"/>
		<path class="st0" d="M196.23,178.86c5.99,0,11.98,0,17.97,0c9.6,0,19.19,0,28.79,0c2.2,0,4.39,0,6.59,0c1.93,0,1.93-3,0-3
			c-5.99,0-11.98,0-17.97,0c-9.6,0-19.19,0-28.79,0c-2.2,0-4.39,0-6.59,0C194.3,175.86,194.3,178.86,196.23,178.86L196.23,178.86z"
			/>
		<path class="st0" d="M124.87,224.09c0-0.27-0.07-0.53-0.2-0.77c-0.08-0.1-0.16-0.2-0.23-0.3c0.04,0.05,0.03,0.04-0.03-0.05
			c-0.15-0.24-0.15-0.29-0.16-0.52c-0.01-0.09,0-0.17,0-0.26c0-0.53,0-1.07,0-1.6c0-1.48,0-2.96,0-4.44c0-0.34-0.02-0.69,0-1.04
			c-0.02,0.25,0.02-0.06,0.04-0.13c0.06-0.24-0.17,0.25,0.04-0.12c0.01-0.02,0.28-0.38,0.1-0.18c0.06-0.07,0.13-0.14,0.21-0.21
			c-0.2,0.17,0.48-0.2,0.23-0.12c0.03-0.01,0.48-0.08,0.2-0.06c0,0,0.11-0.01,0.17,0c1.1,0.03,2.2,0,3.3,0c1.25,0,2.51,0,3.76,0
			c1.93,0,1.93-3,0-3c-2.35,0-4.71-0.06-7.06,0c-2.41,0.06-3.99,1.97-3.99,4.29c0,1.43,0,2.85,0,4.28c0,0.74,0,1.49,0,2.23
			c0,1.16,0.31,2.15,1.07,3.05c-0.15-0.35-0.29-0.71-0.44-1.06c0,0,0,0.01,0,0.01C121.87,226.02,124.87,226.02,124.87,224.09
			L124.87,224.09z"/>
		<path class="st0" d="M111.2,209.91c0-4.1,0-8.19,0-12.29c-0.25,0.43-0.5,0.86-0.74,1.3c9.7-5.66,19.39-11.31,29.09-16.97
			c1.88-1.09,3.76-2.19,5.64-3.28c-0.75-0.43-1.5-0.86-2.26-1.3c0,6.64,0,13.29,0,19.93c0,1.23,1.25,1.75,2.26,1.3
			c4.95-2.24,9.9-4.48,14.85-6.72c7.9-3.58,15.8-7.15,23.7-10.73c1.83-0.83,3.66-1.66,5.49-2.48c-0.75-0.43-1.5-0.86-2.26-1.3
			c0,6.75,0,13.5,0,20.25c0,0.81,0.69,1.5,1.5,1.5c7.85,0,15.7,0,23.55,0c12.58,0,25.16,0,37.74,0c2.91,0,5.83,0,8.74,0
			c-0.5-0.5-1-1-1.5-1.5c0,7.91,0,15.83,0,23.74c0,12.56,0,25.12,0,37.69c0,2.89,0,5.78,0,8.66c0.5-0.5,1-1,1.5-1.5
			c-4.97,0-9.94,0-14.9,0c-11.84,0-23.68,0-35.51,0c-14.31,0-28.61,0-42.92,0c-12.37,0-24.74,0-37.11,0c-4.1,0-8.2,0-12.3,0
			c-1.9,0-3.93-0.21-5.81,0c-0.08,0.01-0.16,0-0.24,0c0.5,0.5,1,1,1.5,1.5c0-10.25,0-20.5,0-30.75c0-1.46,0-2.91,0-4.37
			c0-1.93-3-1.93-3,0c0,10.25,0,20.5,0,30.75c0,1.46,0,2.91,0,4.37c0,0.81,0.69,1.5,1.5,1.5c4.97,0,9.94,0,14.9,0
			c11.84,0,23.68,0,35.51,0c14.31,0,28.61,0,42.92,0c12.37,0,24.74,0,37.11,0c6.03,0,12.09,0.21,18.12,0c0.08,0,0.16,0,0.24,0
			c0.81,0,1.5-0.69,1.5-1.5c0-7.91,0-15.83,0-23.74c0-12.56,0-25.12,0-37.69c0-2.89,0-5.78,0-8.66c0-0.81-0.69-1.5-1.5-1.5
			c-7.97,0-15.94,0-23.91,0c-12.47,0-24.94,0-37.4,0c-2.91,0-5.82,0-8.73,0c0.5,0.5,1,1,1.5,1.5c0-6.75,0-13.5,0-20.25
			c0-1.23-1.25-1.75-2.26-1.3c-4.95,2.24-9.9,4.48-14.85,6.72c-7.9,3.58-15.8,7.15-23.7,10.73c-1.83,0.83-3.66,1.66-5.49,2.48
			c0.75,0.43,1.5,0.86,2.26,1.3c0-6.64,0-13.29,0-19.93c0-1.14-1.27-1.87-2.26-1.3c-6.73,3.92-13.45,7.84-20.18,11.76
			c-1.89,1.1-3.79,2.21-5.68,3.31c-2.1,1.22-4.19,2.45-6.29,3.67c-1.16,0.67-3.2,1.37-3.33,2.88c-0.18,2.11,0,4.32,0,6.44
			c0,1.92,0,3.85,0,5.77C108.2,211.84,111.2,211.84,111.2,209.91L111.2,209.91z"/>
		<path class="st0" d="M133.37,215.27c0,2.32,0.01,4.65,0,6.97c0,0.12,0.01,0.25-0.01,0.37c0.01-0.13-0.11,0.29-0.09,0.25
			c-0.02,0.04-0.21,0.31-0.08,0.15c-0.01,0.01-0.32,0.29-0.17,0.18c-0.36,0.26-0.5,0.22-1.04,0.22c-1.4,0-2.79,0-4.19,0
			c-0.7,0-1.4,0-2.09,0c-0.15,0-0.3,0-0.45,0c-0.39,0-0.53-0.1-0.81-0.39c0.15,0.35,0.29,0.71,0.44,1.06c0-0.54-0.34-0.84-0.51-1.19
			c-0.1-0.2-0.1-0.22-0.12-0.45c-0.01-0.1,0-0.2,0-0.3c0-0.64,0-1.28,0-1.93c0-1.53,0-3.06,0-4.59c0-0.12,0-0.23,0-0.35
			c0-0.32,0.09-0.56,0.4-0.81c-0.16,0.13,0.11-0.06,0.15-0.08c0.25-0.11-0.31,0.06,0.16-0.06c0.34-0.09-0.11-0.04,0.27-0.03
			c0.16,0,0.31,0,0.47,0c1.54,0,3.09,0,4.63,0c0.64,0,1.29-0.01,1.93,0C132.94,214.3,133.35,214.65,133.37,215.27
			c0.07,1.93,3.07,1.93,3,0c-0.06-1.74-1.16-3.34-2.88-3.83c-0.64-0.18-1.29-0.15-1.94-0.15c-1.77,0-3.55,0-5.32,0
			c-0.63,0-1.28-0.04-1.91,0.1c-1.68,0.38-2.89,1.85-3.06,3.54c-0.13,1.39-0.02,2.83-0.02,4.23c0,0.91,0,1.83,0,2.74
			c0,1.22,0.26,2.27,1.07,3.23c-0.15-0.35-0.29-0.71-0.44-1.06c0,1.56,2.12,2.31,3.38,2.34c0.46,0.01,0.93,0,1.4,0
			c1.63,0,3.27,0,4.9,0c0.53,0,1.05,0.02,1.58-0.08c1.47-0.25,2.71-1.41,3.1-2.84c0.16-0.57,0.14-1.16,0.14-1.74
			c0-0.75,0-1.49,0-2.24c0-1.42,0-2.83,0-4.25C136.37,213.34,133.37,213.33,133.37,215.27z"/>
		<path class="st0" d="M168.18,223.42c-2.37,0-4.74,0.01-7.11,0c-0.54,0-0.95-0.27-1.05-0.88c0.03,0.18,0-0.2,0-0.26
			c0-0.21,0-0.43,0-0.64c0-1.53,0-3.06,0-4.58c0-0.54,0-1.08,0-1.63c0-0.56,0.11-0.85,0.62-1.08c-0.17,0.08,0.07-0.02,0.09-0.02
			c0.42-0.12-0.18-0.02,0.26-0.03c0.02,0,0.04,0,0.07,0c0.18,0,0.36,0,0.55,0c0.69,0,1.38,0,2.08,0c1.39,0,2.79,0,4.18,0
			c0.1,0,0.2,0,0.3,0c0.15,0.01,0.24,0.02,0.1,0c0.1,0.02,0.22,0.05,0.31,0.09c-0.22-0.09,0.22,0.14,0.21,0.14
			c-0.15-0.11,0.17,0.18,0.17,0.18c-0.15-0.18,0.12,0.23,0.12,0.22c-0.03-0.07-0.06-0.19,0.02,0.09c0.09,0.33,0.04-0.09,0.03,0.27
			c0,0.13,0,0.27,0,0.4c0,1.66,0,3.31,0,4.97c0,0.57,0.01,1.13,0,1.7C169.15,222.99,168.77,223.4,168.18,223.42
			c-1.93,0.06-1.93,3.07,0,3c1.73-0.06,3.24-1.1,3.79-2.77c0.2-0.62,0.19-1.26,0.19-1.9c0-1.67,0-3.34,0-5.01
			c0-0.48,0.01-0.97,0-1.46c-0.04-1.46-0.78-2.85-2.11-3.54c-1.35-0.69-3.09-0.47-4.56-0.47c-1.46,0-2.93-0.02-4.39,0
			c-2.43,0.03-4.07,1.92-4.07,4.28c0,1.59,0,3.17,0,4.76c0,1.75-0.2,3.57,1.17,4.93c1.47,1.47,3.61,1.17,5.5,1.17
			c1.5,0,2.99,0,4.49,0C170.11,226.42,170.12,223.42,168.18,223.42z"/>
		<path class="st0" d="M239.29,223.42c-2.37,0-4.74,0.01-7.11,0c-0.54,0-0.95-0.27-1.05-0.88c0.03,0.18,0-0.2,0-0.26
			c0-0.21,0-0.43,0-0.64c0-1.53,0-3.06,0-4.58c0-0.54,0-1.08,0-1.63c0-0.56,0.11-0.85,0.62-1.08c-0.17,0.08,0.07-0.02,0.09-0.02
			c0.42-0.12-0.18-0.02,0.26-0.03c0.02,0,0.04,0,0.07,0c0.18,0,0.36,0,0.55,0c0.69,0,1.38,0,2.08,0c1.39,0,2.79,0,4.18,0
			c0.1,0,0.2,0,0.3,0c0.15,0.01,0.24,0.02,0.1,0c0.1,0.02,0.22,0.05,0.31,0.09c-0.22-0.09,0.22,0.14,0.21,0.14
			c-0.15-0.11,0.17,0.18,0.17,0.18c-0.15-0.18,0.12,0.23,0.12,0.22c-0.03-0.07-0.06-0.19,0.02,0.09c0.09,0.33,0.04-0.09,0.03,0.27
			c0,0.13,0,0.27,0,0.4c0,1.66,0,3.31,0,4.97c0,0.57,0.01,1.13,0,1.7C240.26,222.99,239.88,223.4,239.29,223.42
			c-1.93,0.06-1.93,3.07,0,3c1.73-0.06,3.24-1.1,3.79-2.77c0.2-0.62,0.19-1.26,0.19-1.9c0-1.67,0-3.34,0-5.01
			c0-0.48,0.01-0.97,0-1.46c-0.04-1.46-0.78-2.85-2.11-3.54c-1.35-0.69-3.09-0.47-4.56-0.47c-1.46,0-2.93-0.02-4.39,0
			c-2.43,0.03-4.07,1.92-4.07,4.28c0,1.59,0,3.17,0,4.76c0,1.75-0.2,3.57,1.17,4.93c1.47,1.47,3.61,1.17,5.5,1.17
			c1.5,0,2.99,0,4.49,0C241.22,226.42,241.22,223.42,239.29,223.42z"/>
		<path class="st0" d="M204.57,223.42c-2.37,0-4.74,0.01-7.11,0c-0.54,0-0.95-0.27-1.05-0.88c0.03,0.18,0-0.2,0-0.26
			c0-0.21,0-0.43,0-0.64c0-1.53,0-3.06,0-4.58c0-0.54,0-1.08,0-1.63c0-0.56,0.11-0.85,0.62-1.08c-0.17,0.08,0.07-0.02,0.09-0.02
			c0.42-0.12-0.18-0.02,0.26-0.03c0.02,0,0.04,0,0.07,0c0.18,0,0.36,0,0.55,0c0.69,0,1.38,0,2.08,0c1.39,0,2.79,0,4.18,0
			c0.1,0,0.2,0,0.3,0c0.15,0.01,0.24,0.02,0.1,0c0.1,0.02,0.22,0.05,0.31,0.09c-0.22-0.09,0.22,0.14,0.21,0.14
			c-0.15-0.11,0.17,0.18,0.17,0.18c-0.15-0.18,0.12,0.23,0.12,0.22c-0.03-0.07-0.06-0.19,0.02,0.09c0.09,0.33,0.04-0.09,0.03,0.27
			c0,0.13,0,0.27,0,0.4c0,1.66,0,3.31,0,4.97c0,0.57,0.01,1.13,0,1.7C205.54,222.99,205.16,223.4,204.57,223.42
			c-1.93,0.06-1.93,3.07,0,3c1.73-0.06,3.24-1.1,3.79-2.77c0.2-0.62,0.19-1.26,0.19-1.9c0-1.67,0-3.34,0-5.01
			c0-0.48,0.01-0.97,0-1.46c-0.04-1.46-0.78-2.85-2.11-3.54c-1.35-0.69-3.09-0.47-4.56-0.47c-1.46,0-2.93-0.02-4.39,0
			c-2.43,0.03-4.07,1.92-4.07,4.28c0,1.59,0,3.17,0,4.76c0,1.75-0.2,3.57,1.17,4.93c1.47,1.47,3.61,1.17,5.5,1.17
			c1.5,0,2.99,0,4.49,0C206.5,226.42,206.5,223.42,204.57,223.42z"/>
		<path class="st0" d="M246.29,133.06c-5.5,0-11,0-16.51,0c-8.82,0-17.63,0-26.45,0c-2.01,0-4.03,0-6.04,0c0.5,0.5,1,1,1.5,1.5
			c0-6.58,0-13.15,0-19.73c0-0.94,0-1.87,0-2.81c-0.5,0.5-1,1-1.5,1.5c5.5,0,11,0,16.51,0c8.82,0,17.63,0,26.45,0
			c2.01,0,4.03,0,6.04,0c-0.5-0.5-1-1-1.5-1.5c0,6.58,0,13.15,0,19.73c0,0.94,0,1.87,0,2.81c0,1.93,3,1.93,3,0
			c0-6.58,0-13.15,0-19.73c0-0.94,0-1.87,0-2.81c0-0.81-0.69-1.5-1.5-1.5c-5.5,0-11,0-16.51,0c-8.82,0-17.63,0-26.45,0
			c-2.01,0-4.03,0-6.04,0c-0.81,0-1.5,0.69-1.5,1.5c0,6.58,0,13.15,0,19.73c0,0.94,0,1.87,0,2.81c0,0.81,0.69,1.5,1.5,1.5
			c5.5,0,11,0,16.51,0c8.82,0,17.63,0,26.45,0c2.01,0,4.03,0,6.04,0C248.22,136.06,248.23,133.06,246.29,133.06z"/>
	</g>
	<path class="st0" d="M242.75,151.08c-6.95,9.55-13.9,19.1-20.84,28.66c-0.97,1.33-1.93,2.65-2.9,3.98
		c-0.51,0.7-0.07,1.62,0.54,2.05c2.63,1.88,5.26,3.75,7.89,5.63c-0.23-0.56-0.46-1.13-0.69-1.69c-2.3,9.45-4.61,18.89-6.91,28.34
		c-0.33,1.34-0.65,2.67-0.98,4.01c-0.46,1.88,2.43,2.68,2.89,0.8c2.3-9.45,4.61-18.89,6.91-28.34c0.33-1.34,0.65-2.67,0.98-4.01
		c0.17-0.7-0.13-1.29-0.69-1.69c-2.63-1.88-5.26-3.75-7.89-5.63c0.18,0.68,0.36,1.37,0.54,2.05c6.95-9.55,13.9-19.1,20.84-28.66
		c0.97-1.33,1.93-2.65,2.9-3.98C246.47,151.03,243.87,149.53,242.75,151.08L242.75,151.08z"/>
	<path class="st0" d="M204.27,188.59c4.8-0.78,9.59-1.56,14.39-2.34c0.68-0.11,1.36-0.22,2.04-0.33c0.8-0.13,1.25-1.12,1.05-1.85
		c-0.23-0.85-1.04-1.18-1.85-1.05c-4.8,0.78-9.59,1.56-14.39,2.34c-0.68,0.11-1.36,0.22-2.04,0.33c-0.8,0.13-1.25,1.12-1.05,1.85
		C202.66,188.39,203.46,188.72,204.27,188.59L204.27,188.59z"/>
	<path class="st0" d="M148.35,268.1c1.87-6.04,3.73-12.08,5.6-18.12c0.89-2.89,1.78-5.77,2.68-8.66c0.19-0.62,0.2-1.14,0.1-1.79
		c-0.24-1.53-0.49-3.06-0.73-4.59c-0.56-3.53-1.13-7.06-1.69-10.59c-0.3-1.9-3.19-1.09-2.89,0.8c0.47,2.97,0.95,5.94,1.42,8.91
		c0.29,1.79,0.57,3.59,0.86,5.38c0.06,0.39,0.07,0.86,0.2,1.24c0,0.01,0.22-1.05-0.06-0.48c-0.41,0.83-0.58,1.89-0.86,2.77
		c-0.51,1.66-1.02,3.31-1.54,4.97c-1.24,4-2.47,8.01-3.71,12.01c-0.76,2.44-1.51,4.89-2.27,7.33
		C144.89,269.15,147.78,269.95,148.35,268.1L148.35,268.1z"/>
	<path class="st0" d="M155.35,241.88c7.17,0,14.35,0,21.52,0c1.04,0,2.09,0,3.13,0c0.73,0,1.19-0.48,1.45-1.1
		c1.37-3.27,2.74-6.55,4.11-9.82c0.31-0.75-0.34-1.64-1.05-1.85c-0.86-0.25-1.53,0.3-1.85,1.05c-1.37,3.27-2.74,6.55-4.11,9.82
		c0.48-0.37,0.96-0.73,1.45-1.1c-7.17,0-14.35,0-21.52,0c-1.04,0-2.09,0-3.13,0C153.42,238.88,153.42,241.88,155.35,241.88
		L155.35,241.88z"/>
	<path class="st0" d="M211.64,255.85c4.13-1.01,8.26-2.02,12.4-3.03c-0.62-0.35-1.23-0.7-1.85-1.05c1.67,4.22,3.34,8.45,5.01,12.67
		c0.24,0.62,0.49,1.23,0.73,1.85c0.3,0.75,1,1.28,1.85,1.05c0.72-0.2,1.35-1.09,1.05-1.85c-1.67-4.22-3.34-8.45-5.01-12.67
		c-0.24-0.62-0.49-1.23-0.73-1.85c-0.3-0.77-0.99-1.26-1.85-1.05c-4.13,1.01-8.26,2.02-12.4,3.03
		C208.96,253.42,209.76,256.31,211.64,255.85L211.64,255.85z"/>
</g>
</svg>
