<?xml version="1.0" encoding="utf-8"?>
<!-- Generator: Adobe Illustrator 26.5.0, SVG Export Plug-In . SVG Version: 6.00 Build 0)  -->
<svg version="1.1" id="Layer_1" xmlns="http://www.w3.org/2000/svg" xmlns:xlink="http://www.w3.org/1999/xlink" x="0px" y="0px"
	 viewBox="0 0 472.54 472.54" style="enable-background:new 0 0 472.54 472.54;" xml:space="preserve">
<style type="text/css">
	.st0{fill:#3C445B;}
</style>
<g id="Layer_1_00000150817825922069742890000004712814380121826469_">
	<g>
		<g>
			<g>
				<g>
					<path class="st0" d="M166.68,245.71c-8.02,4.99-16.03,9.97-24.05,14.96c-1.14,0.71-2.28,1.42-3.42,2.13
						c0.68,0.18,1.37,0.36,2.05,0.54c-3.14-5.05-6.28-10.09-9.42-15.14c-0.18,0.68-0.36,1.37-0.54,2.05
						c8.02-4.99,16.03-9.97,24.05-14.96c1.14-0.71,2.28-1.42,3.42-2.13c-0.68-0.18-1.37-0.36-2.05-0.54
						c3.14,5.05,6.28,10.09,9.42,15.14c1.02,1.64,3.61,0.13,2.59-1.51c-3.14-5.05-6.28-10.09-9.42-15.14
						c-0.42-0.67-1.35-0.98-2.05-0.54c-8.02,4.99-16.03,9.97-24.05,14.96c-1.14,0.71-2.28,1.42-3.42,2.13
						c-0.67,0.42-0.98,1.35-0.54,2.05c3.14,5.05,6.28,10.09,9.42,15.14c0.42,0.67,1.35,0.98,2.05,0.54
						c8.02-4.99,16.03-9.97,24.05-14.96c1.14-0.71,2.28-1.42,3.42-2.13C169.83,247.29,168.33,244.69,166.68,245.71z"/>
				</g>
			</g>
			<g>
				<g>
					<path class="st0" d="M189.46,348.44c-5.47,3.4-10.94,6.8-16.41,10.21c-0.79,0.49-1.57,0.98-2.36,1.47
						c0.68,0.18,1.37,0.36,2.05,0.54c-2.15-3.45-4.29-6.9-6.44-10.35c-0.18,0.68-0.36,1.37-0.54,2.05
						c5.47-3.4,10.94-6.8,16.41-10.21c0.79-0.49,1.57-0.98,2.36-1.47c-0.68-0.18-1.37-0.36-2.05-0.54c2.15,3.45,4.29,6.9,6.44,10.35
						c1.02,1.64,3.61,0.13,2.59-1.51c-2.15-3.45-4.29-6.9-6.44-10.35c-0.42-0.67-1.35-0.98-2.05-0.54
						c-5.47,3.4-10.94,6.8-16.41,10.21c-0.79,0.49-1.57,0.98-2.36,1.47c-0.67,0.42-0.98,1.35-0.54,2.05
						c2.15,3.45,4.29,6.9,6.44,10.35c0.42,0.67,1.35,0.98,2.05,0.54c5.47-3.4,10.94-6.8,16.41-10.21c0.79-0.49,1.57-0.98,2.36-1.47
						C192.61,350.01,191.11,347.42,189.46,348.44z"/>
				</g>
			</g>
			<g>
				<g>
					<path class="st0" d="M222.96,315.96C222.96,315.96,222.96,315.95,222.96,315.96c0.01-0.22-0.04-0.41-0.13-0.59
						c-0.06-0.19-0.16-0.35-0.31-0.48c-0.14-0.15-0.3-0.25-0.48-0.31c-0.18-0.09-0.37-0.14-0.58-0.13c-0.13,0.02-0.27,0.04-0.4,0.05
						c-0.25,0.07-0.47,0.2-0.66,0.39c-0.08,0.1-0.16,0.2-0.23,0.3c-0.14,0.23-0.2,0.49-0.2,0.76v0.01c-0.01,0.21,0.04,0.4,0.13,0.58
						c0.06,0.19,0.16,0.35,0.31,0.48c0.14,0.15,0.3,0.25,0.48,0.31c0.18,0.09,0.37,0.14,0.58,0.13c0.13-0.02,0.27-0.04,0.4-0.05
						c0.25-0.07,0.47-0.2,0.66-0.39c0.08-0.1,0.16-0.2,0.23-0.3C222.89,316.48,222.96,316.23,222.96,315.96L222.96,315.96z"/>
				</g>
			</g>
			<g>
				<g>
					<path class="st0" d="M194.79,308.93c0,6.66,0,13.31,0,19.97c0,0.9,0,1.81,0,2.71c0.25-0.43,0.5-0.86,0.74-1.3
						c-5.95,3.7-11.9,7.4-17.85,11.1c-1.87,1.16-3.74,2.32-5.61,3.49c0.75,0.43,1.5,0.86,2.26,1.3c0-0.46-0.25-0.91-0.42-1.32
						c-0.37-0.93-0.74-1.86-1.11-2.78c-1.27-3.16-2.53-6.32-3.8-9.48c-3.02-7.55-6.05-15.11-9.07-22.66
						c-1.15-2.88-2.31-5.77-3.46-8.65c-2.73-6.81-5.45-13.62-8.18-20.43c-1.45-3.62-2.9-7.23-4.34-10.85
						c-0.79-1.97-1.42-4.16-2.42-6.03c-0.05-0.09-0.08-0.2-0.12-0.29c-0.23,0.56-0.46,1.13-0.69,1.69
						c8.02-4.98,16.03-9.97,24.05-14.95c1.14-0.71,2.28-1.42,3.42-2.13c-0.61-0.08-1.21-0.16-1.82-0.23
						c5.29,5.88,10.57,11.77,15.86,17.65c4.58,5.09,9.15,10.19,13.73,15.28c3.2,3.56,6.39,7.11,9.59,10.67
						c1.29,1.44,3.41-0.69,2.12-2.12c-4.22-4.7-8.44-9.39-12.66-14.09c-6.77-7.53-13.53-15.06-20.3-22.58
						c-2.08-2.31-4.15-4.62-6.23-6.93c-0.43-0.48-1.28-0.57-1.82-0.23c-8.02,4.98-16.03,9.97-24.05,14.95
						c-1.14,0.71-2.28,1.42-3.42,2.13c-0.51,0.32-0.94,1.08-0.69,1.69c1.9,4.74,3.8,9.49,5.7,14.23c2.88,7.2,5.76,14.39,8.64,21.59
						c1.09,2.73,2.18,5.46,3.28,8.19c2.88,7.2,5.76,14.39,8.64,21.59c1.4,3.5,2.81,7.01,4.21,10.51c0.75,1.87,1.35,3.93,2.29,5.72
						c0.14,0.26,0.06,0.49,0.06-0.11c0,1.11,1.28,1.9,2.26,1.3c5.53-3.43,11.05-6.87,16.57-10.31c1.87-1.17,3.75-2.33,5.62-3.5
						c0.97-0.6,1.96-1.02,2-2.31c0.14-3.69,0-7.42,0-11.11c0-3.78,0-7.56,0-11.34C197.79,307,194.79,307,194.79,308.93
						L194.79,308.93z"/>
				</g>
			</g>
			<g>
				<g>
					<path class="st0" d="M211.02,322.04c-0.13-0.16-0.19-0.36-0.19-0.6c0-0.14,0-0.28,0-0.41c0-0.59,0-1.18,0-1.78
						c0-1.43,0-2.87,0-4.3c0-0.17,0-0.35,0-0.52c0-0.04,0-0.08,0-0.12c-0.01-0.35-0.02,0.08,0.02-0.23
						c0.05-0.39-0.06,0.06,0.03-0.13c0.05-0.11,0.11-0.22,0.19-0.32c-0.14,0.19,0.05-0.05,0.1-0.08c0.2-0.16-0.29,0.13,0.1-0.08
						c-0.02,0.01,0.4-0.18,0.22-0.12c-0.18,0.07,0.28-0.06,0.25-0.05c-0.23,0.03,0.02,0.01,0.1,0.01c1.13,0.02,2.26,0,3.38,0
						c1.22,0,2.43,0,3.65,0c1.93,0,1.93-3,0-3c-2.35,0-4.71-0.06-7.06,0c-2.41,0.06-3.99,1.97-3.99,4.29c0,1.43,0,2.85,0,4.28
						c0,0.74,0,1.49,0,2.23c0,1.16,0.31,2.15,1.07,3.05c0.52,0.62,1.58,0.54,2.12,0C211.64,323.55,211.55,322.66,211.02,322.04
						L211.02,322.04z"/>
				</g>
			</g>
			<g>
				<g>
					<path class="st0" d="M222.96,315.96C222.96,315.96,222.96,315.95,222.96,315.96c0.01-0.22-0.04-0.41-0.13-0.59
						c-0.06-0.19-0.16-0.35-0.31-0.48c-0.14-0.15-0.3-0.25-0.48-0.31c-0.18-0.09-0.37-0.14-0.58-0.13c-0.13,0.02-0.27,0.04-0.4,0.05
						c-0.25,0.07-0.47,0.2-0.66,0.39c-0.08,0.1-0.16,0.2-0.23,0.3c-0.14,0.23-0.2,0.49-0.2,0.76v0.01c-0.01,0.21,0.04,0.4,0.13,0.58
						c0.06,0.19,0.16,0.35,0.31,0.48c0.14,0.15,0.3,0.25,0.48,0.31c0.18,0.09,0.37,0.14,0.58,0.13c0.13-0.02,0.27-0.04,0.4-0.05
						c0.25-0.07,0.47-0.2,0.66-0.39c0.08-0.1,0.16-0.2,0.23-0.3C222.89,316.48,222.96,316.23,222.96,315.96L222.96,315.96z"/>
				</g>
			</g>
			<g>
				<g>
					<path class="st0" d="M211.46,323.11v-0.01c0.01-0.21-0.04-0.4-0.13-0.58c-0.06-0.19-0.16-0.35-0.31-0.48
						c-0.14-0.15-0.3-0.25-0.48-0.31c-0.18-0.09-0.37-0.14-0.58-0.13c-0.13,0.02-0.27,0.04-0.4,0.05c-0.25,0.07-0.47,0.2-0.66,0.39
						c-0.08,0.1-0.16,0.2-0.23,0.3c-0.14,0.23-0.2,0.49-0.2,0.76v0.01c-0.01,0.21,0.04,0.4,0.13,0.58c0.06,0.19,0.16,0.35,0.31,0.48
						c0.14,0.15,0.3,0.25,0.48,0.31c0.18,0.09,0.37,0.14,0.58,0.13c0.13-0.02,0.27-0.04,0.4-0.05c0.25-0.07,0.47-0.2,0.66-0.39
						c0.08-0.1,0.16-0.2,0.23-0.3C211.39,323.63,211.46,323.38,211.46,323.11L211.46,323.11z"/>
				</g>
			</g>
			<g>
				<g>
					<path class="st0" d="M159.3,356.38c2.28-1.42,4.57-2.84,6.85-4.26c1.59-0.99,3.18-1.97,4.76-2.96
						c0.97-0.61,3.42-1.59,3.42-2.97c-0.25,0.43-0.5,0.86-0.74,1.3c6.53-4.05,13.05-8.11,19.58-12.16c1-0.62,2-1.24,3-1.86
						c0.72-0.45,1.63-0.86,1.63-1.86c0-1.93-3-1.93-3,0v0.01c0.25-0.43,0.5-0.86,0.74-1.3c-6.28,3.9-12.55,7.81-18.83,11.71
						c-1.16,0.72-2.33,1.44-3.49,2.17c-0.77,0.48-1.88,0.95-1.88,2.01c0.25-0.43,0.5-0.86,0.74-1.3c-4.76,2.96-9.53,5.92-14.29,8.88
						C156.15,354.8,157.65,357.4,159.3,356.38L159.3,356.38z"/>
				</g>
			</g>
			<g>
				<g>
					<path class="st0" d="M135.81,282.48c-2.35-3.78-4.71-7.57-7.06-11.35c-0.18,0.68-0.36,1.37-0.54,2.05
						c5.9-3.67,11.81-7.34,17.71-11.02c9.42-5.86,18.84-11.72,28.27-17.58c2.18-1.35,4.35-2.71,6.53-4.06
						c-0.68-0.18-1.37-0.36-2.05-0.54c2.35,3.78,4.71,7.57,7.06,11.35c1.02,1.64,3.61,0.13,2.59-1.51
						c-2.35-3.78-4.71-7.57-7.06-11.35c-0.42-0.67-1.35-0.98-2.05-0.54c-5.9,3.67-11.81,7.34-17.71,11.02
						c-9.42,5.86-18.84,11.72-28.27,17.58c-2.18,1.35-4.35,2.71-6.53,4.06c-0.67,0.42-0.98,1.35-0.54,2.05
						c2.35,3.78,4.71,7.57,7.06,11.35C134.23,285.63,136.83,284.12,135.81,282.48L135.81,282.48z"/>
				</g>
			</g>
			<g>
				<g>
					<path class="st0" d="M218.88,313.31c0.23,0.03,0.47,0.06,0.7,0.09c0.03,0,0.07,0.01,0.1,0.01c-0.25-0.07-0.5-0.14-0.76-0.2
						c0.11,0.08,0.24,0.13,0.37,0.16c0.07,0.02,0.13,0.03,0.2,0.03c0.07,0.02,0.14,0.02,0.21,0.03c0.21,0.01,0.4-0.04,0.58-0.13
						c0.19-0.06,0.35-0.16,0.48-0.31c0.15-0.14,0.25-0.3,0.31-0.48c0.09-0.18,0.14-0.37,0.13-0.58c-0.02-0.13-0.04-0.27-0.05-0.4
						c-0.07-0.25-0.2-0.47-0.39-0.66c-0.1-0.08-0.2-0.16-0.3-0.23c-0.23-0.14-0.49-0.2-0.76-0.2h-0.01c0.13,0.02,0.27,0.04,0.4,0.05
						h-0.01c0.12,0.05,0.24,0.1,0.36,0.15c-0.24-0.17-0.51-0.18-0.78-0.21c-0.02,0-0.04,0-0.05-0.01c-0.06-0.01-0.13-0.02-0.19-0.02
						c-0.15-0.02-0.29-0.04-0.44-0.06c-0.03,0-0.07-0.01-0.1-0.01c-0.21-0.01-0.4,0.04-0.58,0.13c-0.19,0.06-0.35,0.16-0.48,0.31
						c-0.15,0.14-0.25,0.3-0.31,0.48c-0.09,0.18-0.14,0.37-0.13,0.58c0.02,0.13,0.04,0.27,0.05,0.4c0.07,0.25,0.2,0.47,0.39,0.66
						c0.1,0.08,0.2,0.16,0.3,0.23C218.36,313.24,218.61,313.31,218.88,313.31L218.88,313.31z"/>
				</g>
			</g>
			<g>
				<g>
					<path class="st0" d="M196.29,307.43c-11.36-1.46-22.73-2.91-34.09-4.36c-2.12-0.27-4.23-0.54-6.35-0.81
						c0.48,0.63,0.96,1.27,1.45,1.9c1.67-8.18,3.34-16.35,5.01-24.53c1.31-6.41,2.62-12.83,3.93-19.24
						c0.88-4.33,1.77-8.65,2.65-12.98c0.25-1.22-1.03-2.43-2.2-1.69c-8.02,4.98-16.03,9.97-24.05,14.95
						c-1.14,0.71-2.28,1.42-3.42,2.13c-1.07,0.67-0.92,2.41,0.36,2.74c7.55,1.98,15.09,3.96,22.64,5.94
						c7.67,2.01,15.34,4.02,23,6.04c3.46,0.91,6.92,1.82,10.39,2.73c-0.35-0.62-0.7-1.23-1.05-1.85
						c-3.24,9.43-6.48,18.85-9.72,28.28c-3.08,8.96-6.16,17.93-9.24,26.89c-1,2.91-2,5.82-3,8.73c-0.3,0.87-0.6,1.75-0.9,2.62
						c-0.14,0.4-0.36,0.85-0.36,1.29c0,1.93,3,1.93,3,0c0,0.79,0.11-0.08,0.22-0.41c0.25-0.74,0.51-1.47,0.76-2.21
						c0.86-2.49,1.71-4.99,2.57-7.48c2.16-6.28,4.32-12.56,6.48-18.84c2.64-7.69,5.29-15.38,7.93-23.06c1.72-5,3.44-10,5.16-15.01
						c0.26-0.76-0.3-1.65-1.05-1.85c-8.07-2.12-16.14-4.24-24.21-6.35c-6.33-1.66-12.67-3.32-19-4.98
						c-4.27-1.12-8.55-2.24-12.82-3.36c0.12,0.91,0.24,1.83,0.36,2.74c8.02-4.98,16.03-9.97,24.05-14.95
						c1.14-0.71,2.28-1.42,3.42-2.13c-0.73-0.56-1.47-1.13-2.2-1.69c-1.56,7.64-3.12,15.29-4.69,22.93
						c-1.59,7.77-3.17,15.53-4.76,23.3c-0.72,3.51-1.43,7.01-2.15,10.52c-0.21,1.05,0.44,1.77,1.45,1.9
						c10.24,1.31,20.47,2.61,30.71,3.92c3.24,0.42,6.49,0.83,9.73,1.25C198.2,310.68,198.18,307.67,196.29,307.43L196.29,307.43z"/>
				</g>
			</g>
		</g>
		<g>
			<g>
				<g>
					<path class="st0" d="M328.9,233.59c-1.13,18.15,2.15,36.4,9.46,53.04c1.62,3.68,3.44,7.28,5.44,10.77
						c0.43-0.75,0.86-1.5,1.3-2.26c-17.92,0-35.85,0-53.77,0c-5.15,0-10.29,0-15.44,0c0.48,0.63,0.96,1.27,1.45,1.9
						c6.59-15.85,10.39-32.82,11.18-49.98c0.2-4.38,0.2-8.76,0.01-13.14c-0.08-1.92-3.08-1.93-3,0c0.73,17.16-1.55,34.37-6.81,50.72
						c-1.26,3.92-2.69,7.79-4.27,11.59c-0.38,0.92,0.57,1.9,1.45,1.9c17.92,0,35.85,0,53.77,0c5.15,0,10.29,0,15.44,0
						c1.14,0,1.86-1.27,1.3-2.26c-8.61-15.03-13.67-32-14.57-49.32c-0.22-4.33-0.19-8.66,0.08-12.98
						C332.02,231.66,329.02,231.66,328.9,233.59L328.9,233.59z"/>
				</g>
			</g>
			<g>
				<g>
					<path class="st0" d="M282.82,277.89c5.99,0,11.98,0,17.97,0c9.6,0,19.19,0,28.79,0c2.2,0,4.39,0,6.59,0c1.93,0,1.93-3,0-3
						c-5.99,0-11.98,0-17.97,0c-9.6,0-19.19,0-28.79,0c-2.2,0-4.39,0-6.59,0C280.89,274.89,280.88,277.89,282.82,277.89
						L282.82,277.89z"/>
				</g>
			</g>
			<g>
				<g>
					<path class="st0" d="M211.46,323.11c0-0.27-0.07-0.53-0.2-0.77c-0.08-0.1-0.16-0.2-0.23-0.3c0.04,0.05,0.03,0.04-0.03-0.05
						c-0.15-0.24-0.15-0.29-0.16-0.52c-0.01-0.09,0-0.17,0-0.26c0-0.53,0-1.07,0-1.6c0-1.48,0-2.96,0-4.44c0-0.34-0.02-0.69,0-1.04
						c-0.02,0.25,0.02-0.06,0.04-0.13c0.06-0.24-0.17,0.25,0.04-0.12c0.01-0.02,0.28-0.38,0.1-0.18c0.06-0.07,0.13-0.14,0.21-0.21
						c-0.2,0.17,0.48-0.2,0.23-0.12c0.03-0.01,0.48-0.08,0.2-0.06c0,0,0.11-0.01,0.17,0c1.1,0.03,2.2,0,3.3,0c1.25,0,2.51,0,3.76,0
						c1.93,0,1.93-3,0-3c-2.35,0-4.71-0.06-7.06,0c-2.41,0.06-3.99,1.97-3.99,4.29c0,1.43,0,2.85,0,4.28c0,0.74,0,1.49,0,2.23
						c0,1.16,0.31,2.15,1.07,3.05c-0.15-0.35-0.29-0.71-0.44-1.06v0.01C208.46,325.04,211.46,325.05,211.46,323.11L211.46,323.11z"
						/>
				</g>
			</g>
			<g>
				<g>
					<path class="st0" d="M197.79,308.93c0-4.1,0-8.19,0-12.29c-0.25,0.43-0.5,0.86-0.74,1.3c9.7-5.66,19.39-11.31,29.09-16.97
						c1.88-1.09,3.76-2.19,5.64-3.28c-0.75-0.43-1.5-0.86-2.26-1.3c0,6.64,0,13.29,0,19.93c0,1.23,1.25,1.75,2.26,1.3
						c4.95-2.24,9.9-4.48,14.85-6.72c7.9-3.58,15.8-7.15,23.7-10.73c1.83-0.83,3.66-1.66,5.49-2.48c-0.75-0.43-1.5-0.86-2.26-1.3
						c0,6.75,0,13.5,0,20.25c0,0.81,0.69,1.5,1.5,1.5c7.85,0,15.7,0,23.55,0c12.58,0,25.16,0,37.74,0c2.91,0,5.83,0,8.74,0
						c-0.5-0.5-1-1-1.5-1.5c0,7.91,0,15.83,0,23.74c0,12.56,0,25.12,0,37.69c0,2.89,0,5.78,0,8.66c0.5-0.5,1-1,1.5-1.5
						c-4.97,0-9.94,0-14.9,0c-11.84,0-23.68,0-35.51,0c-14.31,0-28.61,0-42.92,0c-12.37,0-24.74,0-37.11,0c-4.1,0-8.2,0-12.3,0
						c-1.9,0-3.93-0.21-5.81,0c-0.08,0.01-0.16,0-0.24,0c0.5,0.5,1,1,1.5,1.5c0-10.25,0-20.5,0-30.75c0-1.46,0-2.91,0-4.37
						c0-1.93-3-1.93-3,0c0,10.25,0,20.5,0,30.75c0,1.46,0,2.91,0,4.37c0,0.81,0.69,1.5,1.5,1.5c4.97,0,9.94,0,14.9,0
						c11.84,0,23.68,0,35.51,0c14.31,0,28.61,0,42.92,0c12.37,0,24.74,0,37.11,0c6.03,0,12.09,0.21,18.12,0c0.08,0,0.16,0,0.24,0
						c0.81,0,1.5-0.69,1.5-1.5c0-7.91,0-15.83,0-23.74c0-12.56,0-25.12,0-37.69c0-2.89,0-5.78,0-8.66c0-0.81-0.69-1.5-1.5-1.5
						c-7.97,0-15.94,0-23.91,0c-12.47,0-24.94,0-37.4,0c-2.91,0-5.82,0-8.73,0c0.5,0.5,1,1,1.5,1.5c0-6.75,0-13.5,0-20.25
						c0-1.23-1.25-1.75-2.26-1.3c-4.95,2.24-9.9,4.48-14.85,6.72c-7.9,3.58-15.8,7.15-23.7,10.73c-1.83,0.83-3.66,1.66-5.49,2.48
						c0.75,0.43,1.5,0.86,2.26,1.3c0-6.64,0-13.29,0-19.93c0-1.14-1.27-1.87-2.26-1.3c-6.73,3.92-13.45,7.84-20.18,11.76
						c-1.89,1.1-3.79,2.21-5.68,3.31c-2.1,1.22-4.19,2.45-6.29,3.67c-1.16,0.67-3.2,1.37-3.33,2.88c-0.18,2.11,0,4.32,0,6.44
						c0,1.92,0,3.85,0,5.77C194.79,310.86,197.79,310.87,197.79,308.93L197.79,308.93z"/>
				</g>
			</g>
			<g>
				<g>
					<path class="st0" d="M219.96,314.29c0,2.32,0.01,4.65,0,6.97c0,0.12,0.01,0.25-0.01,0.37c0.01-0.13-0.11,0.29-0.09,0.25
						c-0.02,0.04-0.21,0.31-0.08,0.15c-0.01,0.01-0.32,0.29-0.17,0.18c-0.36,0.26-0.5,0.22-1.04,0.22c-1.4,0-2.79,0-4.19,0
						c-0.7,0-1.4,0-2.09,0c-0.15,0-0.3,0-0.45,0c-0.39,0-0.53-0.1-0.81-0.39c0.15,0.35,0.29,0.71,0.44,1.06
						c0-0.54-0.34-0.84-0.51-1.19c-0.1-0.2-0.1-0.22-0.12-0.45c-0.01-0.1,0-0.2,0-0.3c0-0.64,0-1.28,0-1.93c0-1.53,0-3.06,0-4.59
						c0-0.12,0-0.23,0-0.35c0-0.32,0.09-0.56,0.4-0.81c-0.16,0.13,0.11-0.06,0.15-0.08c0.25-0.11-0.31,0.06,0.16-0.06
						c0.34-0.09-0.11-0.04,0.27-0.04c0.16,0,0.31,0,0.47,0c1.54,0,3.09,0,4.63,0c0.64,0,1.29-0.01,1.93,0
						C219.53,313.32,219.94,313.68,219.96,314.29c0.07,1.93,3.07,1.93,3,0c-0.06-1.74-1.16-3.34-2.88-3.83
						c-0.64-0.18-1.29-0.15-1.94-0.15c-1.77,0-3.55,0-5.32,0c-0.63,0-1.28-0.04-1.91,0.1c-1.68,0.38-2.89,1.85-3.06,3.54
						c-0.13,1.39-0.02,2.83-0.02,4.23c0,0.91,0,1.83,0,2.74c0,1.22,0.26,2.27,1.07,3.23c-0.15-0.35-0.29-0.71-0.44-1.06
						c0,1.56,2.12,2.31,3.38,2.34c0.46,0.01,0.93,0,1.4,0c1.63,0,3.27,0,4.9,0c0.53,0,1.05,0.02,1.58-0.08
						c1.47-0.25,2.71-1.41,3.1-2.84c0.16-0.57,0.14-1.16,0.14-1.74c0-0.75,0-1.49,0-2.24c0-1.42,0-2.83,0-4.25
						C222.96,312.36,219.96,312.36,219.96,314.29z"/>
				</g>
			</g>
			<g>
				<g>
					<path class="st0" d="M254.77,322.45c-2.37,0-4.74,0.01-7.11,0c-0.54,0-0.95-0.27-1.05-0.88c0.03,0.18,0-0.2,0-0.26
						c0-0.21,0-0.43,0-0.64c0-1.53,0-3.06,0-4.58c0-0.54,0-1.08,0-1.63c0-0.56,0.11-0.85,0.62-1.08c-0.17,0.08,0.07-0.02,0.09-0.02
						c0.42-0.12-0.18-0.02,0.26-0.03c0.02,0,0.04,0,0.07,0c0.18,0,0.36,0,0.55,0c0.69,0,1.38,0,2.08,0c1.39,0,2.79,0,4.18,0
						c0.1,0,0.2,0,0.3,0c0.15,0.01,0.24,0.02,0.1,0c0.1,0.02,0.22,0.05,0.31,0.09c-0.22-0.09,0.22,0.14,0.21,0.14
						c-0.15-0.11,0.17,0.18,0.17,0.18c-0.15-0.18,0.12,0.23,0.12,0.22c-0.03-0.07-0.06-0.19,0.02,0.09
						c0.09,0.33,0.04-0.09,0.03,0.27c0,0.13,0,0.27,0,0.4c0,1.66,0,3.31,0,4.97c0,0.57,0.01,1.13,0,1.7
						C255.74,322.01,255.36,322.43,254.77,322.45c-1.93,0.06-1.93,3.07,0,3c1.73-0.06,3.24-1.1,3.79-2.77
						c0.2-0.62,0.19-1.26,0.19-1.9c0-1.67,0-3.34,0-5.01c0-0.48,0.01-0.97,0-1.46c-0.04-1.46-0.78-2.85-2.11-3.54
						c-1.35-0.69-3.09-0.47-4.56-0.47c-1.46,0-2.93-0.02-4.39,0c-2.43,0.03-4.07,1.92-4.07,4.28c0,1.59,0,3.17,0,4.76
						c0,1.75-0.2,3.57,1.17,4.93c1.47,1.47,3.61,1.17,5.5,1.17c1.5,0,2.99,0,4.49,0C256.7,325.45,256.7,322.45,254.77,322.45z"/>
				</g>
			</g>
			<g>
				<g>
					<path class="st0" d="M325.88,322.45c-2.37,0-4.74,0.01-7.11,0c-0.54,0-0.95-0.27-1.05-0.88c0.03,0.18,0-0.2,0-0.26
						c0-0.21,0-0.43,0-0.64c0-1.53,0-3.06,0-4.58c0-0.54,0-1.08,0-1.63c0-0.56,0.11-0.85,0.62-1.08c-0.17,0.08,0.07-0.02,0.09-0.02
						c0.42-0.12-0.18-0.02,0.26-0.03c0.02,0,0.04,0,0.07,0c0.18,0,0.36,0,0.55,0c0.69,0,1.38,0,2.08,0c1.39,0,2.79,0,4.18,0
						c0.1,0,0.2,0,0.3,0c0.15,0.01,0.24,0.02,0.1,0c0.1,0.02,0.22,0.05,0.31,0.09c-0.22-0.09,0.22,0.14,0.21,0.14
						c-0.15-0.11,0.17,0.18,0.17,0.18c-0.15-0.18,0.12,0.23,0.12,0.22c-0.03-0.07-0.06-0.19,0.02,0.09
						c0.09,0.33,0.04-0.09,0.03,0.27c0,0.13,0,0.27,0,0.4c0,1.66,0,3.31,0,4.97c0,0.57,0.01,1.13,0,1.7
						C326.85,322.01,326.46,322.43,325.88,322.45c-1.93,0.06-1.93,3.07,0,3c1.73-0.06,3.24-1.1,3.79-2.77
						c0.2-0.62,0.19-1.26,0.19-1.9c0-1.67,0-3.34,0-5.01c0-0.48,0.01-0.97,0-1.46c-0.04-1.46-0.78-2.85-2.11-3.54
						c-1.35-0.69-3.09-0.47-4.56-0.47c-1.46,0-2.93-0.02-4.39,0c-2.43,0.03-4.07,1.92-4.07,4.28c0,1.59,0,3.17,0,4.76
						c0,1.75-0.2,3.57,1.17,4.93c1.47,1.47,3.61,1.17,5.5,1.17c1.5,0,2.99,0,4.49,0C327.81,325.45,327.81,322.45,325.88,322.45z"/>
				</g>
			</g>
			<g>
				<g>
					<path class="st0" d="M291.15,322.45c-2.37,0-4.74,0.01-7.11,0c-0.54,0-0.95-0.27-1.05-0.88c0.03,0.18,0-0.2,0-0.26
						c0-0.21,0-0.43,0-0.64c0-1.53,0-3.06,0-4.58c0-0.54,0-1.08,0-1.63c0-0.56,0.11-0.85,0.62-1.08c-0.17,0.08,0.07-0.02,0.09-0.02
						c0.42-0.12-0.18-0.02,0.26-0.03c0.02,0,0.04,0,0.07,0c0.18,0,0.36,0,0.55,0c0.69,0,1.38,0,2.08,0c1.39,0,2.79,0,4.18,0
						c0.1,0,0.2,0,0.3,0c0.15,0.01,0.24,0.02,0.1,0c0.1,0.02,0.22,0.05,0.31,0.09c-0.22-0.09,0.22,0.14,0.21,0.14
						c-0.15-0.11,0.17,0.18,0.17,0.18c-0.15-0.18,0.12,0.23,0.12,0.22c-0.03-0.07-0.06-0.19,0.02,0.09
						c0.09,0.33,0.04-0.09,0.03,0.27c0,0.13,0,0.27,0,0.4c0,1.66,0,3.31,0,4.97c0,0.57,0.01,1.13,0,1.7
						C292.13,322.01,291.74,322.43,291.15,322.45c-1.93,0.06-1.93,3.07,0,3c1.73-0.06,3.24-1.1,3.79-2.77
						c0.2-0.62,0.19-1.26,0.19-1.9c0-1.67,0-3.34,0-5.01c0-0.48,0.01-0.97,0-1.46c-0.04-1.46-0.78-2.85-2.11-3.54
						c-1.35-0.69-3.09-0.47-4.56-0.47c-1.46,0-2.93-0.02-4.39,0c-2.43,0.03-4.07,1.92-4.07,4.28c0,1.59,0,3.17,0,4.76
						c0,1.75-0.2,3.57,1.17,4.93c1.47,1.47,3.61,1.17,5.5,1.17c1.5,0,2.99,0,4.49,0C293.09,325.45,293.09,322.45,291.15,322.45z"/>
				</g>
			</g>
			<g>
				<g>
					<path class="st0" d="M332.88,232.09c-5.5,0-11,0-16.51,0c-8.82,0-17.63,0-26.45,0c-2.01,0-4.03,0-6.04,0c0.5,0.5,1,1,1.5,1.5
						c0-6.58,0-13.15,0-19.73c0-0.94,0-1.87,0-2.81c-0.5,0.5-1,1-1.5,1.5c5.5,0,11,0,16.51,0c8.82,0,17.63,0,26.45,0
						c2.01,0,4.03,0,6.04,0c-0.5-0.5-1-1-1.5-1.5c0,6.58,0,13.15,0,19.73c0,0.94,0,1.87,0,2.81c0,1.93,3,1.93,3,0
						c0-6.58,0-13.15,0-19.73c0-0.94,0-1.87,0-2.81c0-0.81-0.69-1.5-1.5-1.5c-5.5,0-11,0-16.51,0c-8.82,0-17.63,0-26.45,0
						c-2.01,0-4.03,0-6.04,0c-0.81,0-1.5,0.69-1.5,1.5c0,6.58,0,13.15,0,19.73c0,0.94,0,1.87,0,2.81c0,0.81,0.69,1.5,1.5,1.5
						c5.5,0,11,0,16.51,0c8.82,0,17.63,0,26.45,0c2.01,0,4.03,0,6.04,0C334.81,235.09,334.81,232.09,332.88,232.09z"/>
				</g>
			</g>
		</g>
		<g>
			<g>
				<path class="st0" d="M329.33,250.1c-4.16,5.72-8.33,11.45-12.49,17.17c-0.51,0.7-0.07,1.62,0.54,2.05
					c1.38,0.99,2.77,1.97,4.15,2.96c-0.23-0.56-0.46-1.13-0.69-1.69c-1.38,5.67-2.77,11.35-4.15,17.02
					c-0.46,1.88,2.43,2.68,2.89,0.8c1.38-5.67,2.77-11.35,4.15-17.02c0.17-0.7-0.13-1.29-0.69-1.69c-1.38-0.99-2.77-1.97-4.15-2.96
					c0.18,0.68,0.36,1.37,0.54,2.05c4.16-5.72,8.33-11.45,12.49-17.17C333.06,250.05,330.46,248.55,329.33,250.1L329.33,250.1z"/>
			</g>
		</g>
		<g>
			<g>
				<path class="st0" d="M309.89,270.88c2.52-0.41,5.05-0.82,7.57-1.23c0.36-0.06,0.72-0.12,1.08-0.17
					c0.78-0.13,1.28-1.13,1.05-1.85c-0.27-0.84-1.01-1.18-1.85-1.05c-2.52,0.41-5.05,0.82-7.57,1.23c-0.36,0.06-0.72,0.12-1.08,0.17
					c-0.78,0.13-1.28,1.13-1.05,1.85C308.31,270.68,309.05,271.02,309.89,270.88L309.89,270.88z"/>
			</g>
		</g>
		<g>
			<g>
				<path class="st0" d="M234.94,367.13c1.35-4.36,2.69-8.71,4.04-13.07c0.64-2.06,1.34-4.1,1.91-6.18c0.4-1.45-0.23-3.29-0.46-4.73
					c-0.41-2.54-0.81-5.09-1.22-7.63c-0.3-1.9-3.19-1.09-2.89,0.8c0.34,2.11,0.67,4.22,1.01,6.33c0.2,1.28,0.41,2.55,0.61,3.83
					c0.05,0.3,0.06,0.65,0.15,0.93c0.13,0.39,0.23-1.04-0.04-0.51c-0.31,0.6-0.43,1.4-0.63,2.04c-0.35,1.14-0.71,2.29-1.06,3.43
					c-0.9,2.91-1.8,5.82-2.7,8.73c-0.54,1.74-1.08,3.48-1.62,5.23C231.47,368.18,234.37,368.97,234.94,367.13L234.94,367.13z"/>
			</g>
		</g>
		<g>
			<g>
				<path class="st0" d="M239.55,348.62c5.16,0,10.32,0,15.48,0c0.74,0,1.47,0,2.21,0c0.73,0,1.19-0.48,1.45-1.1
					c0.98-2.35,1.96-4.7,2.95-7.05c0.31-0.75-0.34-1.64-1.05-1.85c-0.86-0.25-1.53,0.3-1.85,1.05c-0.98,2.35-1.96,4.7-2.95,7.05
					c0.48-0.37,0.96-0.73,1.45-1.1c-5.16,0-10.32,0-15.48,0c-0.74,0-1.47,0-2.21,0C237.62,345.62,237.62,348.62,239.55,348.62
					L239.55,348.62z"/>
			</g>
		</g>
	</g>
</g>
<g id="Layer_2_00000098211239721748118470000000864079477058961837_">
</g>
</svg>
