<?xml version="1.0" encoding="utf-8"?>
<!-- Generator: Adobe Illustrator 26.5.0, SVG Export Plug-In . SVG Version: 6.00 Build 0)  -->
<svg version="1.1" id="Layer_1" xmlns="http://www.w3.org/2000/svg" xmlns:xlink="http://www.w3.org/1999/xlink" x="0px" y="0px"
	 viewBox="0 0 472.54 472.54" style="enable-background:new 0 0 472.54 472.54;" xml:space="preserve">
<style type="text/css">
	.st0{fill:#3C445B;}
</style>
<g id="Layer_1_00000062187156283260547460000005627713147092919687_">
	<g>
		<g>
			<g>
				<g>
					<path class="st0" d="M177.95,257.93c-9.44,0-18.88,0-28.32,0c-1.34,0-2.68,0-4.02,0c0.5,0.5,1,1,1.5,1.5
						c0-5.94,0-11.89,0-17.83c-0.5,0.5-1,1-1.5,1.5c9.44,0,18.88,0,28.32,0c1.34,0,2.68,0,4.02,0c-0.5-0.5-1-1-1.5-1.5
						c0,5.94,0,11.89,0,17.83c0,1.93,3,1.93,3,0c0-5.94,0-11.89,0-17.83c0-0.81-0.69-1.5-1.5-1.5c-9.44,0-18.88,0-28.32,0
						c-1.34,0-2.68,0-4.02,0c-0.81,0-1.5,0.69-1.5,1.5c0,5.94,0,11.89,0,17.83c0,0.81,0.69,1.5,1.5,1.5c9.44,0,18.88,0,28.32,0
						c1.34,0,2.68,0,4.02,0C179.88,260.93,179.89,257.93,177.95,257.93z"/>
				</g>
			</g>
			<g>
				<g>
					<path class="st0" d="M143.05,357.2c-6.46,0-12.91,0-19.37,0c-0.91,0-1.83,0-2.74,0c0.5,0.5,1,1,1.5,1.5c0-4.06,0-8.12,0-12.19
						c-0.5,0.5-1,1-1.5,1.5c6.46,0,12.91,0,19.37,0c0.91,0,1.83,0,2.74,0c-0.5-0.5-1-1-1.5-1.5c0,4.06,0,8.12,0,12.19
						c0,1.93,3,1.93,3,0c0-4.06,0-8.12,0-12.19c0-0.81-0.69-1.5-1.5-1.5c-6.46,0-12.91,0-19.37,0c-0.91,0-1.83,0-2.74,0
						c-0.81,0-1.5,0.69-1.5,1.5c0,4.06,0,8.12,0,12.19c0,0.81,0.69,1.5,1.5,1.5c6.46,0,12.91,0,19.37,0c0.91,0,1.83,0,2.74,0
						C144.98,360.2,144.98,357.2,143.05,357.2z"/>
				</g>
			</g>
			<g>
				<g>
					<path class="st0" d="M168.75,345.01c-9.76,0-19.51,0-29.27,0c-3.11,0-6.23,0-9.34,0c0.48,0.63,0.96,1.27,1.45,1.9
						c0.86-4.81,1.71-9.63,2.57-14.44c1.41-7.92,2.82-15.84,4.22-23.76c0.54-3.04,1.08-6.07,1.62-9.11
						c1.28-7.18,2.55-14.36,3.83-21.55c0.68-3.84,1.36-7.67,2.04-11.51c0.37-2.09,0.99-4.28,1.14-6.4c0.01-0.1,0.04-0.21,0.06-0.31
						c-0.48,0.37-0.96,0.73-1.45,1.1c9.44,0,18.88,0,28.32,0c1.34,0,2.68,0,4.02,0c-0.48-0.37-0.96-0.73-1.45-1.1
						c1.5,8.42,2.99,16.83,4.49,25.25c0.21,1.21,0.43,2.42,0.64,3.62c0.34,1.9,3.23,1.09,2.89-0.8c-1.5-8.42-2.99-16.83-4.49-25.25
						c-0.21-1.21-0.43-2.42-0.64-3.62c-0.11-0.64-0.83-1.1-1.45-1.1c-9.44,0-18.88,0-28.32,0c-1.34,0-2.68,0-4.02,0
						c-0.61,0-1.33,0.46-1.45,1.1c-0.89,5.03-1.79,10.06-2.68,15.09c-1.36,7.63-2.71,15.26-4.07,22.9
						c-0.51,2.89-1.03,5.79-1.54,8.68c-1.36,7.63-2.71,15.26-4.07,22.89c-1.02,5.74-2.1,11.47-3.06,17.21
						c-0.02,0.1-0.03,0.19-0.05,0.29c-0.17,0.94,0.4,1.9,1.45,1.9c10.7,0,21.4,0,32.09,0c2.17,0,4.34,0,6.52,0
						C170.68,348.01,170.69,345.01,168.75,345.01L168.75,345.01z"/>
				</g>
			</g>
			<g>
				<g>
					<path class="st0" d="M168.75,345.01c-8.01,0-16.03,0-24.04,0c-6.43,0-12.86,0-19.29,0c-4.03,0-8.06,0-12.1,0
						c-1.93,0-1.93,3,0,3c6.95,0,13.9,0,20.85,0c7.58,0,15.15,0,22.73,0c3.95,0,7.9,0,11.86,0
						C170.68,348.01,170.69,345.01,168.75,345.01L168.75,345.01z"/>
				</g>
			</g>
			<g>
				<g>
					<path class="st0" d="M132.36,272.81c0-4.46,0-8.91,0-13.37c-0.5,0.5-1,1-1.5,1.5c6.95,0,13.91,0,20.86,0
						c11.1,0,22.19,0,33.29,0c2.56,0,5.13,0,7.69,0c-0.5-0.5-1-1-1.5-1.5c0,4.46,0,8.91,0,13.37c0,1.93,3,1.93,3,0
						c0-4.46,0-8.91,0-13.37c0-0.81-0.69-1.5-1.5-1.5c-6.95,0-13.91,0-20.86,0c-11.1,0-22.19,0-33.29,0c-2.56,0-5.13,0-7.69,0
						c-0.81,0-1.5,0.69-1.5,1.5c0,4.46,0,8.91,0,13.37C129.36,274.74,132.36,274.74,132.36,272.81L132.36,272.81z"/>
				</g>
			</g>
			<g>
				<g>
					<path class="st0" d="M131.2,347.57c4.89-3.98,9.77-7.95,14.66-11.93c5.59-4.55,11.17-9.09,16.76-13.64
						c2.4-1.95,4.79-3.91,7.19-5.86c1.5-1.22-0.64-3.33-2.12-2.12c-4.03,3.29-8.06,6.57-12.1,9.85
						c-6.95,5.66-13.91,11.32-20.86,16.98c-1.88,1.53-3.77,3.07-5.65,4.6C127.58,346.67,129.72,348.78,131.2,347.57L131.2,347.57z"
						/>
				</g>
			</g>
			<g>
				<g>
					<path class="st0" d="M177.6,291.06c-4.49-4.74-8.98-9.48-13.47-14.23c-3.78-3.99-7.55-7.98-11.32-11.97
						c-2.05-2.16-4.09-4.32-6.14-6.49c-0.35,0.85-0.71,1.71-1.06,2.56c9.44,0,18.88,0,28.32,0c1.34,0,2.68,0,4.02,0
						c-0.35-0.85-0.71-1.71-1.06-2.56c-5.36,5.67-10.72,11.33-16.09,17c-5.45,5.76-10.9,11.51-16.34,17.27
						c-2.46,2.6-4.92,5.2-7.38,7.8c-0.51,0.54-0.64,1.6,0,2.12c7.89,6.42,15.78,12.85,23.67,19.27c2.31,1.88,4.63,3.76,6.94,5.65
						c1.49,1.21,3.62-0.9,2.12-2.12c-8.66-7.04-17.31-14.09-25.97-21.14c-1.55-1.26-3.09-2.52-4.64-3.78c0,0.71,0,1.41,0,2.12
						c5.73-6.06,11.47-12.12,17.2-18.18c4.5-4.75,9-9.51,13.5-14.26c3.04-3.21,6.07-6.42,9.11-9.63c0.88-0.93,0.26-2.56-1.06-2.56
						c-9.44,0-18.88,0-28.32,0c-1.34,0-2.68,0-4.02,0c-1.33,0-1.94,1.63-1.06,2.56c4.5,4.76,9.01,9.52,13.51,14.28
						c3.63,3.84,7.26,7.67,10.89,11.51c2.17,2.3,4.35,4.59,6.52,6.89C176.81,294.58,178.93,292.46,177.6,291.06L177.6,291.06z"/>
				</g>
			</g>
		</g>
		<g>
			<g>
				<g>
					<path class="st0" d="M300.32,211.61c3.34-3.25,5.22-7.57,5.41-12.22c-0.63,0.48-1.27,0.96-1.9,1.45
						c9.24,2.68,19.43,1.2,27.39-4.26c7.07-4.84,12.12-12.42,13.65-20.87c1.06-5.87,0.52-11.94-1.62-17.51
						c-0.35,0.62-0.7,1.23-1.05,1.85c6.98-2.77,12.82-8.07,15.92-14.96c3.06-6.79,3.46-14.67,0.91-21.69
						c-5.1-14.04-20.53-22.09-34.97-18.03c-8.15,2.29-15,8.23-18.48,15.94c0.43-0.25,0.86-0.5,1.3-0.74
						c-6.31,0.33-12.34,3.16-16.42,8.03c-4.35,5.19-6.1,11.9-5,18.57c0.48-0.63,0.96-1.27,1.45-1.9
						c-6.39-0.54-12.48,3.75-13.9,10.06c-1.49,6.64,2.38,13.17,8.75,15.36c-0.37-0.48-0.73-0.96-1.1-1.45
						c-0.09,5.15,1.08,10.19,3.29,14.83c0.3-0.73,0.6-1.47,0.9-2.2c-1.73,0.36-3.37,0.96-4.94,1.78c0.5,0,1.01,0,1.51,0
						c-5.95-3.74-13.81-2.31-18.01,3.32c-3.91,5.22-3.29,12.79,1.3,17.39c2.47,2.47,6.12,4.1,9.65,3.91
						c-0.43-0.25-0.86-0.5-1.3-0.74c0.88,1.51,1.95,2.89,3.2,4.1c1.39,1.34,3.51-0.78,2.12-2.12c-1.08-1.05-1.98-2.19-2.74-3.5
						c-0.25-0.44-0.78-0.77-1.3-0.74c-5.65,0.3-10.49-4.67-10.57-10.19c-0.08-5.73,4.64-10.56,10.38-10.56
						c2.06,0,3.79,0.66,5.57,1.62c1.05,0.57,1.7,0.04,2.69-0.39c1.03-0.46,2.11-0.75,3.21-0.98c1.02-0.21,1.28-1.39,0.9-2.2
						c-1.98-4.16-2.97-8.71-2.89-13.31c0.01-0.69-0.48-1.23-1.1-1.45c-4.91-1.68-7.87-6.92-6.58-11.99
						c1.26-4.95,5.93-7.96,10.93-7.53c1.06,0.09,1.59-1.03,1.45-1.9c-1.91-11.49,6.98-22.21,18.52-22.8
						c0.49-0.03,1.08-0.26,1.3-0.74c2.78-6.17,7.81-11.23,14.15-13.71c6.25-2.45,13.34-2.42,19.54,0.17
						c12.33,5.16,18.72,19.34,14.54,32.01c-2.37,7.17-7.99,13.07-15,15.85c-0.7,0.28-1.36,1.02-1.05,1.85
						c3.22,8.41,2.6,17.89-1.98,25.68c-3.95,6.71-10.52,11.67-18.07,13.6c-5.16,1.32-10.56,1.16-15.67-0.32
						c-0.97-0.28-1.86,0.49-1.9,1.45c-0.15,3.87-1.76,7.4-4.53,10.1C296.82,210.84,298.94,212.96,300.32,211.61L300.32,211.61z"/>
				</g>
			</g>
			<g>
				<g>
					<path class="st0" d="M301.36,233.61c-1.13,18.15,2.15,36.4,9.46,53.04c1.62,3.68,3.44,7.28,5.44,10.77
						c0.43-0.75,0.86-1.5,1.3-2.26c-17.92,0-35.85,0-53.77,0c-5.15,0-10.29,0-15.44,0c0.48,0.63,0.96,1.27,1.45,1.9
						c6.59-15.85,10.39-32.82,11.18-49.98c0.2-4.38,0.2-8.76,0.01-13.14c-0.08-1.92-3.08-1.93-3,0c0.73,17.16-1.55,34.37-6.81,50.72
						c-1.26,3.92-2.69,7.79-4.27,11.59c-0.38,0.92,0.57,1.9,1.45,1.9c17.92,0,35.85,0,53.77,0c5.15,0,10.29,0,15.44,0
						c1.14,0,1.86-1.27,1.3-2.26c-8.61-15.03-13.67-32-14.57-49.32c-0.22-4.33-0.19-8.66,0.08-12.98
						C304.48,231.68,301.48,231.69,301.36,233.61L301.36,233.61z"/>
				</g>
			</g>
			<g>
				<g>
					<path class="st0" d="M255.28,277.91c5.99,0,11.98,0,17.97,0c9.6,0,19.19,0,28.79,0c2.2,0,4.39,0,6.59,0c1.93,0,1.93-3,0-3
						c-5.99,0-11.98,0-17.97,0c-9.6,0-19.19,0-28.79,0c-2.2,0-4.39,0-6.59,0C253.35,274.91,253.35,277.91,255.28,277.91
						L255.28,277.91z"/>
				</g>
			</g>
			<g>
				<g>
					<path class="st0" d="M249.02,296.66c0-6.75,0-13.5,0-20.25c0-1.23-1.25-1.75-2.26-1.3c-4.95,2.24-9.9,4.48-14.85,6.72
						c-7.9,3.58-15.8,7.15-23.7,10.73c-1.83,0.83-3.66,1.66-5.49,2.48c0.75,0.43,1.5,0.86,2.26,1.3c0-6.64,0-13.29,0-19.93
						c0-1.14-1.27-1.87-2.26-1.3c-6.43,3.75-12.87,7.5-19.3,11.25c-4.03,2.35-8.05,4.69-12.08,7.04c-1.34,0.78-4.03,1.7-4.1,3.5
						c-0.22,6.27,0,12.59,0,18.86c0,10.51,0,21.03,0,31.54c0,6.37-0.18,12.77,0,19.15c0,0.1,0,0.2,0,0.3c0,0.81,0.69,1.5,1.5,1.5
						c4.97,0,9.94,0,14.9,0c11.84,0,23.68,0,35.52,0c14.31,0,28.61,0,42.92,0c12.37,0,24.74,0,37.11,0c6.03,0,12.09,0.21,18.12,0
						c0.08,0,0.16,0,0.24,0c0.81,0,1.5-0.69,1.5-1.5c0-7.91,0-15.83,0-23.74c0-12.56,0-25.12,0-37.68c0-2.89,0-5.78,0-8.66
						c0-0.81-0.69-1.5-1.5-1.5c-7.91,0-15.82,0-23.72,0c-12.55,0-25.11,0-37.66,0c-2.89,0-5.77,0-8.66,0c-1.93,0-1.93,3,0,3
						c7.91,0,15.82,0,23.72,0c12.55,0,25.11,0,37.66,0c2.89,0,5.77,0,8.66,0c-0.5-0.5-1-1-1.5-1.5c0,7.91,0,15.83,0,23.74
						c0,12.56,0,25.12,0,37.68c0,2.89,0,5.78,0,8.66c0.5-0.5,1-1,1.5-1.5c-4.97,0-9.94,0-14.9,0c-11.84,0-23.68,0-35.52,0
						c-14.31,0-28.61,0-42.92,0c-12.37,0-24.74,0-37.11,0c-4.1,0-8.2,0-12.3,0c-1.9,0-3.93-0.21-5.81,0c-0.08,0.01-0.16,0-0.24,0
						c0.5,0.5,1,1,1.5,1.5c0-7.91,0-15.83,0-23.74c0-12.56,0-25.12,0-37.68c0-2.89,0-5.78,0-8.66c-0.25,0.43-0.5,0.86-0.74,1.3
						c10.16-5.92,20.31-11.84,30.47-17.76c1.42-0.83,2.85-1.66,4.27-2.49c-0.75-0.43-1.5-0.86-2.26-1.3c0,6.64,0,13.29,0,19.93
						c0,1.23,1.25,1.75,2.26,1.3c4.95-2.24,9.9-4.48,14.85-6.72c7.9-3.58,15.8-7.15,23.7-10.73c1.83-0.83,3.66-1.66,5.49-2.48
						c-0.75-0.43-1.5-0.86-2.26-1.3c0,6.75,0,13.5,0,20.25C246.02,298.59,249.02,298.6,249.02,296.66z"/>
				</g>
			</g>
			<g>
				<g>
					<path class="st0" d="M191.45,322.47c-2.37,0-4.74,0.01-7.11,0c-0.54,0-0.95-0.27-1.05-0.88c0.03,0.18,0-0.2,0-0.26
						c0-0.21,0-0.43,0-0.64c0-1.53,0-3.06,0-4.58c0-0.54,0-1.08,0-1.63c0-0.56,0.11-0.85,0.62-1.08c-0.17,0.08,0.07-0.02,0.09-0.02
						c0.42-0.12-0.18-0.02,0.26-0.03c0.02,0,0.04,0,0.07,0c0.18,0,0.36,0,0.55,0c0.69,0,1.38,0,2.08,0c1.39,0,2.79,0,4.18,0
						c0.1,0,0.2,0,0.3,0c0.15,0.01,0.24,0.02,0.1,0c0.1,0.02,0.22,0.05,0.31,0.09c-0.22-0.09,0.22,0.14,0.21,0.14
						c-0.15-0.11,0.17,0.18,0.17,0.18c-0.15-0.18,0.12,0.23,0.12,0.22c-0.03-0.07-0.06-0.19,0.02,0.09
						c0.09,0.33,0.04-0.09,0.03,0.27c0,0.13,0,0.27,0,0.4c0,1.66,0,3.31,0,4.97c0,0.57,0.01,1.13,0,1.7
						C192.42,322.03,192.04,322.45,191.45,322.47c-1.93,0.06-1.93,3.07,0,3c1.73-0.06,3.24-1.1,3.79-2.77
						c0.2-0.62,0.19-1.26,0.19-1.9c0-1.67,0-3.34,0-5.01c0-0.48,0.01-0.97,0-1.46c-0.04-1.46-0.78-2.85-2.11-3.54
						c-1.35-0.69-3.09-0.47-4.56-0.47c-1.46,0-2.93-0.02-4.39,0c-2.43,0.03-4.07,1.92-4.07,4.28c0,1.59,0,3.17,0,4.76
						c0,1.75-0.2,3.57,1.17,4.93c1.47,1.47,3.61,1.17,5.5,1.17c1.5,0,2.99,0,4.49,0C193.38,325.47,193.38,322.47,191.45,322.47z"/>
				</g>
			</g>
			<g>
				<g>
					<path class="st0" d="M227.23,322.47c-2.37,0-4.74,0.01-7.11,0c-0.54,0-0.95-0.27-1.05-0.88c0.03,0.18,0-0.2,0-0.26
						c0-0.21,0-0.43,0-0.64c0-1.53,0-3.06,0-4.58c0-0.54,0-1.08,0-1.63c0-0.56,0.11-0.85,0.62-1.08c-0.17,0.08,0.07-0.02,0.09-0.02
						c0.42-0.12-0.18-0.02,0.26-0.03c0.02,0,0.04,0,0.07,0c0.18,0,0.36,0,0.55,0c0.69,0,1.38,0,2.08,0c1.39,0,2.79,0,4.18,0
						c0.1,0,0.2,0,0.3,0c0.15,0.01,0.24,0.02,0.1,0c0.1,0.02,0.22,0.05,0.31,0.09c-0.22-0.09,0.22,0.14,0.21,0.14
						c-0.15-0.11,0.17,0.18,0.17,0.18c-0.15-0.18,0.12,0.23,0.12,0.22c-0.03-0.07-0.06-0.19,0.02,0.09
						c0.09,0.33,0.04-0.09,0.03,0.27c0,0.13,0,0.27,0,0.4c0,1.66,0,3.31,0,4.97c0,0.57,0.01,1.13,0,1.7
						C228.2,322.03,227.82,322.45,227.23,322.47c-1.93,0.06-1.93,3.07,0,3c1.73-0.06,3.24-1.1,3.79-2.77
						c0.2-0.62,0.19-1.26,0.19-1.9c0-1.67,0-3.34,0-5.01c0-0.48,0.01-0.97,0-1.46c-0.04-1.46-0.78-2.85-2.11-3.54
						c-1.35-0.69-3.09-0.47-4.56-0.47c-1.46,0-2.93-0.02-4.39,0c-2.43,0.03-4.07,1.92-4.07,4.28c0,1.59,0,3.17,0,4.76
						c0,1.75-0.2,3.57,1.17,4.93c1.47,1.47,3.61,1.17,5.5,1.17c1.5,0,2.99,0,4.49,0C229.16,325.47,229.17,322.47,227.23,322.47z"/>
				</g>
			</g>
			<g>
				<g>
					<path class="st0" d="M298.34,322.47c-2.37,0-4.74,0.01-7.11,0c-0.54,0-0.95-0.27-1.05-0.88c0.03,0.18,0-0.2,0-0.26
						c0-0.21,0-0.43,0-0.64c0-1.53,0-3.06,0-4.58c0-0.54,0-1.08,0-1.63c0-0.56,0.11-0.85,0.62-1.08c-0.17,0.08,0.07-0.02,0.09-0.02
						c0.42-0.12-0.18-0.02,0.26-0.03c0.02,0,0.04,0,0.07,0c0.18,0,0.36,0,0.55,0c0.69,0,1.38,0,2.08,0c1.39,0,2.79,0,4.18,0
						c0.1,0,0.2,0,0.3,0c0.15,0.01,0.24,0.02,0.1,0c0.1,0.02,0.22,0.05,0.31,0.09c-0.22-0.09,0.22,0.14,0.21,0.14
						c-0.15-0.11,0.17,0.18,0.17,0.18c-0.15-0.18,0.12,0.23,0.12,0.22c-0.03-0.07-0.06-0.19,0.02,0.09
						c0.09,0.33,0.04-0.09,0.03,0.27c0,0.13,0,0.27,0,0.4c0,1.66,0,3.31,0,4.97c0,0.57,0.01,1.13,0,1.7
						C299.31,322.03,298.93,322.45,298.34,322.47c-1.93,0.06-1.93,3.07,0,3c1.73-0.06,3.24-1.1,3.79-2.77
						c0.2-0.62,0.19-1.26,0.19-1.9c0-1.67,0-3.34,0-5.01c0-0.48,0.01-0.97,0-1.46c-0.04-1.46-0.78-2.85-2.11-3.54
						c-1.35-0.69-3.09-0.47-4.56-0.47c-1.46,0-2.93-0.02-4.39,0c-2.43,0.03-4.07,1.92-4.07,4.28c0,1.59,0,3.17,0,4.76
						c0,1.75-0.2,3.57,1.17,4.93c1.47,1.47,3.61,1.17,5.5,1.17c1.5,0,2.99,0,4.49,0C300.27,325.47,300.27,322.47,298.34,322.47z"/>
				</g>
			</g>
			<g>
				<g>
					<path class="st0" d="M263.62,322.47c-2.37,0-4.74,0.01-7.11,0c-0.54,0-0.95-0.27-1.05-0.88c0.03,0.18,0-0.2,0-0.26
						c0-0.21,0-0.43,0-0.64c0-1.53,0-3.06,0-4.58c0-0.54,0-1.08,0-1.63c0-0.56,0.11-0.85,0.62-1.08c-0.17,0.08,0.07-0.02,0.09-0.02
						c0.42-0.12-0.18-0.02,0.26-0.03c0.02,0,0.04,0,0.07,0c0.18,0,0.36,0,0.55,0c0.69,0,1.38,0,2.08,0c1.39,0,2.79,0,4.18,0
						c0.1,0,0.2,0,0.3,0c0.15,0.01,0.24,0.02,0.1,0c0.1,0.02,0.22,0.05,0.31,0.09c-0.22-0.09,0.22,0.14,0.21,0.14
						c-0.15-0.11,0.17,0.18,0.17,0.18c-0.15-0.18,0.12,0.23,0.12,0.22c-0.03-0.07-0.06-0.19,0.02,0.09
						c0.09,0.33,0.04-0.09,0.03,0.27c0,0.13,0,0.27,0,0.4c0,1.66,0,3.31,0,4.97c0,0.57,0.01,1.13,0,1.7
						C264.59,322.03,264.21,322.45,263.62,322.47c-1.93,0.06-1.93,3.07,0,3c1.73-0.06,3.24-1.1,3.79-2.77
						c0.2-0.62,0.19-1.26,0.19-1.9c0-1.67,0-3.34,0-5.01c0-0.48,0.01-0.97,0-1.46c-0.04-1.46-0.78-2.85-2.11-3.54
						c-1.35-0.69-3.09-0.47-4.56-0.47c-1.46,0-2.93-0.02-4.39,0c-2.43,0.03-4.07,1.92-4.07,4.28c0,1.59,0,3.17,0,4.76
						c0,1.75-0.2,3.57,1.17,4.93c1.47,1.47,3.61,1.17,5.5,1.17c1.5,0,2.99,0,4.49,0C265.55,325.47,265.55,322.47,263.62,322.47z"/>
				</g>
			</g>
			<g>
				<g>
					<path class="st0" d="M305.34,232.11c-5.5,0-11,0-16.51,0c-8.82,0-17.63,0-26.45,0c-2.01,0-4.03,0-6.04,0c0.5,0.5,1,1,1.5,1.5
						c0-6.58,0-13.15,0-19.73c0-0.94,0-1.87,0-2.81c-0.5,0.5-1,1-1.5,1.5c5.5,0,11,0,16.51,0c8.82,0,17.63,0,26.45,0
						c2.01,0,4.03,0,6.04,0c-0.5-0.5-1-1-1.5-1.5c0,6.58,0,13.15,0,19.73c0,0.94,0,1.87,0,2.81c0,1.93,3,1.93,3,0
						c0-6.58,0-13.15,0-19.73c0-0.94,0-1.87,0-2.81c0-0.81-0.69-1.5-1.5-1.5c-5.5,0-11,0-16.51,0c-8.82,0-17.63,0-26.45,0
						c-2.01,0-4.03,0-6.04,0c-0.81,0-1.5,0.69-1.5,1.5c0,6.58,0,13.15,0,19.73c0,0.94,0,1.87,0,2.81c0,0.81,0.69,1.5,1.5,1.5
						c5.5,0,11,0,16.51,0c8.82,0,17.63,0,26.45,0c2.01,0,4.03,0,6.04,0C307.27,235.11,307.28,232.11,305.34,232.11z"/>
				</g>
			</g>
		</g>
	</g>
</g>
<g id="Layer_2_00000127738043601080182990000006065259695947519629_">
</g>
</svg>
