<?xml version="1.0" encoding="utf-8"?>
<!-- Generator: Adobe Illustrator 26.5.0, SVG Export Plug-In . SVG Version: 6.00 Build 0)  -->
<svg version="1.1" id="Layer_1" xmlns="http://www.w3.org/2000/svg" xmlns:xlink="http://www.w3.org/1999/xlink" x="0px" y="0px"
	 viewBox="0 0 200 200" style="enable-background:new 0 0 200 200;" xml:space="preserve">
<style type="text/css">
	.st0{fill:none;stroke:#3C445B;stroke-width:9;stroke-miterlimit:10;}
	.st1{fill:none;stroke:#3C445B;stroke-miterlimit:10;}
	.st2{fill:#3C445B;}
</style>
<g id="Layer_2_00000072253593340374392660000015488664580321930881_">
</g>
<g>
	<g>
		<circle class="st0" cx="100.5" cy="101" r="38"/>
		<path class="st1" d="M100.5,143.6C77,143.6,58,124.5,58,101.1c0-23.5,19.1-42.5,42.5-42.5S143,77.7,143,101.1
			S123.9,143.6,100.5,143.6z M100.5,67.5C82,67.5,67,82.5,67,101s15,33.5,33.5,33.5s33.5-15,33.5-33.5S119,67.5,100.5,67.5z"/>
	</g>
	<path class="st2" d="M100.5,175L100.5,175c-2.5,0-4.5-2-4.5-4.5V158c0-2.5,2-4.5,4.5-4.5l0,0c2.5,0,4.5,2,4.5,4.5v12.5
		C105,173,103,175,100.5,175z"/>
	<path class="st2" d="M100.5,45.5L100.5,45.5c-2.5,0-4.5-2-4.5-4.5V29.5c0-2.5,2-4.5,4.5-4.5l0,0c2.5,0,4.5,2,4.5,4.5V41
		C105,43.5,103,45.5,100.5,45.5z"/>
	<polygon class="st2" points="96,101 96,101 105,101 	"/>
	<path class="st2" d="M171,105.5h-12c-2.5,0-4.5-2-4.5-4.5l0,0c0-2.5,2-4.5,4.5-4.5h12c2.5,0,4.5,2,4.5,4.5l0,0
		C175.5,103.5,173.5,105.5,171,105.5z"/>
	<path class="st2" d="M42,105.5H29c-2.5,0-4.5-2-4.5-4.5l0,0c0-2.5,2-4.5,4.5-4.5h13c2.5,0,4.5,2,4.5,4.5l0,0
		C46.5,103.5,44.5,105.5,42,105.5z"/>
	<polygon class="st2" points="100.5,105.5 100.5,96.5 100.5,96.5 	"/>
	<path class="st2" d="M146.1,153l-8.2-8.2c-1.8-1.8-1.8-4.6,0-6.4l0,0c1.8-1.8,4.6-1.8,6.4,0l8.2,8.2c1.8,1.8,1.8,4.6,0,6.4l0,0
		C150.7,154.8,147.9,154.8,146.1,153z"/>
	<path class="st2" d="M55.2,62.1l-7.7-7.7c-1.8-1.8-1.8-4.6,0-6.4l0,0c1.8-1.8,4.6-1.8,6.4,0l7.7,7.7c1.8,1.8,1.8,4.6,0,6.4l0,0
		C59.8,63.8,57,63.8,55.2,62.1z"/>
	<polygon class="st2" points="97.3,104.2 97.3,104.1 103.7,97.9 	"/>
	<polygon class="st2" points="103.7,104.2 97.3,97.9 103.7,104.1 	"/>
	<path class="st2" d="M139.4,62.1L139.4,62.1c-1.8-1.8-1.8-4.6,0-6.4l8.7-8.7c1.8-1.8,4.6-1.8,6.4,0l0,0c1.8,1.8,1.8,4.6,0,6.4
		l-8.7,8.7C144,63.8,141.2,63.8,139.4,62.1z"/>
	<path class="st2" d="M47.5,154L47.5,154c-1.8-1.8-1.8-4.6,0-6.4l9.2-9.2c1.8-1.8,4.6-1.8,6.4,0l0,0c1.8,1.8,1.8,4.6,0,6.4l-9.2,9.2
		C52.1,155.8,49.3,155.8,47.5,154z"/>
</g>
</svg>
